<?xml version="1.0" encoding="UTF-8"?>
<svg version="1.1" xmlns="http://www.w3.org/2000/svg" width="64" height="64">
<path d="M0 0 C1.98 0 3.96 0 6 0 C6.33 1.65 6.66 3.3 7 5 C11.95 6.485 11.95 6.485 17 8 C17.33 7.67 17.66 7.34 18 7 C20.5 6.875 20.5 6.875 23 7 C24 8 24 8 24.0625 10.3125 C24.041875 11.199375 24.02125 12.08625 24 13 C24 17.00165194 24.35002837 19.38577643 26 23 C28.50995496 24.43923199 28.50995496 24.43923199 31 25 C30.505 27.475 30.505 27.475 30 30 C28.35 30.33 26.7 30.66 25 31 C24.67 32.32 24.34 33.64 24 35 C23.01 34.505 23.01 34.505 22 34 C22.33 32.02 22.66 30.04 23 28 C18.05 28 13.1 28 8 28 C8 29.32 8 30.64 8 32 C6.68 32 5.36 32 4 32 C4 32.99 4 33.98 4 35 C3.34 35 2.68 35 2 35 C2 34.01 2 33.02 2 32 C0.70145279 33.07507629 -0.58858361 34.16043736 -1.875 35.25 C-2.59429688 35.85328125 -3.31359375 36.4565625 -4.0546875 37.078125 C-5.97052118 38.97087634 -6.96449045 40.53657727 -8 43 C-6.7625 43.680625 -6.7625 43.680625 -5.5 44.375 C-4.675 44.91125 -3.85 45.4475 -3 46 C-3 46.66 -3 47.32 -3 48 C-3.99 48 -4.98 48 -6 48 C-6.99 50.475 -6.99 50.475 -8 53 C-8.66 52.67 -9.32 52.34 -10 52 C-9.34 50.02 -8.68 48.04 -8 46 C-8.99 46.66 -9.98 47.32 -11 48 C-13.6875 48.125 -13.6875 48.125 -16 48 C-17.125 46.25 -17.125 46.25 -18 44 C-17.649375 43.4225 -17.29875 42.845 -16.9375 42.25 C-15.79100846 39.49842031 -16.14917532 38.65512019 -17.0625 35.875 C-18.31991416 32.82775308 -18.70204241 32.16630191 -21.6875 30.5 C-22.450625 30.335 -23.21375 30.17 -24 30 C-24.3125 27.6875 -24.3125 27.6875 -24 25 C-23.236875 24.5875 -22.47375 24.175 -21.6875 23.75 C-18.12162635 21.42803576 -17.58933722 19.2027204 -16.41796875 15.22265625 C-15.92034788 12.57642939 -16.29657766 10.57921526 -17 8 C-16.34 7.34 -15.68 6.68 -15 6 C-12.5 6.375 -12.5 6.375 -10 7 C-6.57710342 7 -4.00288468 5.52874129 -1 4 C0.04289755 1.93109581 0.04289755 1.93109581 0 0 Z M3 2 C2.67 2.66 2.34 3.32 2 4 C2.66 4 3.32 4 4 4 C3.67 3.34 3.34 2.68 3 2 Z M5 7 C5 12.28 5 17.56 5 23 C9.15358254 19.56530675 12.78875342 16.36729534 16 12 C12.07813602 9.17260969 9.86275001 7.97255 5 7 Z M-2.9375 8.4375 C-3.64777344 8.70433594 -4.35804687 8.97117187 -5.08984375 9.24609375 C-7.04052945 9.9837561 -7.04052945 9.9837561 -9 11 C-7.54718935 16.32697239 -3.91888622 19.36402802 0 23 C0.66 22.67 1.32 22.34 2 22 C2 17.05 2 12.1 2 7 C0.24861123 7 -1.3144828 7.82409928 -2.9375 8.4375 Z M-14 9 C-14 9.66 -14 10.32 -14 11 C-13.34 11 -12.68 11 -12 11 C-12 10.34 -12 9.68 -12 9 C-12.66 9 -13.32 9 -14 9 Z M19 10 C19.66 10.66 20.32 11.32 21 12 C21 11.34 21 10.68 21 10 C20.34 10 19.68 10 19 10 Z M-13 15 C-13.66874384 16.64499042 -14.33494074 18.29101648 -15 19.9375 C-15.37125 20.85402344 -15.7425 21.77054688 -16.125 22.71484375 C-17.059598 24.74782158 -17.059598 24.74782158 -17 26 C-11.72 26 -6.44 26 -1 26 C-5.74894658 20.2621374 -5.74894658 20.2621374 -11 15 C-11.66 15 -12.32 15 -13 15 Z M14.8359375 16.8984375 C14.02382813 17.71570313 13.21171875 18.53296875 12.375 19.375 C11.55773438 20.18710937 10.74046875 20.99921875 9.8984375 21.8359375 C7.78017842 23.77078597 7.78017842 23.77078597 8 26 C12.95 26 17.9 26 23 26 C22.39515334 19.49673973 22.39515334 19.49673973 19 15 C16.77078597 14.78017842 16.77078597 14.78017842 14.8359375 16.8984375 Z M2 25 C2 26.32 2 27.64 2 29 C2.99 29 3.98 29 5 29 C5 27.68 5 26.36 5 25 C4.01 25 3.02 25 2 25 Z M-21 26 C-21.33 26.66 -21.66 27.32 -22 28 C-21.34 28 -20.68 28 -20 28 C-20.33 27.34 -20.66 26.68 -21 26 Z M26 26 C26 26.66 26 27.32 26 28 C26.66 28 27.32 28 28 28 C28 27.34 28 26.68 28 26 C27.34 26 26.68 26 26 26 Z M-17 28 C-16.566875 29.60875 -16.13375 31.2175 -15.6875 32.875 C-15.44386719 33.77992187 -15.20023438 34.68484375 -14.94921875 35.6171875 C-14.13330148 38.32113319 -14.13330148 38.32113319 -11 40 C-7.7 36.7 -4.4 33.4 -1 30 C-1.33 29.34 -1.66 28.68 -2 28 C-6.95 28 -11.9 28 -17 28 Z M-14 43 C-14.33 43.66 -14.66 44.32 -15 45 C-14.34 45 -13.68 45 -13 45 C-13.33 44.34 -13.66 43.68 -14 43 Z " fill="#000000" transform="translate(24,0)"/>
<path d="M0 0 C5.97474196 3.38192941 8.49400177 8.73500442 11 15 C11 15.66 11 16.32 11 17 C14.63 17.99 18.26 18.98 22 20 C22 20.66 22 21.32 22 22 C20.68 22 19.36 22 18 22 C18 25.3 18 28.6 18 32 C17.01 32 16.02 32 15 32 C14.95101562 31.28972656 14.90203125 30.57945313 14.8515625 29.84765625 C14.77679688 28.92855469 14.70203125 28.00945313 14.625 27.0625 C14.52058594 25.68771484 14.52058594 25.68771484 14.4140625 24.28515625 C14.20910156 23.15400391 14.20910156 23.15400391 14 22 C13.34 21.67 12.68 21.34 12 21 C11.67 24.63 11.34 28.26 11 32 C10.01 32 9.02 32 8 32 C7.95101562 30.89140625 7.90203125 29.7828125 7.8515625 28.640625 C7.77650785 27.17705935 7.70096119 25.71351888 7.625 24.25 C7.5940625 23.52039063 7.563125 22.79078125 7.53125 22.0390625 C7.31050269 17.99202856 6.85079003 15.70158006 5 12 C4.67 18.6 4.34 25.2 4 32 C3.34 32 2.68 32 2 32 C1.98541748 31.19256348 1.97083496 30.38512695 1.95581055 29.55322266 C1.88153914 25.9099873 1.78480975 22.26768967 1.6875 18.625 C1.65366211 16.71847656 1.65366211 16.71847656 1.61914062 14.7734375 C1.58369141 13.56171875 1.54824219 12.35 1.51171875 11.1015625 C1.48553467 9.98088379 1.45935059 8.86020508 1.43237305 7.70556641 C1.21834839 6.36631104 1.21834839 6.36631104 1 5 C0.01 4.34 -0.98 3.68 -2 3 C-2 12.57 -2 22.14 -2 32 C-2.99 32 -3.98 32 -5 32 C-5 22.1 -5 12.2 -5 2 C-6.32 2.33 -7.64 2.66 -9 3 C-9 12.57 -9 22.14 -9 32 C-9.66 32 -10.32 32 -11 32 C-11.495 19.13 -11.495 19.13 -12 6 C-14.19164944 9.28747416 -14.28679386 10.48494825 -14.4140625 14.32421875 C-14.45273437 15.35224609 -14.49140625 16.38027344 -14.53125 17.43945312 C-14.5621875 18.51130859 -14.593125 19.58316406 -14.625 20.6875 C-14.66367187 21.77095703 -14.70234375 22.85441406 -14.7421875 23.97070312 C-14.83650509 26.64696467 -14.92210005 29.32321843 -15 32 C-15.99 32 -16.98 32 -18 32 C-18.33 28.37 -18.66 24.74 -19 21 C-21.39763185 23.39763185 -21.34280586 24.33273498 -21.625 27.625 C-21.69976563 28.44226563 -21.77453125 29.25953125 -21.8515625 30.1015625 C-21.90054687 30.72804688 -21.94953125 31.35453125 -22 32 C-22.66 32 -23.32 32 -24 32 C-24 29.69 -24 27.38 -24 25 C-25.32 25.33 -26.64 25.66 -28 26 C-28 27.98 -28 29.96 -28 32 C-28.99 32 -29.98 32 -31 32 C-31 30.35 -31 28.7 -31 27 C-32.32 27 -33.64 27 -35 27 C-35 28.65 -35 30.3 -35 32 C-35.66 32 -36.32 32 -37 32 C-37 30.35 -37 28.7 -37 27 C-38.65 27 -40.3 27 -42 27 C-42 26.34 -42 25.68 -42 25 C-40.90300781 24.84144531 -39.80601563 24.68289062 -38.67578125 24.51953125 C-37.2211821 24.28491848 -35.76676393 24.04918177 -34.3125 23.8125 C-33.59126953 23.71130859 -32.87003906 23.61011719 -32.12695312 23.50585938 C-26.98509101 22.63714295 -24.30093459 21.2742871 -21 17 C-19.57798348 14.08298498 -19.57798348 14.08298498 -18.5625 11 C-14.93663564 1.91295722 -10.12290219 -1.9816448 0 0 Z " fill="#000000" transform="translate(42,32)"/>
</svg>
