<?xml version="1.0" encoding="UTF-8"?>
<svg version="1.1" xmlns="http://www.w3.org/2000/svg" width="64" height="64">
<path d="M0 0 C2.475 0.495 2.475 0.495 5 1 C5 3.31 5 5.62 5 8 C6.03640625 8.03738281 7.0728125 8.07476562 8.140625 8.11328125 C9.51045184 8.17895788 10.88024191 8.24540464 12.25 8.3125 C13.27287109 8.34633789 13.27287109 8.34633789 14.31640625 8.38085938 C17.38183901 8.54454753 19.72911194 8.85941252 22.46875 10.28125 C24 12 24 12 24.390625 14.04296875 C24.26041667 16.02864583 24.13020833 18.01432292 24 20 C25.2065625 19.9690625 25.2065625 19.9690625 26.4375 19.9375 C29 20 29 20 30 21 C30.09981214 23.6773138 30.13879875 26.32304175 30.125 29 C30.12886719 29.75023438 30.13273437 30.50046875 30.13671875 31.2734375 C30.12661053 36.87338947 30.12661053 36.87338947 29 38 C27.33382885 38.04063832 25.66611905 38.042721 24 38 C24.0825 39.258125 24.165 40.51625 24.25 41.8125 C24.390625 43.95703125 24.390625 43.95703125 24 46 C20.91916849 48.94160506 18.77227023 49.36287117 14.578125 49.29296875 C13.04091797 49.2784668 13.04091797 49.2784668 11.47265625 49.26367188 C10.40917969 49.23853516 9.34570312 49.21339844 8.25 49.1875 C7.17105469 49.17396484 6.09210937 49.16042969 4.98046875 49.14648438 C2.3198058 49.11116584 -0.33984296 49.06184199 -3 49 C-3.29261719 49.60328125 -3.58523437 50.2065625 -3.88671875 50.828125 C-5.31386898 53.61231984 -6.81466825 55.7522302 -9 58 C-11.6875 58.375 -11.6875 58.375 -14 58 C-14.495 57.505 -14.495 57.505 -15 57 C-14.82364548 54.30917128 -14.38164079 51.67148554 -14 49 C-16.31 49 -18.62 49 -21 49 C-21.495 47.515 -21.495 47.515 -22 46 C-19.03 46 -16.06 46 -13 46 C-12.67 44.68 -12.34 43.36 -12 42 C-18.93 42 -25.86 42 -33 42 C-33 41.01 -33 40.02 -33 39 C-25.74 39 -18.48 39 -11 39 C-11 38.34 -11 37.68 -11 37 C-13.97 37 -16.94 37 -20 37 C-20.495 35.515 -20.495 35.515 -21 34 C-18.525 33.505 -18.525 33.505 -16 33 C-18.11925604 30.88074396 -22.6196093 31.58168983 -25.5625 31.4375 C-26.36880859 31.39431641 -27.17511719 31.35113281 -28.00585938 31.30664062 C-30.00368805 31.20024738 -32.0018207 31.09959112 -34 31 C-34 29.68 -34 28.36 -34 27 C-30.04 27 -26.08 27 -22 27 C-22 26.34 -22 25.68 -22 25 C-22.66 24.67 -23.32 24.34 -24 24 C-24 23.01 -24 22.02 -24 21 C-22.02 20.67 -20.04 20.34 -18 20 C-24.93 19.505 -24.93 19.505 -32 19 C-32 18.01 -32 17.02 -32 16 C-30.08574219 15.92652344 -30.08574219 15.92652344 -28.1328125 15.8515625 C-26.46351928 15.77653809 -24.79424954 15.70099012 -23.125 15.625 C-22.28324219 15.5940625 -21.44148438 15.563125 -20.57421875 15.53125 C-19.76855469 15.49257813 -18.96289062 15.45390625 -18.1328125 15.4140625 C-17.38918457 15.3826416 -16.64555664 15.3512207 -15.87939453 15.31884766 C-13.75989026 15.14580449 -13.75989026 15.14580449 -12 13 C-14.64 12.67 -17.28 12.34 -20 12 C-19.67 11.01 -19.34 10.02 -19 9 C-18.21496094 9.020625 -17.42992188 9.04125 -16.62109375 9.0625 C-10.19194492 9.02419204 -10.19194492 9.02419204 -4.64453125 6.15234375 C-2.9483124 4.16934151 -1.41674773 2.18997273 0 0 Z M1 4 C-1.09632017 6.16229877 -3.15026251 8.34557232 -5.1875 10.5625 C-5.75275391 11.17158203 -6.31800781 11.78066406 -6.90039062 12.40820312 C-10.70177284 16.5231014 -14.3765254 20.727709 -18 25 C-16.19147035 29.13875054 -13.90628784 30.72133209 -10 33 C-9.34 33 -8.68 33 -8 33 C-8.20496094 34.08539063 -8.40992188 35.17078125 -8.62109375 36.2890625 C-8.89326183 37.73436885 -9.16539542 39.1796817 -9.4375 40.625 C-9.57220703 41.33785156 -9.70691406 42.05070312 -9.84570312 42.78515625 C-10.61018271 46.84995013 -11.33669637 50.91714075 -12 55 C-7.88475383 50.9928466 -4.07739904 46.77374273 -0.3125 42.4375 C0.26822266 41.77814453 0.84894531 41.11878906 1.44726562 40.43945312 C2.00478516 39.79814453 2.56230469 39.15683594 3.13671875 38.49609375 C3.63905029 37.92044678 4.14138184 37.3447998 4.65893555 36.75170898 C6.28865703 34.73703693 6.28865703 34.73703693 8 31 C4.7 28.69 1.4 26.38 -2 24 C-1.34034961 17.13963599 0.2362764 10.65556077 2 4 C1.67 4 1.34 4 1 4 Z M3 12 C2.01 15.3 1.02 18.6 0 22 C0.721875 22.44730469 1.44375 22.89460938 2.1875 23.35546875 C3.115625 23.96003906 4.04375 24.56460937 5 25.1875 C5.928125 25.77917969 6.85625 26.37085938 7.8125 26.98046875 C10 29 10 29 10.59375 31.37890625 C9.76844215 35.02220604 7.9476188 36.95487976 5.5 39.75 C2.5982745 42.53858503 2.5982745 42.53858503 1 46 C3.77109307 46.05392397 6.54113818 46.09363455 9.3125 46.125 C10.09818359 46.14175781 10.88386719 46.15851562 11.69335938 46.17578125 C12.45068359 46.18222656 13.20800781 46.18867187 13.98828125 46.1953125 C15.03302612 46.21102295 15.03302612 46.21102295 16.09887695 46.22705078 C18.331173 46.10574595 18.331173 46.10574595 21 44 C21.46812975 40.92883403 21.46812975 40.92883403 21.3984375 37.3125 C21.40130768 36.65419189 21.40417786 35.99588379 21.40713501 35.31762695 C21.40917676 33.92560974 21.40363902 32.53356391 21.39111328 31.14160156 C21.37505878 29.00781253 21.39095563 26.87591745 21.41015625 24.7421875 C21.40817383 23.39062081 21.40433019 22.0390553 21.3984375 20.6875 C21.39505371 19.45386719 21.39166992 18.22023438 21.38818359 16.94921875 C21.19603271 15.48935547 21.19603271 15.48935547 21 14 C17.31912647 11.54608431 14.55644412 11.77197241 10.3125 11.875 C9.61060547 11.88402344 8.90871094 11.89304687 8.18554688 11.90234375 C6.45688475 11.92586296 4.72839855 11.96173287 3 12 Z M24 23 C24 26.96 24 30.92 24 35 C24.99 35 25.98 35 27 35 C27 31.04 27 27.08 27 23 C26.01 23 25.02 23 24 23 Z " fill="#000000" transform="translate(34,3)"/>
<path d="M0 0 C2.31 0 4.62 0 7 0 C7 0.99 7 1.98 7 3 C4.69 3 2.38 3 0 3 C0 2.01 0 1.02 0 0 Z " fill="#000000" transform="translate(5,37)"/>
<path d="M0 0 C1.98 0 3.96 0 6 0 C6 0.99 6 1.98 6 3 C4.02 3 2.04 3 0 3 C0 2.01 0 1.02 0 0 Z " fill="#000000" transform="translate(5,49)"/>
<path d="M0 0 C1.65 0 3.3 0 5 0 C5 0.99 5 1.98 5 3 C3.02 3 1.04 3 -1 3 C-0.67 2.01 -0.34 1.02 0 0 Z " fill="#000000" transform="translate(8,12)"/>
<path d="M0 0 C1.65 0 3.3 0 5 0 C5 0.99 5 1.98 5 3 C3.35 3 1.7 3 0 3 C0 2.01 0 1.02 0 0 Z " fill="#000000" transform="translate(4,24)"/>
</svg>
