<?xml version="1.0" encoding="UTF-8"?>
<svg version="1.1" xmlns="http://www.w3.org/2000/svg" width="64" height="64">
<path d="M0 0 C3.11246108 0.75375911 6.02323523 1.82960236 9 3 C10.12341797 3.37705078 10.12341797 3.37705078 11.26953125 3.76171875 C16.75262238 5.62893357 16.75262238 5.62893357 19 9 C18.65698407 12.77317527 17.94125778 16.33955306 17 20 C17.92232422 19.94779297 17.92232422 19.94779297 18.86328125 19.89453125 C19.67152344 19.86746094 20.47976562 19.84039063 21.3125 19.8125 C22.51326172 19.76029297 22.51326172 19.76029297 23.73828125 19.70703125 C26 20 26 20 27.61645508 21.1237793 C29.6244849 23.84686191 29.38846076 25.95651439 29.3984375 29.3125 C29.40423828 31.17261719 29.40423828 31.17261719 29.41015625 33.0703125 C29.39855469 34.36710937 29.38695312 35.66390625 29.375 37 C29.38660156 38.29679687 29.39820313 39.59359375 29.41015625 40.9296875 C29.40628906 42.16976562 29.40242188 43.40984375 29.3984375 44.6875 C29.39505371 45.82574219 29.39166992 46.96398438 29.38818359 48.13671875 C29 51 29 51 27.61645508 52.8762207 C25.42590921 54.39911492 23.95174489 54.30224978 21.3125 54.1875 C20.10013672 54.14689453 20.10013672 54.14689453 18.86328125 54.10546875 C18.24839844 54.07066406 17.63351563 54.03585938 17 54 C16.814375 55.918125 16.814375 55.918125 16.625 57.875 C16.25 61.75 16.25 61.75 14 64 C11.52635949 64.22396958 9.16765793 64.32808783 6.69140625 64.3359375 C5.96888168 64.3425943 5.24635712 64.3492511 4.50193787 64.35610962 C2.97291614 64.36623962 1.44385017 64.37092653 -0.08520508 64.37060547 C-2.42538272 64.37497736 -4.76367211 64.41128466 -7.10351562 64.44921875 C-8.58853521 64.45508717 -10.07356376 64.45905639 -11.55859375 64.4609375 C-12.2586705 64.47530853 -12.95874725 64.48967957 -13.68003845 64.50448608 C-16.77220162 64.47539312 -18.55469627 64.38613986 -20.93310547 62.32373047 C-22.21602391 59.529493 -22.4299991 57.43203395 -22.51171875 54.359375 C-22.54716797 53.28945313 -22.58261719 52.21953125 -22.61914062 51.1171875 C-22.64169922 50.00601563 -22.66425781 48.89484375 -22.6875 47.75 C-22.72166016 46.62335937 -22.75582031 45.49671875 -22.79101562 44.3359375 C-22.87343014 41.55739099 -22.94260298 38.77915748 -23 36 C-24.32 35.34 -25.64 34.68 -27 34 C-27.08745946 30.6043303 -27.14054444 27.20895227 -27.1875 23.8125 C-27.21263672 22.85279297 -27.23777344 21.89308594 -27.26367188 20.90429688 C-27.35565603 12.04315629 -27.35565603 12.04315629 -24 8 C-20.97316287 5.18191025 -17.87707507 4.29235836 -14 3 C-13.37480469 2.49210938 -12.74960937 1.98421875 -12.10546875 1.4609375 C-8.38308225 -1.12194293 -4.35870632 -0.48144768 0 0 Z M-12 6 C-12 6.66 -12 7.32 -12 8 C-12.886875 7.896875 -13.77375 7.79375 -14.6875 7.6875 C-18.17583536 7.70480941 -18.17583536 7.70480941 -20.8125 10.3125 C-24.32794196 14.63147155 -24.12707689 18.36735774 -24.0625 23.6875 C-24.05798828 24.38939453 -24.05347656 25.09128906 -24.04882812 25.81445312 C-24.03706927 27.54300538 -24.01913454 29.27151365 -24 31 C-23.34 31.33 -22.68 31.66 -22 32 C-22 28.04 -22 24.08 -22 20 C-21.030625 19.731875 -20.06125 19.46375 -19.0625 19.1875 C-18.051875 18.795625 -17.04125 18.40375 -16 18 C-15.67 17.01 -15.34 16.02 -15 15 C-14.30132812 15.15597656 -13.60265625 15.31195313 -12.8828125 15.47265625 C-11.51769531 15.76462891 -11.51769531 15.76462891 -10.125 16.0625 C-9.22007813 16.25972656 -8.31515625 16.45695312 -7.3828125 16.66015625 C-4.98985875 17.23202157 -4.98985875 17.23202157 -3 16 C0.5625 15.875 0.5625 15.875 4 16 C5.91683709 17.91683709 5.42750305 21.36557292 5.62109375 23.96875 C5.80865234 24.97421875 5.80865234 24.97421875 6 26 C6.66 26.33 7.32 26.66 8 27 C8 22.71 8 18.42 8 14 C10.475 14.495 10.475 14.495 13 15 C13.66 14.34 14.32 13.68 15 13 C14.67958603 10.39719432 14.67958603 10.39719432 14 8 C12.02 8.33 10.04 8.66 8 9 C7.67 8.01 7.34 7.02 7 6 C5.906875 5.87625 4.81375 5.7525 3.6875 5.625 C0 5 0 5 -3 3 C-7.0311875 2.48318109 -9.06972119 3.17825003 -12 6 Z M-3.875 19 C-7 20 -7 20 -10.0625 19.375 C-13.07437548 18.6926347 -13.07437548 18.6926347 -15.65307617 20.50097656 C-18.25786113 23.27457262 -18.56862604 24.73635152 -18.56648254 28.48455811 C-18.54067612 29.18574768 -18.51486969 29.88693726 -18.48828125 30.609375 C-18.48120651 31.33618469 -18.47413177 32.06299438 -18.46684265 32.81182861 C-18.4389273 35.12561457 -18.37620383 37.43694998 -18.3125 39.75 C-18.28741299 41.32157954 -18.26460051 42.89319716 -18.24414062 44.46484375 C-18.19336518 48.31159137 -18.09553647 52.15306501 -18 56 C-11.73 56 -5.46 56 1 56 C1 56.99 1 57.98 1 59 C-5.27 59 -11.54 59 -18 59 C-17.67 59.66 -17.34 60.32 -17 61 C-7.76 61 1.48 61 11 61 C11.33 60.34 11.66 59.68 12 59 C10.68 59 9.36 59 8 59 C8 58.01 8 57.02 8 56 C9.65 56 11.3 56 13 56 C13 43.46 13 30.92 13 18 C12.34 18 11.68 18 11 18 C10.90912109 19.17369141 10.90912109 19.17369141 10.81640625 20.37109375 C10.73261719 21.38300781 10.64882813 22.39492188 10.5625 23.4375 C10.48128906 24.44683594 10.40007813 25.45617187 10.31640625 26.49609375 C10 29 10 29 9 30 C8.91299658 31.63472882 8.89298937 33.27314055 8.90234375 34.91015625 C8.90717773 36.39418945 8.90717773 36.39418945 8.91210938 37.90820312 C8.92048828 38.94912109 8.92886719 39.99003906 8.9375 41.0625 C8.94201172 42.10728516 8.94652344 43.15207031 8.95117188 44.22851562 C8.96300087 46.8190666 8.97948311 49.40950559 9 52 C7.515 51.505 7.515 51.505 6 51 C5.97494385 50.36908447 5.9498877 49.73816895 5.92407227 49.08813477 C5.80845863 46.24603175 5.68557684 43.40428917 5.5625 40.5625 C5.52318359 39.56927734 5.48386719 38.57605469 5.44335938 37.55273438 C5.40146484 36.60849609 5.35957031 35.66425781 5.31640625 34.69140625 C5.27974854 33.81685791 5.24309082 32.94230957 5.20532227 32.04125977 C5.21818934 30.0072598 5.21818934 30.0072598 4 29 C3.76712992 27.31816052 3.58735834 25.6287584 3.4375 23.9375 C3.31181641 22.55884766 3.31181641 22.55884766 3.18359375 21.15234375 C3.12300781 20.44207031 3.06242187 19.73179688 3 19 C0.03793115 18.08468259 -0.81665313 17.93622718 -3.875 19 Z M17 23 C17 23.66 17 24.32 17 25 C19.31 25 21.62 25 24 25 C24 32.92 24 40.84 24 49 C21.69 49 19.38 49 17 49 C17 49.66 17 50.32 17 51 C20.41642759 51.25015873 20.41642759 51.25015873 24 51 C26.98175151 46.52737273 26.32927462 42.260522 26.3125 37 C26.32861328 35.989375 26.34472656 34.97875 26.36132812 33.9375 C26.36197266 32.968125 26.36261719 31.99875 26.36328125 31 C26.36626221 30.113125 26.36924316 29.22625 26.37231445 28.3125 C26.17198173 25.94682674 26.17198173 25.94682674 24.67651367 24.19921875 C22.17467468 22.40964061 19.98428169 22.80104789 17 23 Z M17 28 C17 33.94 17 39.88 17 46 C18.32 46 19.64 46 21 46 C21 40.06 21 34.12 21 28 C19.68 28 18.36 28 17 28 Z " fill="#000000" transform="translate(31,0)"/>
<path d="M0 0 C0.99 0 1.98 0 3 0 C3 8.91 3 17.82 3 27 C1.68 26.67 0.36 26.34 -1 26 C-1.02886751 21.85418113 -1.04675327 17.70838784 -1.0625 13.5625 C-1.07087891 12.37849609 -1.07925781 11.19449219 -1.08789062 9.97460938 C-1.09111328 8.84990234 -1.09433594 7.72519531 -1.09765625 6.56640625 C-1.10289307 5.52427979 -1.10812988 4.48215332 -1.11352539 3.40844727 C-1 1 -1 1 0 0 Z " fill="#000000" transform="translate(27,25)"/>
<path d="M0 0 C0.99 0 1.98 0 3 0 C3 8.91 3 17.82 3 27 C1.68 26.67 0.36 26.34 -1 26 C-1.02886751 21.85418113 -1.04675327 17.70838784 -1.0625 13.5625 C-1.07087891 12.37849609 -1.07925781 11.19449219 -1.08789062 9.97460938 C-1.09111328 8.84990234 -1.09433594 7.72519531 -1.09765625 6.56640625 C-1.10289307 5.52427979 -1.10812988 4.48215332 -1.11352539 3.40844727 C-1 1 -1 1 0 0 Z " fill="#000000" transform="translate(17,25)"/>
<path d="M0 0 C0.99 0 1.98 0 3 0 C3 0.99 3 1.98 3 3 C2.01 3 1.02 3 0 3 C0 2.01 0 1.02 0 0 Z " fill="#000000" transform="translate(34,56)"/>
</svg>
