<?xml version="1.0" encoding="UTF-8"?>
<svg version="1.1" xmlns="http://www.w3.org/2000/svg" width="64" height="64">
    <path
        d="M0 0 C0.99 0.33 1.98 0.66 3 1 C1.07289294 12.52164009 1.07289294 12.52164009 -1 18 C2.3 18 5.6 18 9 18 C8.44914707 21.76964282 7.5002751 24.1289947 5.234375 27.1796875 C4.67363281 27.94410156 4.11289062 28.70851563 3.53515625 29.49609375 C2.65150391 30.67365234 2.65150391 30.67365234 1.75 31.875 C0.59887725 33.434836 -0.55216552 34.99473103 -1.703125 36.5546875 C-2.25806641 37.30073242 -2.81300781 38.04677734 -3.38476562 38.81542969 C-5.62850875 41.85004478 -7.81653255 44.92180341 -10 48 C-10.99 47.67 -11.98 47.34 -13 47 C-11.07289294 35.47835991 -11.07289294 35.47835991 -9 30 C-12.3 30 -15.6 30 -19 30 C-18.44914707 26.23035718 -17.5002751 23.8710053 -15.234375 20.8203125 C-14.67363281 20.05589844 -14.11289062 19.29148437 -13.53515625 18.50390625 C-12.94605469 17.71886719 -12.35695313 16.93382813 -11.75 16.125 C-10.59887725 14.565164 -9.44783448 13.00526897 -8.296875 11.4453125 C-7.74193359 10.69926758 -7.18699219 9.95322266 -6.61523438 9.18457031 C-4.37149125 6.14995522 -2.18346745 3.07819659 0 0 Z M-4 11 C-5.67243423 13.28765111 -7.33806927 15.57973892 -9 17.875 C-9.47695313 18.52597656 -9.95390625 19.17695313 -10.4453125 19.84765625 C-13.08088153 23.09380981 -13.08088153 23.09380981 -14 27 C-11.03 27 -8.06 27 -5 27 C-5.350625 27.9075 -5.70125 28.815 -6.0625 29.75 C-7.00170571 33.00591313 -6.95514676 33.92749994 -6 37 C-4.32756577 34.71234889 -2.66193073 32.42026108 -1 30.125 C-0.52304687 29.47402344 -0.04609375 28.82304688 0.4453125 28.15234375 C3.08088153 24.90619019 3.08088153 24.90619019 4 21 C1.03 21 -1.94 21 -5 21 C-4.649375 20.0925 -4.29875 19.185 -3.9375 18.25 C-2.99829429 14.99408687 -3.04485324 14.07250006 -4 11 Z "
        fill="gray" transform="translate(37,8)" />
    <path
        d="M0 0 C0.66 0.33 1.32 0.66 2 1 C2.45166859 8.11378021 1.46872398 12.78139943 -2 19 C-2.5259375 19.94552734 -2.5259375 19.94552734 -3.0625 20.91015625 C-7.38588716 27.74050749 -14.28187913 31.93869699 -22 34 C-32.88917212 34.97043399 -41.82767486 34.33065502 -50.5625 27.25 C-51.366875 26.5075 -52.17125 25.765 -53 25 C-53.33 26.65 -53.66 28.3 -54 30 C-54.99 30 -55.98 30 -57 30 C-57 26.37 -57 22.74 -57 19 C-53.37 19 -49.74 19 -46 19 C-46 19.99 -46 20.98 -46 22 C-47.32 22.33 -48.64 22.66 -50 23 C-48.39805929 23.98280415 -46.79336258 24.96111717 -45.1875 25.9375 C-43.84751953 26.75541016 -43.84751953 26.75541016 -42.48046875 27.58984375 C-36.09473379 31.22015921 -28.09759861 31.06438295 -21.09765625 29.24609375 C-12.07872576 25.78770687 -7.03163352 20.79629132 -3 12 C-2.23911036 9.04684417 -1.71842283 6.17457501 -1.32421875 3.15234375 C-1 1 -1 1 0 0 Z "
        fill="gray" transform="translate(62,30)" />
    <path
        d="M0 0 C2.83376437 1.88315976 5.33833998 3.91357585 7.83984375 6.22265625 C8.16984375 4.57265625 8.49984375 2.92265625 8.83984375 1.22265625 C9.82984375 1.22265625 10.81984375 1.22265625 11.83984375 1.22265625 C11.83984375 4.85265625 11.83984375 8.48265625 11.83984375 12.22265625 C8.20984375 12.22265625 4.57984375 12.22265625 0.83984375 12.22265625 C0.83984375 11.23265625 0.83984375 10.24265625 0.83984375 9.22265625 C2.15984375 8.89265625 3.47984375 8.56265625 4.83984375 8.22265625 C3.23790304 7.2398521 1.63320633 6.26153908 0.02734375 5.28515625 C-0.86597656 4.73988281 -1.75929687 4.19460937 -2.6796875 3.6328125 C-9.06542246 0.00249704 -17.06255764 0.1582733 -24.0625 1.9765625 C-33.0849125 5.43628458 -38.12240313 10.42742966 -42.16015625 19.22265625 C-43.13012677 22.86809049 -43.74695677 26.47536444 -44.16015625 30.22265625 C-45.15015625 30.22265625 -46.14015625 30.22265625 -47.16015625 30.22265625 C-47.61182484 23.10887604 -46.62888023 18.44125682 -43.16015625 12.22265625 C-42.63421875 11.27712891 -42.63421875 11.27712891 -42.09765625 10.3125 C-33.64925853 -3.034795 -13.76868365 -7.37324902 0 0 Z "
        fill="gray" transform="translate(47.16015625,2.77734375)" />
</svg>