<?xml version="1.0" encoding="UTF-8"?>
<svg version="1.1" xmlns="http://www.w3.org/2000/svg" width="64" height="64">
<path d="M0 0 C2.88365249 2.74921647 4.31598072 5.67757419 6.0625 9.25 C8.61038853 11.13131569 8.61038853 11.13131569 11.0625 12.25 C10.85625 12.971875 10.65 13.69375 10.4375 14.4375 C9.99097038 17.78647215 10.74635585 19.17899699 12.0625 22.25 C12.4438074 24.57597511 12.78710254 26.90912158 13.0625 29.25 C12.42441406 29.65992188 11.78632812 30.06984375 11.12890625 30.4921875 C10.30261719 31.03101563 9.47632813 31.56984375 8.625 32.125 C7.80128906 32.65867188 6.97757813 33.19234375 6.12890625 33.7421875 C3.95211129 35.08834306 3.95211129 35.08834306 3.0625 37.25 C2.3464996 43.09733664 3.87821742 46.28307625 6.96875 51.0390625 C8.24525204 53.6194202 8.26196134 55.40767594 8.0625 58.25 C7.0725 58.25 6.0825 58.25 5.0625 58.25 C4.629375 57.033125 4.19625 55.81625 3.75 54.5625 C2.80374935 51.98509346 1.95092056 50.0888297 0.375 47.8125 C-1.59101379 43.97409212 -1.73532027 40.47024554 -0.9375 36.25 C1.80219566 32.101318 5.0876237 29.20276525 9.0625 26.25 C8.75054687 25.73050781 8.43859375 25.21101563 8.1171875 24.67578125 C4.89783448 18.90866209 4.89783448 18.90866209 5.8125 15.25 C6.43125 14.26 6.43125 14.26 7.0625 13.25 C6.44890625 12.99992187 5.8353125 12.74984375 5.203125 12.4921875 C2.69861979 11.03884323 2.10248362 9.926087 0.8125 7.375 C-1.89691654 2.84003147 -4.80389827 0.58639542 -9.9375 -0.75 C-15.07173726 -1.25370314 -18.8140033 -0.25569035 -22.875 2.9375 C-26.31457768 6.29727309 -27.90177824 9.28509395 -27.9609375 14.1953125 C-27.54416058 19.96438249 -25.47880932 23.9255639 -21.15234375 27.8828125 C-19.9260731 28.92526845 -18.68468205 29.95031751 -17.42578125 30.953125 C-15.9375 32.25 -15.9375 32.25 -14.9375 34.25 C-14.6203295 40.77268024 -16.6593206 44.92990607 -20.4375 50.09765625 C-22.46549262 53.00761442 -23.6725734 55.9471361 -24.9375 59.25 C-25.5975 59.25 -26.2575 59.25 -26.9375 59.25 C-26.74658505 53.99983897 -26.02356837 50.98437032 -22.9375 46.6875 C-20.21876939 42.86284507 -18.65741365 40.10483004 -18.9375 35.25 C-20.99776719 32.60418376 -20.99776719 32.60418376 -23.9375 30.25 C-28.31994783 25.7285965 -31.87989127 21.73525142 -31.96484375 15.12109375 C-31.52108976 8.39651401 -29.43917812 3.82116918 -24.6875 -1.0625 C-16.69806823 -5.96510586 -7.45249244 -5.974572 0 0 Z " fill="#000000" transform="translate(34.9375,4.75)"/>
<path d="M0 0 C2 2.0625 2 2.0625 3 5 C2.6875 8.8125 2.6875 8.8125 2 12 C2.7425 11.505 3.485 11.01 4.25 10.5 C7 9 7 9 11 9 C11 9.99 11 10.98 11 12 C10.071875 12.45375 9.14375 12.9075 8.1875 13.375 C4.96078611 14.9421633 4.96078611 14.9421633 2 17 C1.01 17 0.02 17 -1 17 C-1.77416977 24.61266939 0.28632252 29.11901631 3.66015625 35.8984375 C5.43048405 39.9965141 5.57897001 42.61636994 5 47 C4.67 47.66 4.34 48.32 4 49 C2.515 48.505 2.515 48.505 1 48 C1.12375 46.948125 1.2475 45.89625 1.375 44.8125 C1.42170556 40.4299613 -0.0690509 37.39362741 -2 33.5 C-4.61276337 28.23154054 -5.68486658 24.82136591 -5 19 C-5.62648438 18.73445313 -6.25296875 18.46890625 -6.8984375 18.1953125 C-7.71570312 17.84210937 -8.53296875 17.48890625 -9.375 17.125 C-10.18710937 16.77695312 -10.99921875 16.42890625 -11.8359375 16.0703125 C-14 15 -14 15 -16 13 C-16.4375 9.5625 -16.4375 9.5625 -16 6 C-13.75 4.25 -13.75 4.25 -11 3 C-10.38125 2.443125 -9.7625 1.88625 -9.125 1.3125 C-5.9350259 -0.65777812 -3.65698529 -0.53192513 0 0 Z M-4 2 C-4.99 2.66 -5.98 3.32 -7 4 C-7 4.99 -7 5.98 -7 7 C-7.598125 6.773125 -8.19625 6.54625 -8.8125 6.3125 C-9.8953125 6.1578125 -9.8953125 6.1578125 -11 6 C-12.77190909 7.35444301 -12.77190909 7.35444301 -14 9 C-12.98059612 11.7801924 -12.30279713 12.82814217 -9.6875 14.3125 C-6.59102615 15.10462122 -4.96908961 15.20368498 -2 14 C-0.30920217 11.23323991 0.03791499 9.54344824 -0.1875 6.3125 C-0.85929411 3.65965381 -0.85929411 3.65965381 -4 2 Z " fill="#000000" transform="translate(27,8)"/>
<path d="M0 0 C0.99 0 1.98 0 3 0 C2.67 2.64 2.34 5.28 2 8 C2.66 8 3.32 8 4 8 C4.33 7.01 4.66 6.02 5 5 C5.99 5.33 6.98 5.66 8 6 C6.63016497 9.16115776 6.0109362 9.9927092 3 12 C0.26009592 11.96856707 -2.28417854 11.44521663 -5 11 C-4.731875 10.484375 -4.46375 9.96875 -4.1875 9.4375 C-2.67650593 6.33598585 -1.34427274 3.17737194 0 0 Z " fill="#000000" transform="translate(53,9)"/>
<path d="M0 0 C3.25511789 0.56122722 4.99840071 1.33120095 7 4 C7.6875 6.6875 7.6875 6.6875 8 9 C7.01 9 6.02 9 5 9 C3.95107762 7.36368108 2.95093297 5.69514137 2 4 C1.34 3.67 0.68 3.34 0 3 C0 2.01 0 1.02 0 0 Z " fill="#000000" transform="translate(51,22)"/>
</svg>
