<?xml version="1.0" encoding="UTF-8"?>
<svg version="1.1" xmlns="http://www.w3.org/2000/svg" width="64" height="64">
<path d="M0 0 C7.75 0.875 7.75 0.875 10 2 C10 2.99 10 3.98 10 5 C4.25 4.125 4.25 4.125 2 3 C1.67 4.32 1.34 5.64 1 7 C1.825 7.45375 2.65 7.9075 3.5 8.375 C4.325 8.91125 5.15 9.4475 6 10 C6 10.66 6 11.32 6 12 C8.64 12 11.28 12 14 12 C14.33 10.68 14.66 9.36 15 8 C14.01 7.67 13.02 7.34 12 7 C11.67 6.01 11.34 5.02 11 4 C12.258125 4.0825 13.51625 4.165 14.8125 4.25 C19.85822324 4.28188451 23.81138855 2.81625745 28.421875 0.875 C31.11503879 -0.03904347 33.17796642 -0.1624192 36 0 C37.35594275 2.63621905 38.68414683 5.28134368 40 7.9375 C40.3815625 8.67291016 40.763125 9.40832031 41.15625 10.16601562 C43.72403465 15.41621818 45.01559191 20.13986793 44 26 C42.7295036 28.04049422 41.40568804 30.05017465 40 32 C40.29805007 34.19747131 40.29805007 34.19747131 41 36 C40.34 36.66 39.68 37.32 39 38 C39.99 38 40.98 38 42 38 C42.20625 38.598125 42.4125 39.19625 42.625 39.8125 C44.50926082 42.81018767 46.81132084 43.61361776 50 45 C49.83203125 46.85546875 49.83203125 46.85546875 49 49 C46.63671875 50.30078125 46.63671875 50.30078125 43.6875 51.3125 C42.72199219 51.65925781 41.75648437 52.00601563 40.76171875 52.36328125 C37.99028916 53.00223885 36.62899967 52.96792149 34 52 C34.5259375 50.7315625 34.5259375 50.7315625 35.0625 49.4375 C36.38656576 44.58259223 35.49875685 40.91190127 34.25 36.125 C33.16032054 33.72674874 33.16032054 33.72674874 30.375 33.1875 C29.59125 33.125625 28.8075 33.06375 28 33 C28 32.01 28 31.02 28 30 C29.04800781 29.83564453 29.04800781 29.83564453 30.1171875 29.66796875 C31.02726562 29.50941406 31.93734375 29.35085937 32.875 29.1875 C33.77992187 29.03667969 34.68484375 28.88585937 35.6171875 28.73046875 C38.34412478 28.16948699 38.34412478 28.16948699 40 25 C40.39687998 19.84056031 39.58019115 15.83933541 38 11 C35.31131459 11.67217135 33.47472054 12.22285132 31.98828125 14.65625 C31.68277344 15.2853125 31.37726562 15.914375 31.0625 16.5625 C30.11328125 18.4453125 30.11328125 18.4453125 29 20 C25.75 20.9375 25.75 20.9375 23 21 C23.66 22.093125 24.32 23.18625 25 24.3125 C26.58464929 26.93707538 27 27.8256378 27 31 C25.140625 30.8359375 25.140625 30.8359375 23 30 C21.734375 27.6015625 21.734375 27.6015625 20.75 24.625 C20.41484375 23.64789063 20.0796875 22.67078125 19.734375 21.6640625 C19 19 19 19 19 16 C18.34 16 17.68 16 17 16 C16.91363281 16.65226562 16.82726562 17.30453125 16.73828125 17.9765625 C15.75119898 24.11639533 14.70425821 27.81843714 10 32 C8.80375 32.28875 7.6075 32.5775 6.375 32.875 C3.01292892 33.61778274 3.01292892 33.61778274 1.8515625 35.6796875 C0.04237819 40.07816311 -0.2710548 43.33946573 1 48 C1.185625 48.78375 1.37125 49.5675 1.5625 50.375 C1.706875 50.91125 1.85125 51.4475 2 52 C-0.86578759 53.16161779 -2.01630163 52.9946154 -5.015625 52.00390625 C-6.61664063 51.29041016 -6.61664063 51.29041016 -8.25 50.5625 C-9.32765625 50.08941406 -10.4053125 49.61632813 -11.515625 49.12890625 C-12.33546875 48.75636719 -13.1553125 48.38382813 -14 48 C-13.8125 46.125 -13.8125 46.125 -13 44 C-12.20722656 43.69707031 -11.41445312 43.39414062 -10.59765625 43.08203125 C-7.80800674 42.21569927 -7.80800674 42.21569927 -6.49609375 39.57421875 C-5.44230162 36.70059373 -4.5072803 34.02162615 -4 31 C-5.6908334 28.30302869 -5.6908334 28.30302869 -8 26 C-9.29604535 19.23088509 -7.06533999 13.84552859 -4 7.9375 C-3.6184375 7.16728516 -3.236875 6.39707031 -2.84375 5.60351562 C-1.91167778 3.72772028 -0.95805972 1.86265628 0 0 Z M25.875 5.5 C24.77929688 5.9640625 23.68359375 6.428125 22.5546875 6.90625 C21.71164063 7.2671875 20.86859375 7.628125 20 8 C20.33 9.65 20.66 11.3 21 13 C22.43861294 12.91253716 23.87597508 12.80434652 25.3125 12.6875 C26.11300781 12.62949219 26.91351563 12.57148438 27.73828125 12.51171875 C30.41960113 11.90506434 31.21143634 11.02904281 33 9 C33.99 8.34 34.98 7.68 36 7 C35.34 5.68 34.68 4.36 34 3 C30.97474767 3 28.64420848 4.32161341 25.875 5.5 Z M-2 11 C-1.67 11.99 -1.34 12.98 -1 14 C1.01508358 14.73323796 1.01508358 14.73323796 3 15 C3 14.01 3 13.02 3 12 C1.35 11.67 -0.3 11.34 -2 11 Z M6 16 C4.29297265 16.06996014 2.58331997 16.08440154 0.875 16.0625 C-0.03507813 16.05347656 -0.94515625 16.04445313 -1.8828125 16.03515625 C-2.58148438 16.02355469 -3.28015625 16.01195313 -4 16 C-5.56935594 19.13871188 -5.35201103 21.53855822 -5 25 C-2.40783917 28.69186542 -0.95850936 29.82883761 3.5 30.625 C8.0261382 29.81676104 9.33345252 28.73316647 12 25 C13.00979524 22.04094827 13.72935065 19.11891157 14 16 C12.94775333 14.72443182 12.94775333 14.72443182 10.5625 14.875 C8.01021378 14.82693324 8.01021378 14.82693324 6 16 Z M23 15 C22.67 15.99 22.34 16.98 22 18 C24.47266765 17.65555119 24.47266765 17.65555119 27 17 C27.33 16.34 27.66 15.68 28 15 C26.35 15 24.7 15 23 15 Z M-5 43 C-5 43.66 -5 44.32 -5 45 C-6.98 45.99 -6.98 45.99 -9 47 C-6.525 47.495 -6.525 47.495 -4 48 C-4 46.35 -4 44.7 -4 43 C-4.33 43 -4.66 43 -5 43 Z M40 43 C40 44.65 40 46.3 40 48 C41.65 47.67 43.3 47.34 45 47 C44.360625 46.71125 43.72125 46.4225 43.0625 46.125 C41 45 41 45 40 43 Z " fill="#000000" transform="translate(14,10)"/>
<path d="M0 0 C1.3303125 0.00773437 1.3303125 0.00773437 2.6875 0.015625 C3.574375 0.01046875 4.46125 0.0053125 5.375 0 C7.6875 0.265625 7.6875 0.265625 9.6875 2.265625 C10.125 5.078125 10.125 5.078125 9.6875 8.265625 C7.5 11.203125 7.5 11.203125 4.6875 13.265625 C1.38286916 13.34622575 0.02950679 12.51519752 -2.625 10.578125 C-4.79822438 7.6000027 -4.78336916 5.87562187 -4.3125 2.265625 C-2.3125 0.265625 -2.3125 0.265625 0 0 Z M-1.3125 3.265625 C-1.11778889 5.21561629 -1.11778889 5.21561629 -0.3125 7.265625 C1.6712767 8.54999234 1.6712767 8.54999234 3.6875 9.265625 C5.24999809 7.95361327 5.24999809 7.95361327 6.6875 6.265625 C6.6875 5.275625 6.6875 4.285625 6.6875 3.265625 C4.0475 3.265625 1.4075 3.265625 -1.3125 3.265625 Z " fill="#000000" transform="translate(29.3125,0.734375)"/>
<path d="M0 0 C0.99 0.33 1.98 0.66 3 1 C3 4.33333333 3 7.66666667 3 11 C1.68 10.67 0.36 10.34 -1 10 C-1.02689216 8.52093108 -1.04634621 7.04172517 -1.0625 5.5625 C-1.07410156 4.73878906 -1.08570313 3.91507813 -1.09765625 3.06640625 C-1 1 -1 1 0 0 Z " fill="#000000" transform="translate(60,26)"/>
<path d="M0 0 C0.99 0.33 1.98 0.66 3 1 C3 3.97 3 6.94 3 10 C1.68 10.33 0.36 10.66 -1 11 C-1 7.82956733 -0.75957859 5.94336703 0 3 C0 2.01 0 1.02 0 0 Z " fill="#000000" transform="translate(2,26)"/>
</svg>
