<?xml version="1.0" encoding="UTF-8"?>
<svg version="1.1" xmlns="http://www.w3.org/2000/svg" width="64" height="64">
<path d="M0 0 C1.88059033 1.88059033 1.12361218 4.49890038 1.1328125 6.9921875 C1 9 1 9 0 12 C-0.66 12.33 -1.32 12.66 -2 13 C-2.1134375 13.71800781 -2.226875 14.43601562 -2.34375 15.17578125 C-3.20140578 18.86676414 -5.17362095 21.29593346 -7.5 24.1875 C-7.95213867 24.75992432 -8.40427734 25.33234863 -8.87011719 25.92211914 C-13.0370026 31.1467636 -17.39233897 36.15805112 -22 41 C-22.51578613 41.54301758 -23.03157227 42.08603516 -23.56298828 42.64550781 C-43.46052766 63.45662176 -43.46052766 63.45662176 -51.1328125 64.375 C-55.49737245 63.80415837 -56.92807718 62.07192282 -60 59 C-60 58.34 -60 57.68 -60 57 C-59.0409375 57.2784375 -59.0409375 57.2784375 -58.0625 57.5625 C-57.381875 57.706875 -56.70125 57.85125 -56 58 C-55.505 57.505 -55.505 57.505 -55 57 C-53.33382885 56.95936168 -51.66611905 56.957279 -50 57 C-52.22877725 54.35426499 -52.22877725 54.35426499 -55 52 C-57.27523089 52.04497842 -57.27523089 52.04497842 -59 53 C-59 53.99 -59 54.98 -59 56 C-59.99 56 -60.98 56 -62 56 C-62.91135377 52.5295775 -63.33798761 50.691688 -61.734375 47.40991211 C-56.26904981 40.33148221 -50.35661294 33.83876728 -44 27.5625 C-43.49821228 27.06342133 -42.99642456 26.56434265 -42.47943115 26.05014038 C-36.32117771 19.94209208 -30.06872321 14.0330566 -23.125 8.8125 C-22.526875 8.36269775 -21.92875 7.91289551 -21.3125 7.44946289 C-14.82676058 2.82419273 -8.10657474 -0.84443487 0 0 Z M-13.0625 6.25 C-14.08472656 6.85328125 -15.10695313 7.4565625 -16.16015625 8.078125 C-19.3766942 10.12430018 -19.3766942 10.12430018 -23 14 C-17.72 15.32 -12.44 16.64 -7 18 C-6.195625 16.618125 -5.39125 15.23625 -4.5625 13.8125 C-3.88380859 12.64654297 -3.88380859 12.64654297 -3.19140625 11.45703125 C-1.96739532 8.93275952 -1.3408222 6.77938105 -1 4 C-2.02525856 2.76922636 -2.02525856 2.76922636 -4.18359375 2.734375 C-7.80066787 3.07551375 -9.95838514 4.38203707 -13.0625 6.25 Z M-43 32 C-42.07380859 31.96519531 -42.07380859 31.96519531 -41.12890625 31.9296875 C-33.99675014 31.77770853 -27.7574102 32.74752993 -21 35 C-19.36932995 33.25500253 -17.74548753 31.50441212 -16.125 29.75 C-15.66480469 29.25886719 -15.20460938 28.76773437 -14.73046875 28.26171875 C-12.33815688 25.66137976 -10.35854595 23.27924885 -9 20 C-24.55501742 13.68781902 -33.7467134 18.1200701 -43 32 Z M-48 36 C-49.49743888 37.98567734 -49.49743888 37.98567734 -50 40 C-49.67 40.33 -49.34 40.66 -49 41 C-48.95919217 42.99958364 -48.95745644 45.00045254 -49 47 C-46.03 47.33 -43.06 47.66 -40 48 C-40 49.65 -40 51.3 -40 53 C-33.67467725 48.60502098 -28.32751543 43.54949524 -23 38 C-26.6552249 34.3447751 -31.51429408 33.86931604 -36.5 33.75 C-40.68734214 33.8645256 -44.11000823 34.41224826 -48 36 Z M-54.625 44.375 C-56.21531408 45.89968321 -56.21531408 45.89968321 -56 48 C-55.2575 48.433125 -54.515 48.86625 -53.75 49.3125 C-50.70913791 51.17848355 -49.11418638 53.15678384 -47 56 C-46.34 56.66 -45.68 57.32 -45 58 C-44.34 55.69 -43.68 53.38 -43 51 C-45.64 50.01 -48.28 49.02 -51 48 C-51 46.35 -51 44.7 -51 43 C-53.10031679 42.78468592 -53.10031679 42.78468592 -54.625 44.375 Z M-60 51 C-59 53 -59 53 -59 53 Z M-52 59 C-52.33 59.66 -52.66 60.32 -53 61 C-51.68 61 -50.36 61 -49 61 C-49 60.34 -49 59.68 -49 59 C-49.99 59 -50.98 59 -52 59 Z " fill="#000000" transform="translate(63,0)"/>
<path d="M0 0 C0.99 0.33 1.98 0.66 3 1 C3.90483637 6.36489595 4.12303662 11.50317457 4.0625 16.9375 C4.05798828 17.71673828 4.05347656 18.49597656 4.04882812 19.29882812 C4.03716908 21.19925268 4.01923877 23.09963706 4 25 C3.01 25 2.02 25 1 25 C-0.27861615 22.44276771 -0.11336609 20.63262898 -0.09765625 17.7734375 C-0.09443359 16.7421875 -0.09121094 15.7109375 -0.08789062 14.6484375 C-0.07951172 13.56820313 -0.07113281 12.48796875 -0.0625 11.375 C-0.05798828 10.28703125 -0.05347656 9.1990625 -0.04882812 8.078125 C-0.03701776 5.38536211 -0.02054778 2.69270812 0 0 Z " fill="#000000" transform="translate(4,9)"/>
<path d="M0 0 C0.66 0 1.32 0 2 0 C4.24233129 6.85889571 4.24233129 6.85889571 3 11 C3.165 11.825 3.33 12.65 3.5 13.5 C4.03536077 16.17680383 3.64710513 17.41157949 3 20 C3.38567131 22.68149993 3.38567131 22.68149993 4 25 C3.01 25 2.02 25 1 25 C-0.27861615 22.44276771 -0.11336609 20.63262898 -0.09765625 17.7734375 C-0.09443359 16.7421875 -0.09121094 15.7109375 -0.08789062 14.6484375 C-0.07951172 13.56820313 -0.07113281 12.48796875 -0.0625 11.375 C-0.05798828 10.28703125 -0.05347656 9.1990625 -0.04882812 8.078125 C-0.03701776 5.38536211 -0.02054778 2.69270812 0 0 Z " fill="#000000" transform="translate(0,18)"/>
</svg>
