<?xml version="1.0" encoding="UTF-8"?>
<svg version="1.1" xmlns="http://www.w3.org/2000/svg" width="64" height="64">
<path d="M0 0 C15.18 0 30.36 0 46 0 C46 4.95 46 9.9 46 15 C45.34 15 44.68 15 44 15 C44 10.71 44 6.42 44 2 C30.14 2 16.28 2 2 2 C2 4.97 2 7.94 2 11 C4.0728125 10.505 4.0728125 10.505 6.1875 10 C9.71224597 9.15826962 12.24868977 9 16 9 C16.66 12.3 17.32 15.6 18 19 C14.00999834 20.42500059 10.19469571 21.40075776 6 22 C9.96 22.33 13.92 22.66 18 23 C18 24.32 18 25.64 18 27 C19.60875 27.185625 19.60875 27.185625 21.25 27.375 C24.37863615 27.89643936 26.33480424 28.40088254 29 30 C29 30.66 29 31.32 29 32 C33.95 32.66 38.9 33.32 44 34 C44 28.06 44 22.12 44 16 C44.66 16 45.32 16 46 16 C46 22.93 46 29.86 46 37 C42.37 37 38.74 37 35 37 C34.72285156 38.78148437 34.44570313 40.56296875 34.16015625 42.3984375 C33.79444504 44.72398573 33.42855013 47.04950509 33.0625 49.375 C32.78889648 51.1384375 32.78889648 51.1384375 32.50976562 52.9375 C32.33251953 54.05898438 32.15527344 55.18046875 31.97265625 56.3359375 C31.81031494 57.37282715 31.64797363 58.4097168 31.48071289 59.47802734 C31 62 31 62 30 64 C21.09 64 12.18 64 3 64 C2.34 58.72 1.68 53.44 1 48 C-2.63 48 -6.26 48 -10 48 C-9.67 47.01 -9.34 46.02 -9 45 C-4.545 44.505 -4.545 44.505 0 44 C-0.12568359 42.93458984 -0.12568359 42.93458984 -0.25390625 41.84765625 C-0.35574219 40.92855469 -0.45757813 40.00945313 -0.5625 39.0625 C-0.66691406 38.14597656 -0.77132813 37.22945312 -0.87890625 36.28515625 C-0.91886719 35.53105469 -0.95882813 34.77695312 -1 34 C-0.67 33.67 -0.34 33.34 0 33 C-4.29 32.67 -8.58 32.34 -13 32 C-13 31.01 -13 30.02 -13 29 C-8.05 29 -3.1 29 2 29 C2 29.99 2 30.98 2 32 C2.845625 31.360625 3.69125 30.72125 4.5625 30.0625 C7.90728565 27.8033727 10.97396992 27.32208241 15 27 C15 26.34 15 25.68 15 25 C5.43 25 -4.14 25 -14 25 C-14 31.6 -14 38.2 -14 45 C-13.01 45 -12.02 45 -11 45 C-11 45.99 -11 46.98 -11 48 C-12.98 48 -14.96 48 -17 48 C-17.33 37.11 -17.66 26.22 -18 15 C-5 12 -5 12 0 12 C0 8.04 0 4.08 0 0 Z M12 12 C11.34 13.98 10.68 15.96 10 18 C11.32 17.67 12.64 17.34 14 17 C14 15.35 14 13.7 14 12 C13.34 12 12.68 12 12 12 Z M6 13 C5.34 14.98 4.68 16.96 4 19 C4.99 18.67 5.98 18.34 7 18 C7.33 16.35 7.66 14.7 8 13 C7.34 13 6.68 13 6 13 Z M-2 16 C-2.72382467 18.05925139 -2.72382467 18.05925139 -3 20 C-1.68 19.67 -0.36 19.34 1 19 C1.33 17.35 1.66 15.7 2 14 C0.53774984 13.90754997 0.53774984 13.90754997 -2 16 Z M-8 16 C-8.33 17.65 -8.66 19.3 -9 21 C-8.01 21 -7.02 21 -6 21 C-5.67 19.35 -5.34 17.7 -5 16 C-5.99 16 -6.98 16 -8 16 Z M-15 17 C-14.67 18.65 -14.34 20.3 -14 22 C-13.34 21.67 -12.68 21.34 -12 21 C-11.34786708 18.97536745 -11.34786708 18.97536745 -11 17 C-12.32 17 -13.64 17 -15 17 Z M7 32 C6.67 32.66 6.34 33.32 6 34 C3.9375 35.125 3.9375 35.125 2 36 C2 36.99 2 37.98 2 39 C11.57 39 21.14 39 31 39 C31 37.68 31 36.36 31 35 C29.68 35 28.36 35 27 35 C26.7525 34.360625 26.505 33.72125 26.25 33.0625 C25.21580023 30.85899393 25.21580023 30.85899393 23.19921875 30.3828125 C17.70860635 29.42707535 11.96954517 29.20463084 7 32 Z M3 42 C3.99 48.6 4.98 55.2 6 62 C6.66 62 7.32 62 8 62 C7.34 55.4 6.68 48.8 6 42 C5.01 42 4.02 42 3 42 Z M9 42 C9.11358476 44.95918198 9.24033086 47.91676783 9.375 50.875 C9.4059375 51.71675781 9.436875 52.55851562 9.46875 53.42578125 C9.50742187 54.23144531 9.54609375 55.03710938 9.5859375 55.8671875 C9.6173584 56.61081543 9.6487793 57.35444336 9.68115234 58.12060547 C9.85419551 60.24010974 9.85419551 60.24010974 12 62 C12 55.4 12 48.8 12 42 C11.01 42 10.02 42 9 42 Z M15 42 C15 48.6 15 55.2 15 62 C15.99 62 16.98 62 18 62 C19.03026944 55.30324864 19.10152799 48.7685324 19 42 C17.68 42 16.36 42 15 42 Z M22 42 C21.11978631 48.71162938 20.88618045 55.23405981 21 62 C21.66 62 22.32 62 23 62 C23.66 55.4 24.32 48.8 25 42 C24.01 42 23.02 42 22 42 Z M28 42 C26.88176185 44.23647631 26.80603939 45.64891529 26.68359375 48.1328125 C26.64169922 48.93847656 26.59980469 49.74414062 26.55664062 50.57421875 C26.51732422 51.41597656 26.47800781 52.25773437 26.4375 53.125 C26.39431641 53.97449219 26.35113281 54.82398438 26.30664062 55.69921875 C26.20045764 57.79928223 26.09971503 59.89961948 26 62 C26.66 61.67 27.32 61.34 28 61 C28.6983657 58.16505259 28.6983657 58.16505259 29.125 54.8125 C29.29257812 53.68457031 29.46015625 52.55664062 29.6328125 51.39453125 C29.97525114 48.22879529 30.06757134 45.18067964 30 42 C29.34 42 28.68 42 28 42 Z " fill="#000000" transform="translate(18,0)"/>
<path d="M0 0 C1.62974564 0.76074843 3.25366648 1.53398433 4.875 2.3125 C5.77992187 2.74175781 6.68484375 3.17101562 7.6171875 3.61328125 C10 5 10 5 12 8 C10.59138651 9.01131225 9.17274547 10.00866767 7.75 11 C6.56664062 11.8353125 6.56664062 11.8353125 5.359375 12.6875 C3 14 3 14 -1 14 C-1.02685938 11.85423363 -1.04633088 9.70837355 -1.0625 7.5625 C-1.07410156 6.36753906 -1.08570313 5.17257813 -1.09765625 3.94140625 C-1 1 -1 1 0 0 Z M2 5 C2 6.65 2 8.3 2 10 C3.65 9.34 5.3 8.68 7 8 C5.62514468 6.45833358 5.62514468 6.45833358 4 5 C3.34 5 2.68 5 2 5 Z " fill="#000000" transform="translate(38,11)"/>
<path d="M0 0 C3.63 0 7.26 0 11 0 C11 0.99 11 1.98 11 3 C7.37 3 3.74 3 0 3 C0 2.01 0 1.02 0 0 Z " fill="#000000" transform="translate(5,34)"/>
</svg>
