<?xml version="1.0" encoding="UTF-8"?>
<svg version="1.1" xmlns="http://www.w3.org/2000/svg" width="64" height="64">
<path d="M0 0 C1.92056889 1.0980736 3.59932761 2.34154027 5.3359375 3.7109375 C7.09222136 5.14561039 7.09222136 5.14561039 9.6875 6.4375 C12.73520451 8.4967598 14.20916913 10.81630068 16 14 C16 14.99 16 15.98 16 17 C16.56847656 17.00257812 17.13695312 17.00515625 17.72265625 17.0078125 C23.46824985 17.29557178 26.50406516 18.58600583 30.6875 22.52734375 C33.7953578 26.0144342 33.33187922 29.76942781 33.2734375 34.234375 C32.88368259 38.17646754 31.75497515 40.17438446 29 43 C23.12487009 46.19699436 18.07620444 46.45399713 11.46484375 46.43359375 C10.46796036 46.4388356 9.47107697 46.44407745 8.44398499 46.44947815 C6.34539722 46.45587675 4.24677349 46.4545895 2.14819336 46.44604492 C-1.05615075 46.4375169 -4.25872146 46.46635648 -7.46289062 46.49804688 C-9.50781197 46.49965868 -11.55273645 46.49908175 -13.59765625 46.49609375 C-14.550923 46.50732773 -15.50418976 46.51856171 -16.48634338 46.53013611 C-22.2856358 46.4695476 -25.57224213 45.84342468 -30 42 C-31.18297571 39.63404857 -31.10136311 38.19223681 -31.0625 35.5625 C-31.05347656 34.78003906 -31.04445313 33.99757812 -31.03515625 33.19140625 C-31.02355469 32.46824219 -31.01195313 31.74507812 -31 31 C-30.96044185 27.84011914 -30.96044185 27.84011914 -31.3125 24.0625 C-31.3203125 21.9140625 -31.3203125 21.9140625 -31 20 C-28.6875 17.9375 -28.6875 17.9375 -26 16 C-24.96157435 13.68351201 -23.9578025 11.35096976 -23 9 C-20 7 -20 7 -16.5625 6.6875 C-12.20529519 5.84663591 -11.47297048 4.53281497 -9 1 C-5.59630052 -0.13456649 -3.57368631 -0.41234842 0 0 Z M-6.6875 4.1875 C-9.1355968 5.78086589 -9.1355968 5.78086589 -9.8125 8.1875 C-9.874375 8.785625 -9.93625 9.38375 -10 10 C-9.0925 9.38125 -8.185 8.7625 -7.25 8.125 C-4.85051183 6.55610389 -2.59038388 5.19556179 0 4 C-2.85815253 2.83556749 -3.80070797 2.91194073 -6.6875 4.1875 Z M-8 13 C-9.4783226 15.95664519 -9.06032783 18.74229737 -9 22 C-9.886875 21.773125 -10.77375 21.54625 -11.6875 21.3125 C-14.97976578 20.74352425 -14.97976578 20.74352425 -17.75 22.125 C-20.17473249 23.83875276 -20.17473249 23.83875276 -21 26.5625 C-22 29 -22 29 -24.5625 30.1875 C-25.366875 30.455625 -26.17125 30.72375 -27 31 C-28.39935013 33.79870027 -28.25265405 35.90498792 -28 39 C-26.14657225 41.55949546 -25.06243607 41.97918798 -22 43 C-20.61046543 43.10508124 -19.2166198 43.15836805 -17.82324219 43.17700195 C-16.98517029 43.18983719 -16.14709839 43.20267242 -15.28363037 43.21589661 C-14.3805011 43.22328354 -13.47737183 43.23067047 -12.546875 43.23828125 C-11.14649994 43.25038887 -11.14649994 43.25038887 -9.71783447 43.26274109 C-7.74078218 43.27657233 -5.76370611 43.28729878 -3.78662109 43.29516602 C-0.77525073 43.31235586 2.23501501 43.35624787 5.24609375 43.40039062 C7.16926278 43.41052006 9.09244112 43.41903538 11.015625 43.42578125 C11.91065735 43.44328934 12.8056897 43.46079742 13.72784424 43.47883606 C19.66750436 43.45840903 23.14977215 42.49246394 28 39 C30.48133339 35.27799991 30.52296148 32.31021482 30 28 C28.53678283 24.12677809 27.34960069 23.19129095 23.6875 21.1875 C20.17801411 20.05732658 17.64824127 19.73305552 14 20 C13.79375 18.948125 13.5875 17.89625 13.375 16.8125 C12.08920844 12.41937882 9.93282316 10.40339193 6 8 C-0.2809508 6.46104193 -3.66501646 8.55928515 -8 13 Z M-21.0625 11.625 C-22.10527499 14.26669665 -22.23462747 16.1844704 -22 19 C-23.2065625 19.3403125 -23.2065625 19.3403125 -24.4375 19.6875 C-25.283125 20.120625 -26.12875 20.55375 -27 21 C-27.89386164 23.54775306 -27.89386164 23.54775306 -28 26 C-27.34 26.33 -26.68 26.66 -26 27 C-25.5875 26.5875 -25.175 26.175 -24.75 25.75 C-24.1725 25.1725 -23.595 24.595 -23 24 C-22.4225 23.319375 -21.845 22.63875 -21.25 21.9375 C-19 20 -19 20 -15.375 19.1875 C-14.26125 18.795625 -13.1475 18.40375 -12 18 C-10.45913678 14.48599332 -10.45913678 14.48599332 -10 11 C-15.85706505 9.5882494 -15.85706505 9.5882494 -21.0625 11.625 Z " fill="#000000" transform="translate(31,9)"/>
</svg>
