<?xml version="1.0" encoding="UTF-8"?>
<svg version="1.1" xmlns="http://www.w3.org/2000/svg" width="64" height="64">
<path d="M0 0 C3.93016813 2.67630244 7.1073825 6.18038635 10.4375 9.5625 C11.37271484 10.45775391 12.30792969 11.35300781 13.27148438 12.27539062 C14.14998047 13.15517578 15.02847656 14.03496094 15.93359375 14.94140625 C16.73853271 15.74263916 17.54347168 16.54387207 18.37280273 17.36938477 C20 20 20 20 19.92919922 23.60229492 C19.04849195 26.82268458 18.55399605 28.18190186 16.19921875 30.421875 C15.35133789 31.24751953 15.35133789 31.24751953 14.48632812 32.08984375 C13.5959082 32.91162109 13.5959082 32.91162109 12.6875 33.75 C12.10548828 34.31332031 11.52347656 34.87664063 10.92382812 35.45703125 C8.08448791 38.17739571 5.22615609 40.73770783 2 43 C2.55429687 43.32613281 3.10859375 43.65226562 3.6796875 43.98828125 C4.40414062 44.42527344 5.12859375 44.86226562 5.875 45.3125 C6.59429687 45.74175781 7.31359375 46.17101563 8.0546875 46.61328125 C10 48 10 48 12 51 C13.85732608 51.68224328 13.85732608 51.68224328 15.9375 52 C18.3296304 52.53833788 19.90642975 52.94151859 22 54.25 C23.4764897 56.83385698 23.1940473 59.08929049 23 62 C19.37 62 15.74 62 12 62 C12 61.34 12 60.68 12 60 C14.64 60 17.28 60 20 60 C19.505 58.02 19.505 58.02 19 56 C18.40832031 55.99742188 17.81664062 55.99484375 17.20703125 55.9921875 C10.8152513 55.67937608 10.8152513 55.67937608 8.359375 53.6328125 C7.17298153 52.13910024 6.08067594 50.57189227 5 49 C1.79305399 47.396527 -1.53078407 47.36555195 -5 48 C-5.804375 48.825 -6.60875 49.65 -7.4375 50.5 C-10 53 -10 53 -12.1640625 53.26171875 C-13.71693161 53.2136658 -15.26930674 53.12257668 -16.81640625 52.98046875 C-19.47445309 53.00424377 -20.80841573 53.50342131 -23 55 C-23.66 56.32 -24.32 57.64 -25 59 C-13.12 59.33 -1.24 59.66 11 60 C10.505 60.99 10.505 60.99 10 62 C-6.83 62 -23.66 62 -41 62 C-41 57 -41 57 -39.6875 55.25 C-38 54 -38 54 -35 53 C-33.66172696 51.33729713 -32.32810215 49.67083819 -31 48 C-30.34 48 -29.68 48 -29 48 C-30.1241176 46.70756532 -31.24932592 45.41607925 -32.375 44.125 C-33.00148438 43.40570313 -33.62796875 42.68640625 -34.2734375 41.9453125 C-35.47426834 40.5923402 -36.7208345 39.2791655 -38 38 C-38.51889661 34.27235023 -38.41485613 32.58391355 -36.21166992 29.48291016 C-35.39287354 28.67644043 -34.57407715 27.8699707 -33.73046875 27.0390625 C-32.84166016 26.15605469 -31.95285156 25.27304687 -31.03710938 24.36328125 C-30.09673828 23.45964844 -29.15636719 22.55601563 -28.1875 21.625 C-27.25873047 20.69816406 -26.32996094 19.77132813 -25.37304688 18.81640625 C-18.42111561 12 -18.42111561 12 -15 12 C-15.55418701 15.87767111 -17.25650407 17.58468633 -20.03515625 20.2578125 C-20.84404297 21.04800781 -21.65292969 21.83820312 -22.48632812 22.65234375 C-23.33646484 23.46832031 -24.18660156 24.28429687 -25.0625 25.125 C-26.74526564 26.74807509 -28.42389113 28.37545737 -30.09765625 30.0078125 C-30.84539307 30.72598145 -31.59312988 31.44415039 -32.36352539 32.18408203 C-34.22315005 33.84020141 -34.22315005 33.84020141 -34 36 C-31.14220983 34.70280076 -29.08991464 33.3363174 -26.88378906 31.11083984 C-26.30348938 30.5303891 -25.7231897 29.94993835 -25.12530518 29.35189819 C-24.51161072 28.72788116 -23.89791626 28.10386414 -23.265625 27.4609375 C-22.62759949 26.82008209 -21.98957397 26.17922668 -21.33221436 25.51895142 C-19.30005931 23.47562179 -17.27497782 21.42544018 -15.25 19.375 C-13.8715547 17.9865214 -12.49265364 16.5984951 -11.11328125 15.2109375 C-7.73688106 11.81251303 -4.36680712 8.40792746 -1 5 C-1.99 4.67 -2.98 4.34 -4 4 C-4.47050781 4.5053125 -4.94101562 5.010625 -5.42578125 5.53125 C-6.04839844 6.1809375 -6.67101563 6.830625 -7.3125 7.5 C-7.92738281 8.1496875 -8.54226562 8.799375 -9.17578125 9.46875 C-11 11 -11 11 -14 11 C-13.41242765 7.550874 -12.23402195 5.75170479 -9.8125 3.25 C-9.24144531 2.63640625 -8.67039063 2.0228125 -8.08203125 1.390625 C-5.18648821 -0.54335872 -3.43777811 -0.37268532 0 0 Z M0.66490173 8.21484375 C0.09864578 8.78332031 -0.46761017 9.35179687 -1.05102539 9.9375 C-1.69161392 10.57816406 -2.33220245 11.21882812 -2.99220276 11.87890625 C-3.68700241 12.57886719 -4.38180206 13.27882813 -5.09765625 14 C-6.16094398 15.06541016 -6.16094398 15.06541016 -7.24571228 16.15234375 C-9.52032021 18.43257148 -11.79143597 20.71624311 -14.0625 23 C-15.59938144 24.54189389 -17.13648782 26.08356362 -18.67382812 27.625 C-22.45183745 31.41406458 -26.22698153 35.20596604 -30 39 C-29.34 40.32 -28.68 41.64 -28 43 C-27.52949219 42.59007812 -27.05898438 42.18015625 -26.57421875 41.7578125 C-25.95160156 41.21898437 -25.32898438 40.68015625 -24.6875 40.125 C-24.07261719 39.59132812 -23.45773438 39.05765625 -22.82421875 38.5078125 C-21 37 -21 37 -18 35 C-19.55500981 38.81684226 -22.03595495 41.19195732 -25 44 C-23.63016497 47.16115776 -23.0109362 47.9927092 -20 50 C-14.88697869 50.58674015 -13.03916766 50.75390595 -8.8125 47.6875 C-7.884375 46.800625 -6.95625 45.91375 -6 45 C-5.20899902 44.53392334 -4.41799805 44.06784668 -3.60302734 43.58764648 C0.99528856 40.78302743 4.57018447 36.84043693 8.375 33.0625 C9.64150391 31.84530273 9.64150391 31.84530273 10.93359375 30.60351562 C11.72636719 29.81783203 12.51914062 29.03214844 13.3359375 28.22265625 C14.42720947 27.15156616 14.42720947 27.15156616 15.54052734 26.05883789 C17.23648727 24.12909205 17.23648727 24.12909205 16.84448242 21.86987305 C15.6730466 19.276052 13.9911616 17.70586819 11.9375 15.75 C11.20402344 15.04359375 10.47054687 14.3371875 9.71484375 13.609375 C9.14894531 13.07828125 8.58304688 12.5471875 8 12 C2.04403306 16.96073412 -3.35660569 22.30953425 -8.74609375 27.87304688 C-9.38160156 28.51951172 -10.01710938 29.16597656 -10.671875 29.83203125 C-11.2400293 30.41702393 -11.80818359 31.0020166 -12.39355469 31.60473633 C-14 33 -14 33 -17 34 C-10.17373008 25.84177497 -2.56200163 18.46720316 5 11 C4.34 9.68 3.68 8.36 3 7 C1.82242441 6.88783136 1.82242441 6.88783136 0.66490173 8.21484375 Z M-30.3125 51.6875 C-32.27510079 53.8305797 -32.27510079 53.8305797 -31.75 56.25 C-31.5025 56.8275 -31.255 57.405 -31 58 C-31.99 58.495 -31.99 58.495 -33 59 C-33 58.34 -33 57.68 -33 57 C-34.65 57.33 -36.3 57.66 -38 58 C-38 58.66 -38 59.32 -38 60 C-35.03 60 -32.06 60 -29 60 C-28.54625 59.071875 -28.0925 58.14375 -27.625 57.1875 C-26 54 -26 54 -24 51 C-26.97284889 49.7259219 -27.62296038 49.72486298 -30.3125 51.6875 Z " fill="#000000" transform="translate(41,1)"/>
<path d="M0 0 C2.625 0.625 2.625 0.625 5 2 C5.9375 3.9375 5.9375 3.9375 6 6 C5.01 7.485 5.01 7.485 4 9 C0.9375 9.25 0.9375 9.25 -2 9 C-3 8 -3 8 -3.25 5.0625 C-3.1675 4.051875 -3.085 3.04125 -3 2 C-2.01 1.34 -1.02 0.68 0 0 Z M0 3 C0 3.99 0 4.98 0 6 C0.99 5.67 1.98 5.34 3 5 C2.67 4.34 2.34 3.68 2 3 C1.34 3 0.68 3 0 3 Z " fill="#000000" transform="translate(48,18)"/>
<path d="M0 0 C-0.57926213 3.53819573 -1.84323477 5.25028243 -4.375 7.75 C-4.98085938 8.36359375 -5.58671875 8.9771875 -6.2109375 9.609375 C-8 11 -8 11 -11 11 C-10.42073787 7.46180427 -9.15676523 5.74971757 -6.625 3.25 C-6.01914062 2.63640625 -5.41328125 2.0228125 -4.7890625 1.390625 C-3 0 -3 0 0 0 Z " fill="#000000" transform="translate(31,37)"/>
<path d="M0 0 C0.99 0 1.98 0 3 0 C3 0.99 3 1.98 3 3 C2.01 3 1.02 3 0 3 C0 2.01 0 1.02 0 0 Z " fill="#000000" transform="translate(25,56)"/>
<path d="M0 0 C0.99 0 1.98 0 3 0 C3 0.66 3 1.32 3 2 C2.01 2 1.02 2 0 2 C0 1.34 0 0.68 0 0 Z " fill="#000000" transform="translate(36,52)"/>
<path d="M0 0 C0.99 0.33 1.98 0.66 3 1 C2.01 1.33 1.02 1.66 0 2 C0 1.34 0 0.68 0 0 Z " fill="#000000" transform="translate(44,57)"/>
</svg>
