<?xml version="1.0" encoding="UTF-8"?>
<svg version="1.1" xmlns="http://www.w3.org/2000/svg" width="64" height="64">
<path d="M0 0 C2.31 0 4.62 0 7 0 C6.85892253 1.45880109 6.71197585 2.91703551 6.5625 4.375 C6.48128906 5.18710938 6.40007813 5.99921875 6.31640625 6.8359375 C6 9 6 9 5 11 C6.65 11 8.3 11 10 11 C12.71422556 14.97516499 12.22355524 19.14319684 12.125 23.75 C12.08375 26.4725 12.0425 29.195 12 32 C18.6 32 25.2 32 32 32 C32 32.66 32 33.32 32 34 C33.7015625 33.9690625 33.7015625 33.9690625 35.4375 33.9375 C39 34 39 34 40 35 C40.12562235 36.76747729 40.17576558 38.54060292 40.1875 40.3125 C40.20167969 41.27800781 40.21585938 42.24351563 40.23046875 43.23828125 C39.99873224 46.01519158 39.42140844 47.63473141 38 50 C35.36 50 32.72 50 30 50 C30 50.66 30 51.32 30 52 C31.98 52 33.96 52 36 52 C36.125 54.875 36.125 54.875 36 58 C34 60 34 60 31.86802673 60.24723816 C30.98723953 60.24581314 30.10645233 60.24438812 29.19897461 60.24291992 C28.20131577 60.24599655 27.20365692 60.24907318 26.17576599 60.25224304 C25.09553665 60.24505753 24.01530731 60.23787201 22.90234375 60.23046875 C21.24544273 60.22978142 21.24544273 60.22978142 19.55506897 60.2290802 C17.21728442 60.22605547 14.87950192 60.21816264 12.54174805 60.20581055 C8.94898397 60.18755834 5.35647746 60.18530078 1.76367188 60.18554688 C-0.50260641 60.18063174 -2.76888294 60.17480344 -5.03515625 60.16796875 C-6.11740982 60.16685593 -7.19966339 60.1657431 -8.31471252 60.16459656 C-9.30921921 60.15821671 -10.30372589 60.15183685 -11.32836914 60.14526367 C-12.20836075 60.14145187 -13.08835236 60.13764008 -13.99501038 60.13371277 C-16 60 -16 60 -17 59 C-17.32446337 55.89957227 -17.51334441 52.7979275 -17.71875 49.6875 C-17.70607799 47.08403248 -17.70607799 47.08403248 -19 46 C-20.1224754 39.10593121 -20.18250881 32.09270783 -20.1875 25.125 C-20.20586914 23.74054687 -20.20586914 23.74054687 -20.22460938 22.328125 C-20.22654297 21.43867188 -20.22847656 20.54921875 -20.23046875 19.6328125 C-20.23457764 18.83762207 -20.23868652 18.04243164 -20.24291992 17.22314453 C-20 15 -20 15 -18 11 C-12.72 11 -7.44 11 -2 11 C-1.34 7.37 -0.68 3.74 0 0 Z M3 2 C4 4 4 4 4 4 Z M2 5 C3 8 3 8 3 8 Z M1 9 C2 11 2 11 2 11 Z M-16 13 C-16 13.66 -16 14.32 -16 15 C-8.08 15 -0.16 15 8 15 C8 14.34 8 13.68 8 13 C0.08 13 -7.84 13 -16 13 Z M-18 17 C-18 17.66 -18 18.32 -18 19 C-8.76 19 0.48 19 10 19 C10 18.34 10 17.68 10 17 C0.76 17 -8.48 17 -18 17 Z M-16 21 C-16 22.32 -16 23.64 -16 25 C-8.08 25 -0.16 25 8 25 C8 23.68 8 22.36 8 21 C0.08 21 -7.84 21 -16 21 Z M-17 27 C-17.05366791 34.11597525 -17.05366791 34.11597525 -16.5 41.0625 C-16.335 42.361875 -16.17 43.66125 -16 45 C-10.72 45 -5.44 45 0 45 C-0.33 44.01 -0.66 43.02 -1 42 C-2.918125 42.061875 -2.918125 42.061875 -4.875 42.125 C-7.0546875 42.1953125 -7.0546875 42.1953125 -9 42 C-11 40 -11 40 -11.265625 38.125 C-11.26046875 37.42375 -11.2553125 36.7225 -11.25 36 C-11.25515625 35.29875 -11.2603125 34.5975 -11.265625 33.875 C-11 32 -11 32 -9 30 C-7.125 29.734375 -7.125 29.734375 -5 29.75 C-4.29875 29.74484375 -3.5975 29.7396875 -2.875 29.734375 C-1 30 -1 30 1 32 C3.68839385 32.26991906 6.29141936 32.08737357 9 32 C9 30.35 9 28.7 9 27 C0.42 27 -8.16 27 -17 27 Z M-9 33 C-9.16666667 36 -9.16666667 36 -9 39 C-7.88163776 40.34404775 -7.88163776 40.34404775 -5 40.125 C-2.11836224 40.34404775 -2.11836224 40.34404775 -1 39 C-0.83333333 36 -0.83333333 36 -1 33 C-2.11836224 31.65595225 -2.11836224 31.65595225 -5 31.875 C-7.88163776 31.65595225 -7.88163776 31.65595225 -9 33 Z M2 34 C2.103125 36.2275 2.20625 38.455 2.3125 40.75 C2.37050781 42.00296875 2.42851562 43.2559375 2.48828125 44.546875 C3.02517676 48.16989506 3.49568198 49.4261948 6 52 C8.21269202 52.54837595 8.21269202 52.54837595 10.66796875 52.390625 C12.00698242 52.37128906 12.00698242 52.37128906 13.37304688 52.3515625 C14.30181641 52.31804688 15.23058594 52.28453125 16.1875 52.25 C17.59805664 52.22292969 17.59805664 52.22292969 19.03710938 52.1953125 C21.35909889 52.1481655 23.6790369 52.08238231 26 52 C28.07973696 48.19079756 28.38339283 45.09892913 28.625 40.75 C28.74875 38.5225 28.8725 36.295 29 34 C20.09 34 11.18 34 2 34 Z M32 36 C32 36.66 32 37.32 32 38 C33.32 38 34.64 38 36 38 C35.67 40.64 35.34 43.28 35 46 C33.68 46 32.36 46 31 46 C31 46.66 31 47.32 31 48 C33.47266765 47.65555119 33.47266765 47.65555119 36 47 C37.14352916 44.71294169 37.10334439 43.40735238 37.0625 40.875 C37.041875 39.59625 37.02125 38.3175 37 37 C35.35 36.67 33.7 36.34 32 36 Z M31 40 C31.33 41.32 31.66 42.64 32 44 C32.33 42.68 32.66 41.36 33 40 C32.34 40 31.68 40 31 40 Z M-14 47 C-14 50.63 -14 54.26 -14 58 C-10.7 58 -7.4 58 -4 58 C-4 57.34 -4 56.68 -4 56 C-4.99 56 -5.98 56 -7 56 C-7 55.34 -7 54.68 -7 54 C-6.01 54 -5.02 54 -4 54 C-4 53.34 -4 52.68 -4 52 C-2.02 52 -0.04 52 2 52 C1.34 50.35 0.68 48.7 0 47 C-4.62 47 -9.24 47 -14 47 Z M-1 54 C-0.67 54.99 -0.34 55.98 0 57 C4.56256058 59.28128029 10.92807179 58.18502621 15.9375 58.1875 C17.88946289 58.20586914 17.88946289 58.20586914 19.88085938 58.22460938 C21.12544922 58.22654297 22.37003906 58.22847656 23.65234375 58.23046875 C24.79695068 58.23457764 25.94155762 58.23868652 27.12084961 58.24291992 C30.19811276 58.21660147 30.19811276 58.21660147 33 56 C33 55.34 33 54.68 33 54 C21.78 54 10.56 54 -1 54 Z " fill="#000000" transform="translate(22,2)"/>
<path d="M0 0 C0.99 0 1.98 0 3 0 C3.33 1.98 3.66 3.96 4 6 C2.68 6.33 1.36 6.66 0 7 C0 4.69 0 2.38 0 0 Z " fill="#000000" transform="translate(41,25)"/>
<path d="M0 0 C0.99 0 1.98 0 3 0 C3.33 1.98 3.66 3.96 4 6 C2.68 6.33 1.36 6.66 0 7 C0 4.69 0 2.38 0 0 Z " fill="#000000" transform="translate(36,25)"/>
<path d="M0 0 C0.66 0 1.32 0 2 0 C2 1.98 2 3.96 2 6 C1.01 6 0.02 6 -1 6 C-1.042721 4.33388095 -1.04063832 2.66617115 -1 1 C-0.67 0.67 -0.34 0.34 0 0 Z " fill="#000000" transform="translate(47,38)"/>
<path d="M0 0 C0.99 0 1.98 0 3 0 C3 0.99 3 1.98 3 3 C2.01 3 1.02 3 0 3 C0 2.01 0 1.02 0 0 Z " fill="#000000" transform="translate(46,45)"/>
<path d="M0 0 C0.99 0 1.98 0 3 0 C3 0.66 3 1.32 3 2 C2.01 2 1.02 2 0 2 C0 1.34 0 0.68 0 0 Z " fill="#000000" transform="translate(10,56)"/>
</svg>
