<?xml version="1.0" encoding="UTF-8"?>
<svg version="1.1" xmlns="http://www.w3.org/2000/svg" width="64" height="64">
<path d="M0 0 C6.3782235 -0.36103152 6.3782235 -0.36103152 8.9375 1.125 C10.51108304 3.90191125 10.38420899 5.86229327 10 9 C8.75 11.375 8.75 11.375 7 13 C5.68 13 4.36 13 3 13 C3.03093173 15.41585574 3.03093173 15.41585574 4 18 C6.96707046 19.85916824 6.96707046 19.85916824 10 21 C10 22.65 10 24.3 10 26 C9.01 26 8.02 26 7 26 C7 27.32 7 28.64 7 30 C7.58007812 29.94199219 8.16015625 29.88398437 8.7578125 29.82421875 C13.10879376 29.57292445 16.04980246 29.50544546 19.5 32.375 C23.32193569 36.38803247 23.39055607 39.06268836 23.359375 44.44921875 C22.78039966 48.55868504 21.00085071 50.21349577 18 53 C14.27533151 54.86233425 10.05504687 54.57130829 6 54 C2.87421857 52.3279253 0.60718825 50.2143765 -1 47 C-1.07033769 45.12620395 -1.0843022 43.24998898 -1.0625 41.375 C-1.05347656 40.37210938 -1.04445312 39.36921875 -1.03515625 38.3359375 C-1.02355469 37.56507812 -1.01195312 36.79421875 -1 36 C-1.969375 36.78375 -2.93875 37.5675 -3.9375 38.375 C-4.48277344 38.81585938 -5.02804688 39.25671875 -5.58984375 39.7109375 C-7.13266437 40.9666391 -7.13266437 40.9666391 -8 43 C-7.01 43.33 -6.02 43.66 -5 44 C-5 45.65 -5 47.3 -5 49 C-8.66666667 49 -12.33333333 49 -16 49 C-16.825 49.825 -17.65 50.65 -18.5 51.5 C-22.00436334 54.50619404 -25.07243191 54.71803496 -29.58984375 54.5 C-33.5271311 53.68318836 -35.28634241 51.92240049 -38 49 C-39.86233425 45.27533151 -39.57130829 41.05504687 -39 37 C-37.3279253 33.87421857 -35.2143765 31.60718825 -32 30 C-29.95944995 29.92934383 -27.91665743 29.91578024 -25.875 29.9375 C-24.77929688 29.94652344 -23.68359375 29.95554687 -22.5546875 29.96484375 C-21.71164063 29.97644531 -20.86859375 29.98804687 -20 30 C-20.495 29.21625 -20.99 28.4325 -21.5 27.625 C-23.42884674 22.96362038 -24.27979899 18.95821497 -23 14 C-20.68911858 11.3340186 -18.08704038 9.66745247 -15 8 C-14.0409375 7.44699219 -14.0409375 7.44699219 -13.0625 6.8828125 C-10.58532947 5.82250845 -8.4310059 5.58665836 -5.75 5.375 C-4.85796875 5.30023437 -3.9659375 5.22546875 -3.046875 5.1484375 C-2.37140625 5.09945313 -1.6959375 5.05046875 -1 5 C-0.67 3.35 -0.34 1.7 0 0 Z M4 8 C3.67 8.66 3.34 9.32 3 10 C3.99 9.67 4.98 9.34 6 9 C5.34 8.67 4.68 8.34 4 8 Z M-18 14 C-16.68 15.32 -15.36 16.64 -14 18 C-13.113125 17.360625 -12.22625 16.72125 -11.3125 16.0625 C-8.30788572 14.19170243 -6.4489629 13.40576034 -3 13 C-3 13.99 -3 14.98 -3 16 C-1.68 16 -0.36 16 1 16 C0.72459296 12.18186553 0.72459296 12.18186553 -1 9 C-8.0361522 7.9222524 -12.45146275 9.76678357 -18 14 Z M-7 16 C-7.99 16.495 -7.99 16.495 -9 17 C-8.34 18.32 -7.68 19.64 -7 21 C-6.34 21 -5.68 21 -5 21 C-5 22.65 -5 24.3 -5 26 C-2.69 26 -0.38 26 2 26 C-0.81509993 23.7226499 -0.81509993 23.7226499 -4 24 C-4 22.02 -4 20.04 -4 18 C-4.66 18 -5.32 18 -6 18 C-6.33 17.34 -6.66 16.68 -7 16 Z M-20 18 C-19.67 20.31 -19.34 22.62 -19 25 C-18.01 25.33 -17.02 25.66 -16 26 C-15.34 25.67 -14.68 25.34 -14 25 C-15.1678266 21.18586998 -15.1678266 21.18586998 -18.125 18.6875 C-18.74375 18.460625 -19.3625 18.23375 -20 18 Z M-2 18 C-2 18.99 -2 19.98 -2 21 C-1.34 21 -0.68 21 0 21 C0 20.01 0 19.02 0 18 C-0.66 18 -1.32 18 -2 18 Z M-10 23 C-10 23.99 -10 24.98 -10 26 C-9.34 26 -8.68 26 -8 26 C-8 25.01 -8 24.02 -8 23 C-8.66 23 -9.32 23 -10 23 Z M-15 28 C-14.34414811 31.60992379 -14.34414811 31.60992379 -13 35 C-12.77141886 37.0374763 -12.58975722 39.08040303 -12.4375 41.125 C-12.35371094 42.22070312 -12.26992188 43.31640625 -12.18359375 44.4453125 C-12.12300781 45.28835937 -12.06242187 46.13140625 -12 47 C-10.68 46.67 -9.36 46.34 -8 46 C-8.33 45.67 -8.66 45.34 -9 45 C-9.18517885 43.27460337 -9.32299978 41.54402373 -9.4375 39.8125 C-9.77827159 35.59132939 -10.39620542 31.95602664 -12 28 C-12.99 28 -13.98 28 -15 28 Z M-8 30 C-8.16681109 33.08347826 -8.16681109 33.08347826 -8 36 C-3.99698968 34.23867546 -0.3971023 31.73867517 3 29 C3 28.67 3 28.34 3 28 C1.54207116 27.94600264 0.08357288 27.90720823 -1.375 27.875 C-2.59316406 27.84019531 -2.59316406 27.84019531 -3.8359375 27.8046875 C-6.21342243 27.78629949 -6.21342243 27.78629949 -8 30 Z M-31.8125 37.125 C-33.55198782 39.87155972 -33.39769128 41.81846974 -33 45 C-32 47 -32 47 -30 48 C-26.71501168 48.41062354 -24.84154581 48.6171336 -22.125 46.625 C-20.81026334 45.05533986 -20.81026334 45.05533986 -21 43 C-23.31 43 -25.62 43 -28 43 C-27.01 40.69 -26.02 38.38 -25 36 C-27.74086056 35.77776806 -29.43963721 35.65218861 -31.8125 37.125 Z M9 36 C9.66 37.98 10.32 39.96 11 42 C10.01 42.495 10.01 42.495 9 43 C8.34 41.35 7.68 39.7 7 38 C6.01 38.495 6.01 38.495 5 39 C4.66482489 43.12587749 4.66482489 43.12587749 6.125 46.875 C8.88090884 48.52854531 10.85075452 48.39365568 14 48 C16 47 16 47 17 45 C17.39769128 41.81846974 17.55198782 39.87155972 15.8125 37.125 C13.43963721 35.65218861 11.74086056 35.77776806 9 36 Z M-23 39 C-23.33 39.66 -23.66 40.32 -24 41 C-23.01 41 -22.02 41 -21 41 C-21 40.34 -21 39.68 -21 39 C-21.66 39 -22.32 39 -23 39 Z " fill="#000000" transform="translate(40,5)"/>
<path d="M0 0 C4.29 0 8.58 0 13 0 C13 0.66 13 1.32 13 2 C8.71 2 4.42 2 0 2 C0 1.34 0 0.68 0 0 Z " fill="#000000" transform="translate(1,28)"/>
<path d="M0 0 C3.96 0 7.92 0 12 0 C12 0.66 12 1.32 12 2 C8.04 2 4.08 2 0 2 C0 1.34 0 0.68 0 0 Z " fill="#000000" transform="translate(13,9)"/>
<path d="M0 0 C3.3 0 6.6 0 10 0 C10 0.66 10 1.32 10 2 C6.7 2 3.4 2 0 2 C0 1.34 0 0.68 0 0 Z " fill="#000000" transform="translate(7,13)"/>
<path d="M0 0 C1.98 0 3.96 0 6 0 C6 0.66 6 1.32 6 2 C4.02 2 2.04 2 0 2 C0 1.34 0 0.68 0 0 Z " fill="#000000" transform="translate(1,24)"/>
</svg>
