<?xml version="1.0" encoding="UTF-8"?>
<svg version="1.1" xmlns="http://www.w3.org/2000/svg" width="64" height="64">
<path d="M0 0 C1.4540625 0.0309375 1.4540625 0.0309375 2.9375 0.0625 C3.9275 2.7025 4.9175 5.3425 5.9375 8.0625 C6.205625 7.11375 6.47375 6.165 6.75 5.1875 C7.9375 2.0625 7.9375 2.0625 10.9375 0.0625 C14.125 0.4375 14.125 0.4375 16.9375 1.0625 C17.2675 2.0525 17.5975 3.0425 17.9375 4.0625 C18.9275 3.4025 19.9175 2.7425 20.9375 2.0625 C23.48046875 2.109375 23.48046875 2.109375 25.9375 3.0625 C27.30078125 5.390625 27.30078125 5.390625 28.25 8.3125 C28.73919922 9.74335938 28.73919922 9.74335938 29.23828125 11.203125 C29.9104871 13.95203384 30.07618643 16.24767904 29.9375 19.0625 C25.8777698 20.57309728 23.39139333 21.0625 18.9375 21.0625 C19.2675 25.3525 19.5975 29.6425 19.9375 34.0625 C22.88753206 34.19507824 22.88753206 34.19507824 25.4375 33.375 C27.9375 33.0625 27.9375 33.0625 29.8125 34.25 C30.9375 36.0625 30.9375 36.0625 30.75 38.125 C29.9375 40.0625 29.9375 40.0625 27.9375 42.0625 C26.6175 42.0625 25.2975 42.0625 23.9375 42.0625 C24.9375 39.0625 24.9375 39.0625 26.9375 37.0625 C26.03 37.578125 25.1225 38.09375 24.1875 38.625 C20.9375 40.0625 20.9375 40.0625 18.5625 39.75 C17.758125 39.4096875 17.758125 39.4096875 16.9375 39.0625 C15.71128599 35.23671227 15.75380769 31.41272923 15.75 27.4375 C15.73775391 26.756875 15.72550781 26.07625 15.71289062 25.375 C15.70763645 23.60259244 15.81534094 21.8307006 15.9375 20.0625 C18.33513185 17.66486815 19.27023498 17.71969414 22.5625 17.4375 C24.00625 17.31375 25.45 17.19 26.9375 17.0625 C25.6175 14.0925 24.2975 11.1225 22.9375 8.0625 C23.5975 10.3725 24.2575 12.6825 24.9375 15.0625 C19.09495013 17.98377494 12.97835355 16.99759236 6.9375 15.0625 C2.51775862 11.54782511 2.00556863 8.40284313 0.9375 3.0625 C0.2775 3.0625 -0.3825 3.0625 -1.0625 3.0625 C-0.30106331 5.00371211 0.47201357 6.94036117 1.25 8.875 C1.67925781 9.95394531 2.10851562 11.03289063 2.55078125 12.14453125 C3.72431978 15.03434752 3.72431978 15.03434752 5.59375 16.71875 C6.9375 18.0625 6.9375 18.0625 7.125 21.75 C7.063125 22.843125 7.00125 23.93625 6.9375 25.0625 C5.9475 24.7325 4.9575 24.4025 3.9375 24.0625 C3.25724363 22.06708132 2.59259503 20.06632009 1.9375 18.0625 C1.2775 17.2375 0.6175 16.4125 -0.0625 15.5625 C-3.64166948 11.08853815 -4.45664267 6.7118783 -4.0625 1.0625 C-3.0625 0.0625 -3.0625 0.0625 0 0 Z M11.9375 3.0625 C10.9475 3.5575 10.9475 3.5575 9.9375 4.0625 C10.2675 5.7125 10.5975 7.3625 10.9375 9.0625 C12.5875 8.7325 14.2375 8.4025 15.9375 8.0625 C15.67073796 6.07758358 15.67073796 6.07758358 14.9375 4.0625 C13.9475 3.7325 12.9575 3.4025 11.9375 3.0625 Z M17.9375 9.0625 C17.9375 9.7225 17.9375 10.3825 17.9375 11.0625 C16.2875 11.3925 14.6375 11.7225 12.9375 12.0625 C15.71864056 14.39641203 15.71864056 14.39641203 18.625 13.6875 C19.388125 13.48125 20.15125 13.275 20.9375 13.0625 C20.6075 11.7425 20.2775 10.4225 19.9375 9.0625 C19.2775 9.0625 18.6175 9.0625 17.9375 9.0625 Z " fill="#000000" transform="translate(17.0625,3.9375)"/>
<path d="M0 0 C0.99 0 1.98 0 3 0 C3.0823027 4.44434605 2.93938802 8.59815583 2.3125 13 C1.73977259 18.14659211 2.72678596 21.36937882 5 26 C5.66 26.33 6.32 26.66 7 27 C6.505 26.071875 6.01 25.14375 5.5 24.1875 C3.40434365 19.34067394 3.33672837 14.19419211 4 9 C4.66 8.34 5.32 7.68 6 7 C8.625 7.375 8.625 7.375 11 8 C11.66 10.97 12.32 13.94 13 17 C16.465 16.505 16.465 16.505 20 16 C19.375 17.9375 19.375 17.9375 18 20 C15.0625 20.9375 15.0625 20.9375 12 21 C10.1875 19.9375 10.1875 19.9375 9 18 C8.3125 14.8125 8.3125 14.8125 8 12 C7.83033385 16.41131991 7.99924675 19.12354057 10 23 C10.1875 26.1875 10.1875 26.1875 10 29 C9 30 9 30 6.1875 30.4375 C3 30 3 30 0.6875 27.3125 C-3.82719416 18.45032257 -1.72884202 9.40057847 0 0 Z " fill="#000000" transform="translate(21,30)"/>
<path d="M0 0 C1.65 0.33 3.3 0.66 5 1 C5.33 2.32 5.66 3.64 6 5 C5.01 5 4.02 5 3 5 C3 7.31 3 9.62 3 12 C-1.75 13.125 -1.75 13.125 -4 12 C-4 10.35 -4 8.7 -4 7 C-2.68 6.67 -1.36 6.34 0 6 C0 4.02 0 2.04 0 0 Z " fill="#000000" transform="translate(9,28)"/>
<path d="M0 0 C2.4375 0.8125 2.4375 0.8125 5 2 C5.33 2.99 5.66 3.98 6 5 C5.01 5 4.02 5 3 5 C3.020625 6.134375 3.04125 7.26875 3.0625 8.4375 C3 12 3 12 2 13 C0.00041636 13.04080783 -2.00045254 13.04254356 -4 13 C-5.125 9.25 -5.125 9.25 -4 7 C-2.68 7 -1.36 7 0 7 C0 4.69 0 2.38 0 0 Z " fill="#000000" transform="translate(54,16)"/>
<path d="M0 0 C1.32 0.99 2.64 1.98 4 3 C2.68 3.99 1.36 4.98 0 6 C-0.99 4.68 -1.98 3.36 -3 2 C-2.01 1.34 -1.02 0.68 0 0 Z " fill="#000000" transform="translate(53,6)"/>
<path d="M0 0 C0.66 0 1.32 0 2 0 C2.33 0.99 2.66 1.98 3 3 C2.67 3.66 2.34 4.32 2 5 C1.34 5 0.68 5 0 5 C-0.33 4.01 -0.66 3.02 -1 2 C-0.67 1.34 -0.34 0.68 0 0 Z " fill="#000000" transform="translate(14,50)"/>
<path d="M0 0 C1.32 0.66 2.64 1.32 4 2 C3.01 2.66 2.02 3.32 1 4 C0.34 3.67 -0.32 3.34 -1 3 C-0.67 2.01 -0.34 1.02 0 0 Z " fill="#000000" transform="translate(50,43)"/>
<path d="M0 0 C0.99 0.99 1.98 1.98 3 3 C2.01 3.66 1.02 4.32 0 5 C0 4.34 0 3.68 0 3 C-0.66 2.67 -1.32 2.34 -2 2 C-1.34 1.34 -0.68 0.68 0 0 Z " fill="#000000" transform="translate(7,8)"/>
</svg>
