<?xml version="1.0" encoding="UTF-8"?>
<svg version="1.1" xmlns="http://www.w3.org/2000/svg" width="64" height="64">
<path d="M0 0 C0.69416016 0.00064453 1.38832031 0.00128906 2.10351562 0.00195312 C5.85107102 0.03398351 9.27652707 0.45530541 12.9375 1.1875 C13.5975 0.8575 14.2575 0.5275 14.9375 0.1875 C19.4671724 -0.60717937 21.61694208 -0.71464312 25.46484375 1.9140625 C31.47513209 7.4401096 31.47513209 7.4401096 32.5390625 11.4609375 C32.57387972 14.58288124 31.92031702 17.23904895 30.9375 20.1875 C31.2636563 21.5226071 31.59882108 22.85551446 31.9375 24.1875 C32.69054095 35.37200988 32.37104684 44.81448109 25.1875 54 C19.50275953 60.08669181 12.38691159 63.92524697 4.02734375 64.41796875 C2.64316066 64.41403268 1.25897092 64.39955224 -0.125 64.375 C-0.81916016 64.37435547 -1.51332031 64.37371094 -2.22851562 64.37304688 C-5.97607102 64.34101649 -9.40152707 63.91969459 -13.0625 63.1875 C-14.0525 63.6825 -14.0525 63.6825 -15.0625 64.1875 C-19.5921724 64.98217937 -21.74194208 65.08964312 -25.58984375 62.4609375 C-31.60013209 56.9348904 -31.60013209 56.9348904 -32.6640625 52.9140625 C-32.69887972 49.79211876 -32.04531702 47.13595105 -31.0625 44.1875 C-31.3886563 42.8523929 -31.72382108 41.51948554 -32.0625 40.1875 C-32.81554095 29.00299012 -32.49604684 19.56051891 -25.3125 10.375 C-18.34959368 2.91976697 -10.11641931 -0.17946962 0 0 Z M-23.0625 14.1875 C-28.29036177 21.34469171 -29.67791532 28.51443756 -29.0625 37.1875 C-28.76459839 38.52919427 -28.4428806 39.86681855 -28.0625 41.1875 C-25.0316582 39.82968786 -22.92599327 38.30331436 -20.57910156 35.96289062 C-19.91871887 35.30881226 -19.25833618 34.65473389 -18.57794189 33.98083496 C-17.52615753 32.92297791 -17.52615753 32.92297791 -16.453125 31.84375 C-15.72631531 31.11885376 -14.99950562 30.39395752 -14.25067139 29.64709473 C-12.71852721 28.11630989 -11.18889925 26.58300303 -9.66162109 25.04736328 C-7.31438369 22.6893923 -4.95664222 20.34230454 -2.59765625 17.99609375 C-1.11133718 16.50845364 0.37436169 15.02019356 1.859375 13.53125 C2.92330475 12.47339294 2.92330475 12.47339294 4.00872803 11.39416504 C4.9803891 10.41304749 4.9803891 10.41304749 5.97167969 9.41210938 C6.54585632 8.83634155 7.12003296 8.26057373 7.71160889 7.6673584 C9.1501441 6.25107974 9.1501441 6.25107974 8.9375 4.1875 C-3.41554251 0.71849491 -14.57331903 4.83368022 -23.0625 14.1875 Z M16.9375 3.1875 C1.7575 18.3675 -13.4225 33.5475 -29.0625 49.1875 C-28.7325 50.1775 -28.4025 51.1675 -28.0625 52.1875 C-27.1653125 51.259375 -27.1653125 51.259375 -26.25 50.3125 C-24.0625 48.1875 -24.0625 48.1875 -21.0625 46.1875 C-21.0625 45.5275 -21.0625 44.8675 -21.0625 44.1875 C-20.0725 44.1875 -19.0825 44.1875 -18.0625 44.1875 C-17.69125 42.9809375 -17.69125 42.9809375 -17.3125 41.75 C-16.9 40.904375 -16.4875 40.05875 -16.0625 39.1875 C-14.72916667 38.85416667 -13.39583333 38.52083333 -12.0625 38.1875 C-11.38117549 36.52677151 -10.71507873 34.859733 -10.0625 33.1875 C-7.9375 31.875 -7.9375 31.875 -6.0625 31.1875 C-6.0625 30.5275 -6.0625 29.8675 -6.0625 29.1875 C-1.76017442 24.42005814 -1.76017442 24.42005814 1.9375 23.1875 C1.9375 22.1975 1.9375 21.2075 1.9375 20.1875 C5.08883488 22.02577868 8.05714908 23.94722706 10.9375 26.1875 C11.5975 25.5275 12.2575 24.8675 12.9375 24.1875 C12.504375 23.77757813 12.07125 23.36765625 11.625 22.9453125 C10.7896875 22.13707031 10.7896875 22.13707031 9.9375 21.3125 C9.380625 20.77882813 8.82375 20.24515625 8.25 19.6953125 C6.9375 18.1875 6.9375 18.1875 6.9375 16.1875 C7.5975 15.8575 8.2575 15.5275 8.9375 15.1875 C8.9375 14.5275 8.9375 13.8675 8.9375 13.1875 C10.2575 12.8575 11.5775 12.5275 12.9375 12.1875 C12.9375 11.5275 12.9375 10.8675 12.9375 10.1875 C14.46875 8.6796875 14.46875 8.6796875 16.4375 7.0625 C17.0871875 6.52367187 17.736875 5.98484375 18.40625 5.4296875 C18.9115625 5.01976562 19.416875 4.60984375 19.9375 4.1875 C18.9475 3.8575 17.9575 3.5275 16.9375 3.1875 Z M20.9375 4.1875 C20.6075 5.8375 20.2775 7.4875 19.9375 9.1875 C21.2575 8.8575 22.5775 8.5275 23.9375 8.1875 C23.6075 9.5075 23.2775 10.8275 22.9375 12.1875 C24.5875 11.8575 26.2375 11.5275 27.9375 11.1875 C26.96183888 10.01790013 25.981875 8.85188823 25 7.6875 C24.45472656 7.0378125 23.90945312 6.388125 23.34765625 5.71875 C22.88230469 5.2134375 22.41695312 4.708125 21.9375 4.1875 C21.6075 4.1875 21.2775 4.1875 20.9375 4.1875 Z M27.9375 12.1875 C27.55078125 12.68121094 27.1640625 13.17492188 26.765625 13.68359375 C26.24484375 14.32425781 25.7240625 14.96492187 25.1875 15.625 C24.67703125 16.26308594 24.1665625 16.90117187 23.640625 17.55859375 C21.74082371 19.37560554 20.50163092 19.79173197 17.9375 20.1875 C18.4325 21.6725 18.4325 21.6725 18.9375 23.1875 C18.2775 23.1875 17.6175 23.1875 16.9375 23.1875 C15.2231382 25.14677063 13.55344832 27.14630212 11.9375 29.1875 C9.76875748 28.68146008 7.93782373 28.18766187 5.9375 27.1875 C4.72452351 29.4681707 4.72452351 29.4681707 3.9375 32.1875 C4.70353959 34.4732711 4.70353959 34.4732711 5.9375 36.1875 C5.2775 36.1875 4.6175 36.1875 3.9375 36.1875 C3.6075 36.8475 3.2775 37.5075 2.9375 38.1875 C1.9475 38.1875 0.9575 38.1875 -0.0625 38.1875 C-0.31 38.991875 -0.5575 39.79625 -0.8125 40.625 C-1.225 41.470625 -1.6375 42.31625 -2.0625 43.1875 C-3.39583333 43.52083333 -4.72916667 43.85416667 -6.0625 44.1875 C-6.77497732 45.8351038 -7.43650383 47.50513529 -8.0625 49.1875 C-10 51.5 -10 51.5 -12.0625 53.1875 C-13.0525 53.1875 -14.0425 53.1875 -15.0625 53.1875 C-15.51625 54.13625 -15.97 55.085 -16.4375 56.0625 C-18.0625 59.1875 -18.0625 59.1875 -20.0625 61.1875 C-16.20323323 60.63245939 -14.52382317 58.96659316 -11.875 56.1875 C-11.09382813 55.383125 -10.31265625 54.57875 -9.5078125 53.75 C-8.29738281 52.4815625 -8.29738281 52.4815625 -7.0625 51.1875 C-5.46549926 49.51396568 -3.86160535 47.84697482 -2.25 46.1875 C-1.54230469 45.445 -0.83460937 44.7025 -0.10546875 43.9375 C1.98230807 42.14911756 3.25105532 41.57386508 5.9375 41.1875 C3.54370839 45.73150442 0.42060272 48.87733498 -3.25 52.375 C-5.24195045 54.27504962 -7.16175499 56.19245446 -9.0625 58.1875 C-9.0625 58.8475 -9.0625 59.5075 -9.0625 60.1875 C-0.53360352 62.58260107 7.22203209 61.45563119 14.9375 57.1875 C21.54146026 52.7231766 26.13303244 46.87327513 28.55859375 39.23046875 C29.00059428 36.84731126 29.0698885 34.61092736 29.0625 32.1875 C29.06507812 31.341875 29.06765625 30.49625 29.0703125 29.625 C28.94583711 27.34051056 28.57627457 25.37758426 27.9375 23.1875 C23.00167098 25.18696777 19.95420052 29.1697557 16.375 32.97265625 C14.06633177 35.07043652 12.97287343 35.84320996 9.9375 36.1875 C11.87969077 32.72624798 13.90416141 29.98030517 16.73046875 27.19921875 C17.44267578 26.49345703 18.15488281 25.78769531 18.88867188 25.06054688 C19.62666016 24.33931641 20.36464844 23.61808594 21.125 22.875 C22.24938477 21.76415039 22.24938477 21.76415039 23.39648438 20.63085938 C25.23903282 18.81178288 27.08609662 16.99755611 28.9375 15.1875 C28.4425 13.7025 28.4425 13.7025 27.9375 12.1875 Z M-0.0625 27.1875 C0.5975 27.8475 1.2575 28.5075 1.9375 29.1875 C1.9375 28.5275 1.9375 27.8675 1.9375 27.1875 C1.2775 27.1875 0.6175 27.1875 -0.0625 27.1875 Z M-8.0625 35.1875 C-7.27132096 37.18733534 -7.27132096 37.18733534 -6.0625 39.1875 C-5.0725 39.5175 -4.0825 39.8475 -3.0625 40.1875 C-2.7325 38.5375 -2.4025 36.8875 -2.0625 35.1875 C-4.55342811 33.94203595 -5.47330733 34.4107422 -8.0625 35.1875 Z M-12.0625 40.1875 C-12.7225 40.8475 -13.3825 41.5075 -14.0625 42.1875 C-12.4125 42.1875 -10.7625 42.1875 -9.0625 42.1875 C-9.3925 41.5275 -9.7225 40.8675 -10.0625 40.1875 C-10.7225 40.1875 -11.3825 40.1875 -12.0625 40.1875 Z M-11.0625 45.1875 C-12.7125 45.5175 -14.3625 45.8475 -16.0625 46.1875 C-15.0725 47.1775 -14.0825 48.1675 -13.0625 49.1875 C-13.0625 48.5275 -13.0625 47.8675 -13.0625 47.1875 C-12.0725 47.1875 -11.0825 47.1875 -10.0625 47.1875 C-10.3925 46.5275 -10.7225 45.8675 -11.0625 45.1875 Z M-23.0625 51.1875 C-21.7425 52.5075 -20.4225 53.8275 -19.0625 55.1875 C-19.7225 53.8675 -20.3825 52.5475 -21.0625 51.1875 C-21.7225 51.1875 -22.3825 51.1875 -23.0625 51.1875 Z " fill="#000000" transform="translate(32.0625,-0.1875)"/>
<path d="M0 0 C1.32 0 2.64 0 4 0 C4 0.99 4 1.98 4 3 C2.68 3 1.36 3 0 3 C0 2.01 0 1.02 0 0 Z " fill="#000000" transform="translate(38,37)"/>
<path d="M0 0 C1.32 0.33 2.64 0.66 4 1 C4 1.66 4 2.32 4 3 C2.68 3 1.36 3 0 3 C0 2.01 0 1.02 0 0 Z " fill="#000000" transform="translate(29,53)"/>
<path d="M0 0 C0.99 0.33 1.98 0.66 3 1 C3 1.99 3 2.98 3 4 C2.01 4 1.02 4 0 4 C0 2.68 0 1.36 0 0 Z " fill="#000000" transform="translate(8,31)"/>
<path d="M0 0 C0.99 0 1.98 0 3 0 C3 1.32 3 2.64 3 4 C2.01 3.67 1.02 3.34 0 3 C0 2.01 0 1.02 0 0 Z " fill="#000000" transform="translate(53,29)"/>
<path d="M0 0 C1.32 0 2.64 0 4 0 C4 0.99 4 1.98 4 3 C2.68 2.67 1.36 2.34 0 2 C0 1.34 0 0.68 0 0 Z " fill="#000000" transform="translate(31,8)"/>
<path d="M0 0 C0.66 0.33 1.32 0.66 2 1 C2 1.99 2 2.98 2 4 C1.01 4 0.02 4 -1 4 C-0.67 2.68 -0.34 1.36 0 0 Z " fill="#000000" transform="translate(36,52)"/>
<path d="M0 0 C0.99 0.33 1.98 0.66 3 1 C3 1.66 3 2.32 3 3 C1.68 3 0.36 3 -1 3 C-0.67 2.01 -0.34 1.02 0 0 Z " fill="#000000" transform="translate(45,48)"/>
<path d="M0 0 C0.66 0 1.32 0 2 0 C2 1.32 2 2.64 2 4 C1.01 3.67 0.02 3.34 -1 3 C-0.67 2.01 -0.34 1.02 0 0 Z " fill="#000000" transform="translate(49,44)"/>
<path d="M0 0 C0.99 0 1.98 0 3 0 C3 0.99 3 1.98 3 3 C1.68 2.67 0.36 2.34 -1 2 C-0.67 1.34 -0.34 0.68 0 0 Z " fill="#000000" transform="translate(53,35)"/>
<path d="M0 0 C1.32 0.33 2.64 0.66 4 1 C3.67 1.66 3.34 2.32 3 3 C2.01 3 1.02 3 0 3 C0 2.01 0 1.02 0 0 Z " fill="#000000" transform="translate(8,26)"/>
<path d="M0 0 C0.99 0.33 1.98 0.66 3 1 C2.67 1.99 2.34 2.98 2 4 C1.34 4 0.68 4 0 4 C0 2.68 0 1.36 0 0 Z " fill="#000000" transform="translate(13,16)"/>
<path d="M0 0 C1.32 0 2.64 0 4 0 C3.67 0.99 3.34 1.98 3 3 C2.01 2.67 1.02 2.34 0 2 C0 1.34 0 0.68 0 0 Z " fill="#000000" transform="translate(16,13)"/>
<path d="M0 0 C0.99 0 1.98 0 3 0 C2.67 1.32 2.34 2.64 2 4 C1.34 3.67 0.68 3.34 0 3 C0 2.01 0 1.02 0 0 Z " fill="#000000" transform="translate(26,8)"/>
<path d="M0 0 C0.99 0 1.98 0 3 0 C3 0.99 3 1.98 3 3 C2.01 3 1.02 3 0 3 C0 2.01 0 1.02 0 0 Z " fill="#000000" transform="translate(40,51)"/>
<path d="M0 0 C0.99 0 1.98 0 3 0 C3 0.99 3 1.98 3 3 C2.01 3 1.02 3 0 3 C0 2.01 0 1.02 0 0 Z " fill="#000000" transform="translate(51,40)"/>
<path d="M0 0 C0.99 0 1.98 0 3 0 C3 0.99 3 1.98 3 3 C2.01 3 1.02 3 0 3 C0 2.01 0 1.02 0 0 Z " fill="#000000" transform="translate(10,21)"/>
<path d="M0 0 C0.99 0 1.98 0 3 0 C3 0.99 3 1.98 3 3 C2.01 3 1.02 3 0 3 C0 2.01 0 1.02 0 0 Z " fill="#000000" transform="translate(21,10)"/>
</svg>
