<?xml version="1.0" encoding="UTF-8"?>
<svg version="1.1" xmlns="http://www.w3.org/2000/svg" width="64" height="64">
<path d="M0 0 C1.32 0.33 2.64 0.66 4 1 C4.1953125 3.01822917 4.390625 5.03645833 4.5859375 7.0546875 C4.86374749 9.22668245 4.86374749 9.22668245 7 11 C7.125 13.625 7.125 13.625 7 16 C7.73992188 16.10183594 8.47984375 16.20367188 9.2421875 16.30859375 C13.89423982 17.47490149 16.86239051 20.47528285 20 24 C22.81465083 28.76253832 23.58931466 33.49972987 23 39 C21.49938596 44.67623571 19.31172652 49.8596702 14.2109375 53.15625 C7.81332224 56.61442041 1.97321203 57.77353831 -5.08203125 55.7265625 C-11.3326926 53.35869486 -15.51121774 49.27532097 -18.25 43.25 C-19.87923695 36.18997321 -19.59500815 30.44622151 -16 24 C-12.49513431 20.04579255 -9.05103463 16.68367821 -4 15 C-2.84478498 12.52869082 -2.84478498 12.52869082 -2 10 C-1.67 9.67 -1.34 9.34 -1 9 C-0.76807135 7.48530552 -0.58784762 5.96245438 -0.4375 4.4375 C-0.35371094 3.61121094 -0.26992188 2.78492188 -0.18359375 1.93359375 C-0.09271484 0.97646484 -0.09271484 0.97646484 0 0 Z M1 12 C0.67 12.99 0.34 13.98 0 15 C0.99 15 1.98 15 3 15 C2.67 14.01 2.34 13.02 2 12 C1.67 12 1.34 12 1 12 Z M0 18 C-0.33 20.97 -0.66 23.94 -1 27 C0.98 27 2.96 27 5 27 C4.67 24.03 4.34 21.06 4 18 C2.68 18 1.36 18 0 18 Z M-8 21 C-8.65772428 24.02934491 -8.65772428 24.02934491 -9 27 C-7.68 27 -6.36 27 -5 27 C-4.67 24.69 -4.34 22.38 -4 20 C-6.0745356 19.8509288 -6.0745356 19.8509288 -8 21 Z M8 20 C8 21.98 8 23.96 8 26 C9.32 26.33 10.64 26.66 12 27 C12 25.35 12 23.7 12 22 C10.68 21.34 9.36 20.68 8 20 Z M-2 30 C-2 33.63 -2 37.26 -2 41 C3.7974423 41.24428343 3.7974423 41.24428343 9 39 C9 39.66 9 40.32 9 41 C10.32 40.67 11.64 40.34 13 40 C13 37.03 13 34.06 13 31 C10.69 31.33 8.38 31.66 6 32 C5.67 31.34 5.34 30.68 5 30 C2.69 30 0.38 30 -2 30 Z M-10 31 C-10 33.97 -10 36.94 -10 40 C-7.525 40.495 -7.525 40.495 -5 41 C-5 37.7 -5 34.4 -5 31 C-6.65 31 -8.3 31 -10 31 Z M-15 32 C-15 34.31 -15 36.62 -15 39 C-14.34 39 -13.68 39 -13 39 C-13 36.69 -13 34.38 -13 32 C-13.66 32 -14.32 32 -15 32 Z M17 32 C17 34.31 17 36.62 17 39 C17.66 39 18.32 39 19 39 C19 36.69 19 34.38 19 32 C18.34 32 17.68 32 17 32 Z M16 43 C17 45 17 45 17 45 Z M-9 44 C-8.81584568 46.94091587 -8.81584568 46.94091587 -8 50 C-6.04836882 51.43637698 -6.04836882 51.43637698 -4 52 C-4.33 49.36 -4.66 46.72 -5 44 C-6.32 44 -7.64 44 -9 44 Z M9 44 C7.64381501 45.12534105 7.64381501 45.12534105 7.9375 48.0625 C7.958125 49.031875 7.97875 50.00125 8 51 C9.32 50.34 10.64 49.68 12 49 C12 47.35 12 45.7 12 44 C11.01 44 10.02 44 9 44 Z M-1 45 C-0.67 47.64 -0.34 50.28 0 53 C1.32 53 2.64 53 4 53 C4.33 50.36 4.66 47.72 5 45 C3.02 45 1.04 45 -1 45 Z " fill="#000000" transform="translate(30,6)"/>
<path d="M0 0 C2.90428694 2.25464381 3.63926582 4.95685996 4.78125 8.3828125 C4.96875 11.8203125 4.96875 11.8203125 4.78125 14.3828125 C1.96875 15.5078125 1.96875 15.5078125 -1.21875 16.3828125 C-2.20875 15.7228125 -3.19875 15.0628125 -4.21875 14.3828125 C-3.88875 12.7328125 -3.55875 11.0828125 -3.21875 9.3828125 C-2.22875 9.0528125 -1.23875 8.7228125 -0.21875 8.3828125 C-0.54875 7.0628125 -0.87875 5.7428125 -1.21875 4.3828125 C-3.19875 5.3728125 -5.17875 6.3628125 -7.21875 7.3828125 C-6.99058594 7.99769531 -6.76242188 8.61257812 -6.52734375 9.24609375 C-6.23988281 10.05433594 -5.95242188 10.86257812 -5.65625 11.6953125 C-5.36621094 12.49582031 -5.07617188 13.29632813 -4.77734375 14.12109375 C-4.21875 16.3828125 -4.21875 16.3828125 -5.21875 19.3828125 C-7.92754335 20.73720918 -10.22808268 20.44782701 -13.21875 20.3828125 C-13.90625 18.0703125 -13.90625 18.0703125 -14.21875 15.3828125 C-13.72375 14.9290625 -13.22875 14.4753125 -12.71875 14.0078125 C-12.22375 13.4715625 -11.72875 12.9353125 -11.21875 12.3828125 C-11.45352199 8.73739405 -11.45352199 8.73739405 -12.21875 5.3828125 C-10.64828257 4.32184787 -9.06180483 3.28455015 -7.46875 2.2578125 C-6.58703125 1.67773438 -5.7053125 1.09765625 -4.796875 0.5 C-2.21875 -0.6171875 -2.21875 -0.6171875 0 0 Z " fill="#000000" transform="translate(17.21875,7.6171875)"/>
<path d="M0 0 C2.97 0.33 5.94 0.66 9 1 C9 1.99 9 2.98 9 4 C7.02 4 5.04 4 3 4 C2.67 7.3 2.34 10.6 2 14 C-0.1875 15.1875 -0.1875 15.1875 -3 16 C-5.8125 14.625 -5.8125 14.625 -8 13 C-7.67 11.35 -7.34 9.7 -7 8 C-5.02 7.67 -3.04 7.34 -1 7 C-0.67 4.69 -0.34 2.38 0 0 Z " fill="#000000" transform="translate(55,48)"/>
<path d="M0 0 C3.69418201 1.231394 5.35109746 3.20791354 8 6 C6.768606 9.69418201 4.79208646 11.35109746 2 14 C-1.69418201 12.768606 -3.35109746 10.79208646 -6 8 C-4.768606 4.30581799 -2.79208646 2.64890254 0 0 Z M0 6 C0.66 6.66 1.32 7.32 2 8 C2 7.34 2 6.68 2 6 C1.34 6 0.68 6 0 6 Z " fill="#000000" transform="translate(50,10)"/>
<path d="M0 0 C1.32 0.66 2.64 1.32 4 2 C4 2.66 4 3.32 4 4 C5.32 4.66 6.64 5.32 8 6 C6.8671531 9.3985407 5.73466472 10.73413495 3 13 C-1 13 -1 13 -3.25 11.25 C-5 9 -5 9 -5 5 C-2.5 2.25 -2.5 2.25 0 0 Z " fill="#000000" transform="translate(5,50)"/>
<path d="M0 0 C0.99 0.99 1.98 1.98 3 3 C1.68 3.33 0.36 3.66 -1 4 C-0.67 2.68 -0.34 1.36 0 0 Z " fill="#000000" transform="translate(31,0)"/>
<path d="M0 0 C0.99 0 1.98 0 3 0 C3 0.99 3 1.98 3 3 C1.68 2.67 0.36 2.34 -1 2 C-0.67 1.34 -0.34 0.68 0 0 Z " fill="#000000" transform="translate(36,40)"/>
</svg>
