<?xml version="1.0" encoding="UTF-8"?>
<svg version="1.1" xmlns="http://www.w3.org/2000/svg" width="64" height="64">
<path d="M0 0 C4.3721542 3.69951509 6.38474212 7.96385208 6.9296875 13.5390625 C7.05219149 19.21508089 6.04330444 23.27143556 3.7265625 28.4609375 C3.3965625 28.7909375 3.0665625 29.1209375 2.7265625 29.4609375 C3.7165625 29.9559375 3.7165625 29.9559375 4.7265625 30.4609375 C4.7265625 31.4509375 4.7265625 32.4409375 4.7265625 33.4609375 C3.41598857 33.82216631 2.10302626 34.17474061 0.7890625 34.5234375 C0.05816406 34.72066406 -0.67273437 34.91789062 -1.42578125 35.12109375 C-2.03550781 35.23324219 -2.64523438 35.34539063 -3.2734375 35.4609375 C-5.24166636 33.49270864 -4.93592131 30.11285041 -5.2734375 27.4609375 C-9.80241767 29.89165121 -9.80241767 29.89165121 -12.1484375 34.2109375 C-12.1896875 34.9534375 -12.2309375 35.6959375 -12.2734375 36.4609375 C-8.9734375 36.4609375 -5.6734375 36.4609375 -2.2734375 36.4609375 C-2.078125 43.296875 -2.078125 43.296875 -2.2734375 45.4609375 C-2.9334375 46.1209375 -3.5934375 46.7809375 -4.2734375 47.4609375 C-5.2634375 47.4609375 -6.2534375 47.4609375 -7.2734375 47.4609375 C-7.6034375 48.7809375 -7.9334375 50.1009375 -8.2734375 51.4609375 C-11.5734375 51.4609375 -14.8734375 51.4609375 -18.2734375 51.4609375 C-18.2734375 50.1409375 -18.2734375 48.8209375 -18.2734375 47.4609375 C-19.0778125 47.3165625 -19.8821875 47.1721875 -20.7109375 47.0234375 C-23.2734375 46.4609375 -23.2734375 46.4609375 -24.2734375 45.4609375 C-24.32766697 44.0238566 -24.36633473 42.58618288 -24.3984375 41.1484375 C-24.7918561 36.40028201 -26.24868834 33.41742595 -28.7734375 29.3984375 C-32.81648906 22.91461149 -34.04416484 17.92055908 -32.7734375 10.3984375 C-31.0611024 4.72845372 -27.28484613 0.15039808 -22.12890625 -2.7421875 C-14.13709794 -5.82134306 -7.00632775 -4.82906255 0 0 Z M-25.0234375 3.6484375 C-28.31314847 7.76057621 -30.29915869 11.4104046 -30.25390625 16.77734375 C-29.22249933 23.83851419 -26.05216667 31.15326503 -21.2734375 36.4609375 C-18.11522925 36.91019524 -18.11522925 36.91019524 -15.2734375 36.4609375 C-14.77174335 33.63020314 -14.77174335 33.63020314 -15.2734375 30.4609375 C-18.05514646 28.38387268 -18.05514646 28.38387268 -21.2734375 26.4609375 C-24.89719842 21.66190277 -26.41356675 18.25088942 -26.3359375 12.2734375 C-26.32691406 11.37238281 -26.31789063 10.47132812 -26.30859375 9.54296875 C-26.29699219 8.85589844 -26.28539062 8.16882812 -26.2734375 7.4609375 C-17.70200893 10.31808036 -17.70200893 10.31808036 -14.2734375 14.4609375 C-12.06894317 13.43742228 -10.23500209 12.4299412 -8.3359375 10.8984375 C-5.97745703 9.25464808 -4.09595321 8.85295357 -1.2734375 8.4609375 C0.29585505 11.5995226 0.00372743 13.96865941 -0.2734375 17.4609375 C-1.40313739 20.56884549 -2.77667525 23.51418683 -4.2734375 26.4609375 C-3.2834375 26.4609375 -2.2934375 26.4609375 -1.2734375 26.4609375 C-0.9434375 27.1209375 -0.6134375 27.7809375 -0.2734375 28.4609375 C3.23333755 22.9720722 4.27410949 19.03150141 3.7265625 12.4609375 C1.92363822 7.21873919 -0.48307635 3.42639917 -5.2734375 0.4609375 C-12.95407343 -2.67401594 -18.52670268 -1.51941974 -25.0234375 3.6484375 Z M-24.2734375 10.4609375 C-24.15296332 15.48799667 -24.02756513 18.55966301 -20.7109375 22.5234375 C-19.9065625 23.1628125 -19.1021875 23.8021875 -18.2734375 24.4609375 C-18.2734375 23.1409375 -18.2734375 21.8209375 -18.2734375 20.4609375 C-17.2834375 20.7909375 -16.2934375 21.1209375 -15.2734375 21.4609375 C-15.68778657 16.62686498 -17.65137704 14.56556076 -21.2734375 11.4609375 C-22.2634375 11.1309375 -23.2534375 10.8009375 -24.2734375 10.4609375 Z M-5.2734375 11.4609375 C-11.30299804 17.43829391 -11.30299804 17.43829391 -13.2734375 25.4609375 C-11.73177108 24.08608218 -11.73177108 24.08608218 -10.2734375 22.4609375 C-10.2734375 21.8009375 -10.2734375 21.1409375 -10.2734375 20.4609375 C-9.6134375 20.7909375 -8.9534375 21.1209375 -8.2734375 21.4609375 C-7.6484375 23.5234375 -7.6484375 23.5234375 -7.2734375 25.4609375 C-3.95785235 21.07580875 -2.72347097 18.08635591 -2.2734375 12.4609375 C-3.2634375 12.1309375 -4.2534375 11.8009375 -5.2734375 11.4609375 Z M-21.2734375 39.4609375 C-20.9434375 41.1109375 -20.6134375 42.7609375 -20.2734375 44.4609375 C-15.3234375 44.4609375 -10.3734375 44.4609375 -5.2734375 44.4609375 C-5.2734375 42.8109375 -5.2734375 41.1609375 -5.2734375 39.4609375 C-10.5534375 39.4609375 -15.8334375 39.4609375 -21.2734375 39.4609375 Z M-15.2734375 47.4609375 C-15.2734375 47.7909375 -15.2734375 48.1209375 -15.2734375 48.4609375 C-13.6234375 48.4609375 -11.9734375 48.4609375 -10.2734375 48.4609375 C-10.2734375 48.1309375 -10.2734375 47.8009375 -10.2734375 47.4609375 C-11.9234375 47.4609375 -13.5734375 47.4609375 -15.2734375 47.4609375 Z " fill="#000000" transform="translate(45.2734375,10.5390625)"/>
<path d="M0 0 C0.99 0 1.98 0 3 0 C2.67 1.32 2.34 2.64 2 4 C0.68 4.33 -0.64 4.66 -2 5 C-1.34 3.35 -0.68 1.7 0 0 Z " fill="#000000" transform="translate(43,2)"/>
<path d="M0 0 C2.475 0.99 2.475 0.99 5 2 C5 2.99 5 3.98 5 5 C2.525 4.01 2.525 4.01 0 3 C0 2.01 0 1.02 0 0 Z " fill="#000000" transform="translate(51,35)"/>
<path d="M0 0 C1.65 0 3.3 0 5 0 C5.33 0.99 5.66 1.98 6 3 C4.02 3 2.04 3 0 3 C0 2.01 0 1.02 0 0 Z " fill="#000000" transform="translate(6,19)"/>
<path d="M0 0 C0 0.99 0 1.98 0 3 C-1.65 3.33 -3.3 3.66 -5 4 C-5 3.01 -5 2.02 -5 1 C-3 0 -3 0 0 0 Z " fill="#000000" transform="translate(58,17)"/>
<path d="M0 0 C1.32 0.33 2.64 0.66 4 1 C4.33 2.32 4.66 3.64 5 5 C3.68 4.67 2.36 4.34 1 4 C0.67 2.68 0.34 1.36 0 0 Z " fill="#000000" transform="translate(17,3)"/>
<path d="M0 0 C0 0.99 0 1.98 0 3 C-1.65 3.33 -3.3 3.66 -5 4 C-5 3.01 -5 2.02 -5 1 C-3 0 -3 0 0 0 Z " fill="#000000" transform="translate(14,37)"/>
</svg>
