<?xml version="1.0" encoding="UTF-8"?>
<svg version="1.1" xmlns="http://www.w3.org/2000/svg" width="64" height="64">
<path d="M0 0 C0 0.99 0 1.98 0 3 C-1.06927734 2.83951172 -1.06927734 2.83951172 -2.16015625 2.67578125 C-8.46104219 1.88711047 -12.51839911 1.64391782 -18 5 C-21.83874919 8.63124923 -23.69073065 12.75208578 -24 18 C-23.2573026 22.26277362 -21.73594435 25.20097471 -18.8125 28.375 C-14.61471941 30.80038434 -10.75730031 32.48040078 -5.84765625 31.625 C-0.17765603 29.7666759 2.44058918 26.821791 5.3125 21.625 C6.50136181 17.08570946 5.76816567 13.37629683 3.5 9.3125 C3.005 8.549375 2.51 7.78625 2 7 C1.3125 4.6875 1.3125 4.6875 1 3 C2.75 3.0625 2.75 3.0625 5 4 C9.15730461 9.19663076 9.5458342 13.60880558 9.33984375 20.17578125 C8.9058413 23.78249126 8.00071436 25.99892846 6 29 C6.99 29 7.98 29 9 29 C8.505 30.485 8.505 30.485 8 32 C5.71148682 33.00614929 5.71148682 33.00614929 2.64160156 33.90112305 C1.49661194 34.24124924 0.35162231 34.58137543 -0.82806396 34.93180847 C-2.07589661 35.28817886 -3.32372925 35.64454926 -4.609375 36.01171875 C-5.8966035 36.38768092 -7.18356744 36.76454998 -8.47027588 37.14228821 C-11.17168259 37.93246674 -13.87535769 38.71414428 -16.58105469 39.48950195 C-20.04274364 40.48183115 -23.49926913 41.49086994 -26.95437241 42.50586224 C-29.61402098 43.28588786 -32.27565549 44.05893862 -34.93799591 44.82972145 C-36.83154004 45.37864955 -38.72385579 45.93180926 -40.6161499 46.48503113 C-41.77374817 46.81570084 -42.93134644 47.14637054 -44.12402344 47.48706055 C-45.14026794 47.78001511 -46.15651245 48.07296967 -47.20355225 48.37480164 C-49.90658406 48.97911511 -52.24192514 49.12228336 -55 49 C-54.67 48.01 -54.34 47.02 -54 46 C-53.34 46 -52.68 46 -52 46 C-51.89405518 45.40501709 -51.78811035 44.81003418 -51.67895508 44.19702148 C-50.45077645 37.65584249 -48.74783534 31.38777457 -46.6875 25.0625 C-46.40455078 24.13115234 -46.12160156 23.19980469 -45.83007812 22.24023438 C-43.63318811 15.49368744 -43.63318811 15.49368744 -40.26953125 12.87109375 C-39.52058594 12.58363281 -38.77164063 12.29617187 -38 12 C-38.185625 11.38125 -38.37125 10.7625 -38.5625 10.125 C-39 8 -39 8 -38 6 C-36.35 6 -34.7 6 -33 6 C-32.67 7.65 -32.34 9.3 -32 11 C-29.71658257 11.67154684 -29.71658257 11.67154684 -27 11 C-25.72817143 9.33027881 -25.72817143 9.33027881 -24.625 7.25 C-19.35338397 -1.89828136 -9.65950619 -3.2198354 0 0 Z M-39 16 C-41.38314183 19.20807554 -42.43768609 22.06380262 -43 26 C-42.01 26.33 -41.02 26.66 -40 27 C-39.566875 26.0409375 -39.566875 26.0409375 -39.125 25.0625 C-38 23 -38 23 -36 22 C-36.33 23.98 -36.66 25.96 -37 28 C-35.35 28.33 -33.7 28.66 -32 29 C-32 32.3 -32 35.6 -32 39 C-28.7928324 40.6035838 -26.29662827 39.15457355 -22.9375 38.1875 C-21.03291016 37.65189453 -21.03291016 37.65189453 -19.08984375 37.10546875 C-15.89370322 36.36365692 -15.89370322 36.36365692 -15 34 C-15.54269531 33.70867188 -16.08539063 33.41734375 -16.64453125 33.1171875 C-21.41889721 30.38160484 -24.09386126 28.3820388 -26 23 C-26.33 21.35 -26.66 19.7 -27 18 C-30.96 18.66 -34.92 19.32 -39 20 C-38.01 18.68 -37.02 17.36 -36 16 C-36.99 16 -37.98 16 -39 16 Z M-39 31 C-37.35 32.32 -35.7 33.64 -34 35 C-34.33 33.68 -34.66 32.36 -35 31 C-36.32 31 -37.64 31 -39 31 Z M-45 33 C-45.33 34.32 -45.66 35.64 -46 37 C-45.34 35.68 -44.68 34.36 -44 33 C-44.33 33 -44.66 33 -45 33 Z M-41 34 C-42.62507196 36.8331162 -42.62507196 36.8331162 -44 40 C-43.67 40.99 -43.34 41.98 -43 43 C-42.34 43 -41.68 43 -41 43 C-39.31369881 39.48966871 -39.31369881 39.48966871 -39.375 35.6875 C-39.58125 35.130625 -39.7875 34.57375 -40 34 C-40.33 34 -40.66 34 -41 34 Z M-36 35 C-35 37 -35 37 -35 37 Z M-47 37 C-46 40 -46 40 -46 40 Z " fill="#000000" transform="translate(55,8)"/>
</svg>
