<?xml version="1.0" encoding="UTF-8"?>
<svg version="1.1" xmlns="http://www.w3.org/2000/svg" width="64" height="64">
<path d="M0 0 C9.24 0 18.48 0 28 0 C28.495 2.475 28.495 2.475 29 5 C30.0209375 6.60875 30.0209375 6.60875 31.0625 8.25 C33.60106162 12.40151052 33.38643608 16.26615801 33 21 C32.01 21 31.02 21 30 21 C29.89042969 20.32453125 29.78085937 19.6490625 29.66796875 18.953125 C29.50941406 18.06109375 29.35085937 17.1690625 29.1875 16.25 C29.03667969 15.36828125 28.88585938 14.4865625 28.73046875 13.578125 C27.87446524 10.55693616 27.38417812 9.08142534 25 7 C22.11254132 6.36593357 19.26099288 6.30321316 16.3125 6.25 C15.11657227 6.20552734 15.11657227 6.20552734 13.89648438 6.16015625 C11.93153251 6.08955918 9.96576023 6.04250292 8 6 C8 5.01 8 4.02 8 3 C7.01 3 6.02 3 5 3 C5.33 3.99 5.66 4.98 6 6 C5.01 6.33 4.02 6.66 3 7 C-1.46246454 12.06158234 -1.6004973 16.41970398 -1.609375 22.9921875 C-1.62591125 23.93812775 -1.64244751 24.88406799 -1.65948486 25.8586731 C-1.70786315 28.86418212 -1.72931338 31.86918552 -1.75 34.875 C-1.77816816 36.91929613 -1.80809677 38.96356881 -1.83984375 41.0078125 C-1.91691753 46.00543863 -1.95753171 51.00148204 -2 56 C8.56 56 19.12 56 30 56 C30 45.11 30 34.22 30 23 C30.99 23 31.98 23 33 23 C33.1238948 27.89289165 33.21447509 32.78486427 33.2746582 37.67895508 C33.29975347 39.34252839 33.33383796 41.00599196 33.37719727 42.66918945 C33.4380746 45.06489153 33.46625769 47.45913251 33.48828125 49.85546875 C33.51408768 50.5952446 33.5398941 51.33502045 33.56648254 52.09721375 C33.56867178 56.15708339 33.17719055 57.78845457 30.53198242 60.9465332 C29.69642822 61.62417725 28.86087402 62.30182129 28 63 C27.67 63.33 27.34 63.66 27 64 C22.75829302 64.33793349 18.50343082 64.32511968 14.25 64.375 C13.05632813 64.41238281 11.86265625 64.44976562 10.6328125 64.48828125 C1.99384606 64.57525071 1.99384606 64.57525071 -0.90820312 62.89550781 C-2.265625 61.5390625 -2.265625 61.5390625 -4 59 C-4.33 58.67 -4.66 58.34 -5 58 C-5.11364574 56.59498748 -5.15952343 55.18439518 -5.17700195 53.77490234 C-5.18983719 52.87661713 -5.20267242 51.97833191 -5.21589661 51.05282593 C-5.22328354 50.07375275 -5.23067047 49.09467957 -5.23828125 48.0859375 C-5.246353 47.0829361 -5.25442474 46.07993469 -5.26274109 45.04653931 C-5.27660444 42.9162978 -5.28731646 40.78603387 -5.29516602 38.65576172 C-5.31231827 35.40939533 -5.35617735 32.16406311 -5.40039062 28.91796875 C-5.41052248 26.84896583 -5.41903704 24.77995424 -5.42578125 22.7109375 C-5.44328934 21.7440097 -5.46079742 20.77708191 -5.47883606 19.78085327 C-5.4589064 13.53268357 -4.38376642 10.22396077 -1 5 C-0.67 3.35 -0.34 1.7 0 0 Z M2 59 C2.99 60.485 2.99 60.485 4 62 C6.09073276 62.46398705 6.09073276 62.46398705 8.5 62.3984375 C9.386875 62.40230469 10.27375 62.40617187 11.1875 62.41015625 C12.115625 62.39855469 13.04375 62.38695312 14 62.375 C14.928125 62.38660156 15.85625 62.39820313 16.8125 62.41015625 C18.1428125 62.40435547 18.1428125 62.40435547 19.5 62.3984375 C20.3146875 62.39505371 21.129375 62.39166992 21.96875 62.38818359 C22.97421875 62.19603271 22.97421875 62.19603271 24 62 C24.66 61.01 25.32 60.02 26 59 C18.08 59 10.16 59 2 59 Z " fill="#000000" transform="translate(18,0)"/>
<path d="M0 0 C3.96 0 7.92 0 12 0 C11.67 1.65 11.34 3.3 11 5 C12.65 5.66 14.3 6.32 16 7 C15.67 8.65 15.34 10.3 15 12 C14.34 12 13.68 12 13 12 C13.2371875 12.74636719 13.474375 13.49273437 13.71875 14.26171875 C14 17 14 17 12.59375 18.95703125 C11.55734375 19.87548828 11.55734375 19.87548828 10.5 20.8125 C6.92565675 24.11767205 3.70282531 27.53802167 0.54296875 31.23828125 C-0.92006281 32.90872994 -2.34091552 34.52273299 -4 36 C-4.66 36 -5.32 36 -6 36 C-5.53206219 31.32062188 -4.08287035 27.98161396 -1.921875 23.90234375 C-0.82703948 21.6430857 -0.31078735 19.4862988 0 17 C1.32 17 2.64 17 4 17 C4 18.65 4 20.3 4 22 C5.32 20.02 6.64 18.04 8 16 C6.02 15.34 4.04 14.68 2 14 C2.53115106 9.48521602 4.36620292 6.65333143 7 3 C4.597325 3.02793157 4.597325 3.02793157 2 4 C0.08649473 6.73663654 0.08649473 6.73663654 -1.3125 10.0625 C-1.82425781 11.16722656 -2.33601563 12.27195312 -2.86328125 13.41015625 C-3.23839844 14.26480469 -3.61351562 15.11945312 -4 16 C-3.34 16 -2.68 16 -2 16 C-2 16.99 -2 17.98 -2 19 C-3.98 18.67 -5.96 18.34 -8 18 C-7.39733215 13.49272353 -5.63400206 10.1412037 -3.4375 6.1875 C-2.9434668 5.2912793 -2.9434668 5.2912793 -2.43945312 4.37695312 C-1.63226733 2.91466002 -0.81695083 1.4568601 0 0 Z M9 6 C10 8 10 8 10 8 Z M8 8 C7.34 9.32 6.68 10.64 6 12 C8.97 12.495 8.97 12.495 12 13 C11.34 12.67 10.68 12.34 10 12 C8.875 9.9375 8.875 9.9375 8 8 Z " fill="#000000" transform="translate(29,17)"/>
<path d="M0 0 C8.58 0 17.16 0 26 0 C26 0.99 26 1.98 26 3 C17.42 3 8.84 3 0 3 C0 2.01 0 1.02 0 0 Z " fill="#000000" transform="translate(19,11)"/>
<path d="M0 0 C2.0625 0.4375 2.0625 0.4375 4 1 C4.625 2.875 4.625 2.875 5 5 C4.34 5.66 3.68 6.32 3 7 C1.68 7 0.36 7 -1 7 C-1 7.66 -1 8.32 -1 9 C-1.99 9 -2.98 9 -4 9 C-4 8.01 -4 7.02 -4 6 C-3.34 6 -2.68 6 -2 6 C-1.855625 5.195625 -1.71125 4.39125 -1.5625 3.5625 C-1 1 -1 1 0 0 Z " fill="#000000" transform="translate(21,36)"/>
<path d="M0 0 C1.32 0.66 2.64 1.32 4 2 C3.67 3.65 3.34 5.3 3 7 C1.35 7 -0.3 7 -2 7 C-2.33 5.35 -2.66 3.7 -3 2 C-2.01 1.34 -1.02 0.68 0 0 Z " fill="#000000" transform="translate(43,36)"/>
<path d="M0 0 C1.67542976 0.28604898 3.34385343 0.61781233 5 1 C5.625 2.875 5.625 2.875 6 5 C5.34 5.66 4.68 6.32 4 7 C1.875 6.625 1.875 6.625 0 6 C-0.38218767 4.34385343 -0.71395102 2.67542976 -1 1 C-0.67 0.67 -0.34 0.34 0 0 Z " fill="#000000" transform="translate(20,17)"/>
<path d="M0 0 C1.65 0.33 3.3 0.66 5 1 C5 2.65 5 4.3 5 6 C3.35 6.33 1.7 6.66 0 7 C-0.66 5.68 -1.32 4.36 -2 3 C-1.34 2.01 -0.68 1.02 0 0 Z " fill="#000000" transform="translate(36,42)"/>
<path d="M0 0 C0.99 0 1.98 0 3 0 C3 0.99 3 1.98 3 3 C2.01 3 1.02 3 0 3 C0 2.01 0 1.02 0 0 Z " fill="#000000" transform="translate(43,45)"/>
<path d="M0 0 C0.99 0 1.98 0 3 0 C3 0.99 3 1.98 3 3 C2.01 3 1.02 3 0 3 C0 2.01 0 1.02 0 0 Z " fill="#000000" transform="translate(20,45)"/>
<path d="M0 0 C0.99 0 1.98 0 3 0 C2.67 0.99 2.34 1.98 2 3 C1.34 3 0.68 3 0 3 C0 2.01 0 1.02 0 0 Z " fill="#000000" transform="translate(18,24)"/>
<path d="M0 0 C0.99 0 1.98 0 3 0 C2.67 0.99 2.34 1.98 2 3 C1.34 2.67 0.68 2.34 0 2 C0 1.34 0 0.68 0 0 Z " fill="#000000" transform="translate(44,21)"/>
</svg>
