<?xml version="1.0" encoding="UTF-8"?>
<svg version="1.1" xmlns="http://www.w3.org/2000/svg" width="64" height="64">
<path d="M0 0 C2.04931641 -0.3742218 2.04931641 -0.3742218 4.6015625 -0.37231445 C6.03314697 -0.38165764 6.03314697 -0.38165764 7.49365234 -0.39118958 C9.04366943 -0.37737495 9.04366943 -0.37737495 10.625 -0.36328125 C11.68283691 -0.36377975 12.74067383 -0.36427826 13.83056641 -0.36479187 C16.07000606 -0.36244845 18.3094482 -0.35270429 20.54882812 -0.33618164 C23.98591547 -0.31259665 27.42222738 -0.31561785 30.859375 -0.32226562 C33.03125465 -0.31668895 35.20313101 -0.30957914 37.375 -0.30078125 C38.40834473 -0.30169266 39.44168945 -0.30260406 40.50634766 -0.30354309 C41.93793213 -0.28924507 41.93793213 -0.28924507 43.3984375 -0.2746582 C44.24067871 -0.27005081 45.08291992 -0.26544342 45.95068359 -0.26069641 C48 0 48 0 50 2 C50.4140625 4.3828125 50.4140625 4.3828125 50.625 7.125 C50.69976562 8.03507813 50.77453125 8.94515625 50.8515625 9.8828125 C50.90054688 10.58148438 50.94953125 11.28015625 51 12 C51.4434375 11.51402344 51.886875 11.02804687 52.34375 10.52734375 C54 9 54 9 56.5 8.5625 C59 9 59 9 60.9375 10.625 C62 13 62 13 61.3515625 15.73046875 C60.09536578 18.76930301 58.55032082 21.16615688 56.67407227 23.84716797 C49.24106863 34.90935581 49.84755321 46.6079685 50.17602539 59.54833984 C50 62 50 62 48 64 C45.95068359 64.26069641 45.95068359 64.26069641 43.3984375 64.2746582 C42.44404785 64.28419022 41.4896582 64.29372223 40.50634766 64.30354309 C39.47300293 64.30263168 38.4396582 64.30172028 37.375 64.30078125 C35.78824463 64.30720894 35.78824463 64.30720894 34.16943359 64.31376648 C31.93002031 64.31951656 29.69058835 64.32000508 27.45117188 64.31567383 C24.01400097 64.31251288 20.57768945 64.3359687 17.140625 64.36132812 C14.96875109 64.36360084 12.79687486 64.36430474 10.625 64.36328125 C9.59165527 64.372491 8.55831055 64.38170074 7.49365234 64.39118958 C6.5392627 64.38496078 5.58487305 64.37873199 4.6015625 64.37231445 C3.75932129 64.37294388 2.91708008 64.3735733 2.04931641 64.3742218 C1.37304199 64.25072861 0.69676758 64.12723541 0 64 C-2.27200772 60.59198842 -2.25251474 59.3837657 -2.25878906 55.3828125 C-2.26509338 54.23151855 -2.27139771 53.08022461 -2.27789307 51.89404297 C-2.2738446 50.65025879 -2.26979614 49.40647461 -2.265625 48.125 C-2.26753845 46.84898926 -2.2694519 45.57297852 -2.27142334 44.25830078 C-2.27278548 41.55813071 -2.27008891 38.85832169 -2.26074219 36.15820312 C-2.2493477 32.6979417 -2.25590913 29.23799053 -2.26788712 25.77774048 C-2.2768534 22.47681586 -2.27057493 19.17592867 -2.265625 15.875 C-2.26967346 14.63121582 -2.27372192 13.38743164 -2.27789307 12.10595703 C-2.27158875 10.95466309 -2.26528442 9.80336914 -2.25878906 8.6171875 C-2.25719788 7.60253418 -2.25560669 6.58788086 -2.25396729 5.54248047 C-2 3 -2 3 0 0 Z M2 3 C2 22.14 2 41.28 2 61 C16.52 61 31.04 61 46 61 C46 55.39 46 49.78 46 44 C44.19764573 45.80235427 42.41831951 47.62884377 40.6875 49.5 C37.93923818 52.05652263 35.41544115 53.49085159 32 55 C32.66 50.71 33.32 46.42 34 42 C28.39 41.67 22.78 41.34 17 41 C16.67 40.34 16.34 39.68 16 39 C16.55349121 39.08902588 17.10698242 39.17805176 17.67724609 39.26977539 C28.21576463 40.90638328 28.21576463 40.90638328 37.92871094 37.63769531 C39.6696069 35.75878237 40.95451119 33.89582168 42.25 31.6875 C42.64880371 31.03724854 43.04760742 30.38699707 43.45849609 29.71704102 C47.77602752 20.96531507 46 13.26139146 46 3 C31.48 3 16.96 3 2 3 Z M56 12 C56 12.99 56 13.98 56 15 C56.66 15 57.32 15 58 15 C57.67 14.01 57.34 13.02 57 12 C56.67 12 56.34 12 56 12 Z M53 17 C49.03282229 22.60072148 45.48633747 28.4316844 42.0625 34.375 C41.6487915 35.07689453 41.23508301 35.77878906 40.80883789 36.50195312 C39.79209476 38.29124816 38.88682556 40.14288295 38 42 C38.33 42.99 38.66 43.98 39 45 C39.66 45 40.32 45 41 45 C43.1536528 41.25443921 45.29654726 37.50283234 47.4375 33.75 C48.35499023 32.15478516 48.35499023 32.15478516 49.29101562 30.52734375 C49.87431641 29.50253906 50.45761719 28.47773438 51.05859375 27.421875 C51.59798584 26.47924805 52.13737793 25.53662109 52.69311523 24.56542969 C53.83208229 22.32962437 54.53372922 20.44981189 55 18 C54.34 17.67 53.68 17.34 53 17 Z M36 47 C37 49 37 49 37 49 Z " fill="#000000" transform="translate(2,0)"/>
<path d="M0 0 C4.66666667 0 9.33333333 0 14 0 C13.814375 0.5775 13.62875 1.155 13.4375 1.75 C12.95261433 4.24369772 13.30093578 5.59211213 14 8 C14 8.99 14 9.98 14 11 C12.00045254 11.04254356 9.99958364 11.04080783 8 11 C7 10 7 10 6.9375 6.4375 C6.958125 5.303125 6.97875 4.16875 7 3 C6.34 3 5.68 3 5 3 C5 5.64 5 8.28 5 11 C3.68 11 2.36 11 1 11 C1 8.36 1 5.72 1 3 C0.34 3 -0.32 3 -1 3 C-0.67 2.01 -0.34 1.02 0 0 Z " fill="#000000" transform="translate(11,5)"/>
<path d="M0 0 C2.97 0 5.94 0 9 0 C9.04241723 2.33294775 9.04092937 4.66702567 9 7 C8 8 8 8 4.5 8.125 C1 8 1 8 0 7 C-0.04092937 4.66702567 -0.04241723 2.33294775 0 0 Z M4 3 C5 5 5 5 5 5 Z " fill="#000000" transform="translate(8,47)"/>
<path d="M0 0 C2.97 0 5.94 0 9 0 C9.04241723 2.33294775 9.04092937 4.66702567 9 7 C8 8 8 8 4.5 8.125 C1 8 1 8 0 7 C-0.04092937 4.66702567 -0.04241723 2.33294775 0 0 Z M4 3 C5 5 5 5 5 5 Z " fill="#000000" transform="translate(8,34)"/>
<path d="M0 0 C2.97 0 5.94 0 9 0 C9.04241723 2.33294775 9.04092937 4.66702567 9 7 C8 8 8 8 4.5 8.125 C1 8 1 8 0 7 C-0.04092937 4.66702567 -0.04241723 2.33294775 0 0 Z M4 3 C5 5 5 5 5 5 Z " fill="#000000" transform="translate(8,21)"/>
<path d="M0 0 C0.78375 0.04125 1.5675 0.0825 2.375 0.125 C2.16875 0.681875 1.9625 1.23875 1.75 1.8125 C1.26878932 4.77996587 2.22694736 6.39837498 3.375 9.125 C3.045 9.785 2.715 10.445 2.375 11.125 C0.065 11.125 -2.245 11.125 -4.625 11.125 C-4.439375 10.568125 -4.25375 10.01125 -4.0625 9.4375 C-3.45963761 7.06891319 -3.45963761 7.06891319 -4.1875 4.5 C-4.331875 3.71625 -4.47625 2.9325 -4.625 2.125 C-2.625 0.125 -2.625 0.125 0 0 Z " fill="#000000" transform="translate(30.625,4.875)"/>
<path d="M0 0 C6.6 0 13.2 0 20 0 C20 0.99 20 1.98 20 3 C13.73 3 7.46 3 1 3 C0.67 2.01 0.34 1.02 0 0 Z " fill="#000000" transform="translate(18,26)"/>
<path d="M0 0 C2.31 0 4.62 0 7 0 C7 0.99 7 1.98 7 3 C6.34 3 5.68 3 5 3 C5 5.64 5 8.28 5 11 C3.68 11 2.36 11 1 11 C1 8.36 1 5.72 1 3 C0.34 3 -0.32 3 -1 3 C-0.67 2.01 -0.34 1.02 0 0 Z " fill="#000000" transform="translate(35,5)"/>
<path d="M0 0 C4.62 0 9.24 0 14 0 C14 0.99 14 1.98 14 3 C9.71 3 5.42 3 1 3 C0.67 2.01 0.34 1.02 0 0 Z " fill="#000000" transform="translate(18,52)"/>
<path d="M0 0 C0.99 0 1.98 0 3 0 C3 0.99 3 1.98 3 3 C2.01 3 1.02 3 0 3 C0 2.01 0 1.02 0 0 Z " fill="#000000" transform="translate(40,26)"/>
</svg>
