<?xml version="1.0" encoding="UTF-8"?>
<svg version="1.1" xmlns="http://www.w3.org/2000/svg" width="64" height="64">
<path d="M0 0 C-0.144375 0.94875 -0.28875 1.8975 -0.4375 2.875 C-0.62512497 4.24998295 -0.8126086 5.6249852 -1 7 C-1.13019531 7.84175781 -1.26039062 8.68351563 -1.39453125 9.55078125 C-1.51183594 10.42089844 -1.62914063 11.29101562 -1.75 12.1875 C-1.86859375 13.00605469 -1.9871875 13.82460937 -2.109375 14.66796875 C-1.97092858 17.6198443 -0.93375335 18.83200333 1 21 C3.44480079 20.81171228 3.44480079 20.81171228 6 20 C7.36020151 18.03241727 7.36020151 18.03241727 8 16 C9.75 16.0625 9.75 16.0625 12 17 C16.45738716 22.69555026 16.71699723 27.91230609 16 35 C15.505 35.99 15.505 35.99 15 37 C15.763125 36.67 16.52625 36.34 17.3125 36 C20 35 20 35 23 35 C23.61055269 42.57085336 22.30752773 47.68994122 18 54 C12.36802703 60.40051512 6.72335821 63.55749592 -1.7109375 64.34765625 C-11.10964799 64.82195442 -18.4537113 63.65935554 -25.83203125 57.4609375 C-31.45990832 51.68243598 -33.13626424 44.38188818 -33.25 36.5 C-33.17105263 32.34210526 -33.17105263 32.34210526 -32 30 C-28.68273845 30.57194165 -27.27364177 31.57000464 -25 34 C-24.87044922 32.54980469 -24.87044922 32.54980469 -24.73828125 31.0703125 C-23.87832311 23.101893 -22.96561225 15.6306395 -18 9 C-17.01 8.67 -16.02 8.34 -15 8 C-14.67 7.01 -14.34 6.02 -14 5 C-13.34 5.33 -12.68 5.66 -12 6 C-12 6.99 -12 7.98 -12 9 C-12.66 9 -13.32 9 -14 9 C-17.95772773 18.74209904 -20.18534143 26.39435171 -20 37 C-16.88535757 31.75741484 -14.39331247 26.95324421 -13 21 C-8.85616595 21.76737668 -5.34898994 23.15769012 -2.79296875 26.6484375 C-1.0486971 29.56993843 0 31.55872304 0 35 C0.66 35 1.32 35 2 35 C2 34.34 2 33.68 2 33 C2.99 32.67 3.98 32.34 5 32 C8.04289599 36.28771708 9.41704354 40.81168755 10 46 C9.67 46.99 9.34 47.98 9 49 C8.01 48.67 7.02 48.34 6 48 C5.26953125 45.93359375 5.26953125 45.93359375 4.8125 43.4375 C4.57466797 42.19806641 4.57466797 42.19806641 4.33203125 40.93359375 C4.22246094 40.29550781 4.11289062 39.65742187 4 39 C1.69 39.66 -0.62 40.32 -3 41 C-3.08636719 40.40832031 -3.17273438 39.81664062 -3.26171875 39.20703125 C-3.40222656 38.41683594 -3.54273437 37.62664063 -3.6875 36.8125 C-3.81511719 36.03519531 -3.94273438 35.25789063 -4.07421875 34.45703125 C-5.3213148 31.14722781 -7.41353853 29.35246818 -10 27 C-11.34287473 29.74569923 -12.67446996 32.49594266 -14 35.25 C-14.3815625 36.02730469 -14.763125 36.80460937 -15.15625 37.60546875 C-15.5171875 38.35957031 -15.878125 39.11367188 -16.25 39.890625 C-16.75273438 40.92751465 -16.75273438 40.92751465 -17.265625 41.98535156 C-18.22831619 44.26896454 -18.22831619 44.26896454 -18 48 C-17.62875 46.948125 -17.2575 45.89625 -16.875 44.8125 C-15.07293254 40.59051338 -12.76399948 38.58774964 -9 36 C-8.01 36 -7.02 36 -6 36 C-6 38.64 -6 41.28 -6 44 C-2.62182575 44.84454356 -0.32534757 45.10844919 3 44 C6 48.75 6 48.75 6 51 C6.99 51.33 7.98 51.66 9 52 C8.34 53.65 7.68 55.3 7 57 C12.27126283 54.05789981 15.53718744 50.57946917 18 45 C18 43.68 18 42.36 18 41 C15.69 41 13.38 41 11 41 C11.08378906 40.04738281 11.16757812 39.09476563 11.25390625 38.11328125 C11.35574219 36.85902344 11.45757812 35.60476562 11.5625 34.3125 C11.66691406 33.07113281 11.77132812 31.82976563 11.87890625 30.55078125 C11.98493841 27.44164467 11.77228525 24.99189028 11 22 C10.505 22.495 10.01 22.99 9.5 23.5 C6.67181044 25.19691373 4.36622511 25.43779443 1.09765625 25.59375 C-2.36895035 24.61251312 -3.83626244 22.82405057 -6 20 C-6.36771245 17.1612599 -6.48630804 14.98179849 -6.3125 12.1875 C-6.28994141 11.49462891 -6.26738281 10.80175781 -6.24414062 10.08789062 C-6.18562661 8.39098427 -6.0959548 6.69520139 -6 5 C-7.32 5.33 -8.64 5.66 -10 6 C-10 4.68 -10 3.36 -10 2 C-6.5980513 -0.09350689 -3.94727588 -0.17942163 0 0 Z M-29 36 C-29.34637241 41.5419586 -28.73023021 46.08345263 -26 51 C-23.48937149 53.47998744 -23.48937149 53.47998744 -21 55 C-21.2784375 53.2675 -21.2784375 53.2675 -21.5625 51.5 C-22.1235724 47.13610352 -21.69632186 43.33266935 -21 39 C-23.64 38.01 -26.28 37.02 -29 36 Z M-11 42 C-13.54951552 45.16139924 -14.27479572 47.52608951 -14.0625 51.5 C-13.54763222 54.92101039 -12.75804947 56.78932307 -10.1875 59.125 C-7.31630343 61.11920551 -7.31630343 61.11920551 -4.9375 61.1875 C-1.8385508 59.28814404 -0.05585603 56.96956983 2 54 C2.42130907 51.24598049 2.42130907 51.24598049 2 49 C0.741875 49.061875 -0.51625 49.12375 -1.8125 49.1875 C-5.72911141 49.1805924 -5.72911141 49.1805924 -7.875 47.75 C-9.07323197 45.88608361 -10.09356523 44.0220468 -11 42 Z " fill="#000000" transform="translate(37,0)"/>
</svg>
