<?xml version="1.0" encoding="UTF-8"?>
<svg version="1.1" xmlns="http://www.w3.org/2000/svg" width="64" height="64">
<path d="M0 0 C1.4883163 0.00574353 2.97660671 0.01875734 4.46484375 0.03515625 C7.08421875 0.05578125 9.70359375 0.07640625 12.40234375 0.09765625 C12.40234375 5.70765625 12.40234375 11.31765625 12.40234375 17.09765625 C10.09234375 17.09765625 7.78234375 17.09765625 5.40234375 17.09765625 C5.40234375 19.22034323 5.41333107 21.34426051 5.5078125 23.46484375 C5.73395842 30.37844763 4.66121112 34.32247633 0.21484375 39.78515625 C-3.80783308 43.09269053 -7.63702919 45.10754148 -12.9375 45.08984375 C-16.13838248 44.75963624 -19.21104065 44.18552343 -22.34765625 43.47265625 C-25.00480948 43.02979738 -27.00653365 43.43136758 -29.59765625 44.09765625 C-29.59765625 45.41765625 -29.59765625 46.73765625 -29.59765625 48.09765625 C-27.94765625 48.09765625 -26.29765625 48.09765625 -24.59765625 48.09765625 C-24.59765625 50.40765625 -24.59765625 52.71765625 -24.59765625 55.09765625 C-27.07265625 55.59265625 -27.07265625 55.59265625 -29.59765625 56.09765625 C-29.59765625 57.41765625 -29.59765625 58.73765625 -29.59765625 60.09765625 C-31.90765625 60.09765625 -34.21765625 60.09765625 -36.59765625 60.09765625 C-36.92765625 58.77765625 -37.25765625 57.45765625 -37.59765625 56.09765625 C-39.24765625 55.76765625 -40.89765625 55.43765625 -42.59765625 55.09765625 C-42.59765625 53.11765625 -42.59765625 51.13765625 -42.59765625 49.09765625 C-40.12265625 48.60265625 -40.12265625 48.60265625 -37.59765625 48.09765625 C-37.59765625 46.77765625 -37.59765625 45.45765625 -37.59765625 44.09765625 C-38.48453125 43.85015625 -39.37140625 43.60265625 -40.28515625 43.34765625 C-44.86161307 41.62069141 -47.54155766 39.55434395 -50.41015625 35.59765625 C-52.33809019 29.91532465 -52.78470771 23.67795661 -50.87109375 17.90625 C-48.25845815 12.98897243 -44.75770801 10.03680919 -39.72265625 7.84765625 C-34.77686788 6.66066704 -30.89770822 6.68711352 -26.03515625 8.22265625 C-21.97183598 9.25695595 -20.44706276 8.54118369 -16.59765625 7.09765625 C-11.42492188 6.72145739 -7.45337113 7.5121167 -2.59765625 9.09765625 C-3.25765625 8.43765625 -3.91765625 7.77765625 -4.59765625 7.09765625 C-4.78515625 4.03515625 -4.78515625 4.03515625 -4.59765625 1.09765625 C-3.59765625 0.09765625 -3.59765625 0.09765625 0 0 Z M-1.59765625 3.09765625 C-1.59765625 3.75765625 -1.59765625 4.41765625 -1.59765625 5.09765625 C0.38234375 5.09765625 2.36234375 5.09765625 4.40234375 5.09765625 C1.86561803 9.56712538 -0.32843122 12.25150623 -4.59765625 15.09765625 C-3.11265625 16.08765625 -3.11265625 16.08765625 -1.59765625 17.09765625 C-1.11554687 16.52015625 -0.6334375 15.94265625 -0.13671875 15.34765625 C0.81074219 14.23390625 0.81074219 14.23390625 1.77734375 13.09765625 C2.71707031 11.98390625 2.71707031 11.98390625 3.67578125 10.84765625 C4.53042969 9.98140625 4.53042969 9.98140625 5.40234375 9.09765625 C6.06234375 9.09765625 6.72234375 9.09765625 7.40234375 9.09765625 C7.73234375 10.74765625 8.06234375 12.39765625 8.40234375 14.09765625 C8.73234375 14.09765625 9.06234375 14.09765625 9.40234375 14.09765625 C9.40234375 10.46765625 9.40234375 6.83765625 9.40234375 3.09765625 C5.77234375 3.09765625 2.14234375 3.09765625 -1.59765625 3.09765625 Z M-41.59765625 13.09765625 C-40.60765625 13.59265625 -40.60765625 13.59265625 -39.59765625 14.09765625 C-38.60765625 13.76765625 -37.61765625 13.43765625 -36.59765625 13.09765625 C-34.86970273 13.02962658 -33.1393026 13.0126998 -31.41015625 13.03515625 C-30.50910156 13.04417969 -29.60804687 13.05320312 -28.6796875 13.0625 C-27.99261719 13.07410156 -27.30554687 13.08570313 -26.59765625 13.09765625 C-28.37077214 10.91850271 -28.37077214 10.91850271 -30.62109375 10.83203125 C-31.39710937 10.8371875 -32.173125 10.84234375 -32.97265625 10.84765625 C-34.12894531 10.83992187 -34.12894531 10.83992187 -35.30859375 10.83203125 C-37.79689235 11.1207758 -39.43999823 11.85626396 -41.59765625 13.09765625 Z M-19.59765625 13.09765625 C-15.30765625 13.09765625 -11.01765625 13.09765625 -6.59765625 13.09765625 C-8.37872874 10.90825716 -8.37872874 10.90825716 -10.69140625 10.83203125 C-11.48546875 10.8371875 -12.27953125 10.84234375 -13.09765625 10.84765625 C-14.28875 10.83992187 -14.28875 10.83992187 -15.50390625 10.83203125 C-17.81658376 10.90825716 -17.81658376 10.90825716 -19.59765625 13.09765625 Z M-26.59765625 13.09765625 C-26.26765625 13.75765625 -25.93765625 14.41765625 -25.59765625 15.09765625 C-24.93765625 14.76765625 -24.27765625 14.43765625 -23.59765625 14.09765625 C-24.58765625 13.76765625 -25.57765625 13.43765625 -26.59765625 13.09765625 Z M-43.59765625 14.09765625 C-43.59765625 15.08765625 -43.59765625 16.07765625 -43.59765625 17.09765625 C-42.93765625 16.10765625 -42.27765625 15.11765625 -41.59765625 14.09765625 C-42.25765625 14.09765625 -42.91765625 14.09765625 -43.59765625 14.09765625 Z M-42.59765625 21.09765625 C-44.00766289 23.91766952 -43.84314076 25.9677288 -43.59765625 29.09765625 C-41.93003303 32.59172394 -40.85759603 33.92436306 -37.59765625 36.09765625 C-35.54056029 36.33821093 -35.54056029 36.33821093 -33.41015625 36.22265625 C-32.15203125 36.18140625 -30.89390625 36.14015625 -29.59765625 36.09765625 C-29.76007812 35.38738281 -29.9225 34.67710938 -30.08984375 33.9453125 C-30.60127094 31.07738616 -30.73075106 28.44523943 -30.72265625 25.53515625 C-30.72523437 24.60574219 -30.7278125 23.67632812 -30.73046875 22.71875 C-30.61075589 20.35618149 -30.26758858 18.35734862 -29.59765625 16.09765625 C-35.96436956 15.55810427 -38.43273408 15.79684621 -42.59765625 21.09765625 Z M-22.59765625 16.09765625 C-22.26765625 17.08765625 -21.93765625 18.07765625 -21.59765625 19.09765625 C-21.59765625 18.10765625 -21.59765625 17.11765625 -21.59765625 16.09765625 C-21.92765625 16.09765625 -22.25765625 16.09765625 -22.59765625 16.09765625 Z M-16.59765625 16.09765625 C-16.43265625 16.92265625 -16.26765625 17.74765625 -16.09765625 18.59765625 C-15.38871054 23.56027619 -14.99030875 28.27561376 -16.59765625 33.09765625 C-17.25765625 33.75765625 -17.91765625 34.41765625 -18.59765625 35.09765625 C-15.44854146 36.67221364 -13.07756809 36.44564743 -9.59765625 36.09765625 C-6.39152052 34.19772396 -4.19862707 32.76291618 -2.8984375 29.16015625 C-2.27242166 25.6060018 -2.39186596 23.57097391 -3.84765625 20.22265625 C-5.59791862 17.88828401 -5.59791862 17.88828401 -8.59765625 16.09765625 C-10.65475221 15.85710157 -10.65475221 15.85710157 -12.78515625 15.97265625 C-14.04328125 16.01390625 -15.30140625 16.05515625 -16.59765625 16.09765625 Z M-1.59765625 17.09765625 C-1.43394531 17.62875 -1.27023438 18.15984375 -1.1015625 18.70703125 C-0.48409248 21.63642389 -0.502637 24.35588561 -0.53515625 27.34765625 C-0.54417969 28.4253125 -0.55320313 29.50296875 -0.5625 30.61328125 C-0.57410156 31.433125 -0.58570313 32.25296875 -0.59765625 33.09765625 C0.06234375 32.76765625 0.72234375 32.43765625 1.40234375 32.09765625 C2.7872542 25.918825 2.31014123 22.68062741 -0.59765625 17.09765625 C-0.92765625 17.09765625 -1.25765625 17.09765625 -1.59765625 17.09765625 Z M-46.59765625 18.09765625 C-45.59765625 20.09765625 -45.59765625 20.09765625 -45.59765625 20.09765625 Z M-26.59765625 19.09765625 C-29.09815621 23.80447971 -28.66103455 27.02615976 -27.59765625 32.09765625 C-26.20272081 34.08608366 -26.20272081 34.08608366 -24.59765625 35.09765625 C-24.76136719 34.5665625 -24.92507812 34.03546875 -25.09375 33.48828125 C-25.71122002 30.55888861 -25.6926755 27.83942689 -25.66015625 24.84765625 C-25.65113281 23.77 -25.64210938 22.69234375 -25.6328125 21.58203125 C-25.62121094 20.7621875 -25.60960937 19.94234375 -25.59765625 19.09765625 C-25.92765625 19.09765625 -26.25765625 19.09765625 -26.59765625 19.09765625 Z M-20.59765625 19.09765625 C-20.59765625 23.71765625 -20.59765625 28.33765625 -20.59765625 33.09765625 C-18.37712763 31.29165864 -18.37712763 31.29165864 -18.33203125 28.78515625 C-18.3371875 27.89828125 -18.34234375 27.01140625 -18.34765625 26.09765625 C-18.3425 25.21078125 -18.33734375 24.32390625 -18.33203125 23.41015625 C-18.37712763 20.90365386 -18.37712763 20.90365386 -20.59765625 19.09765625 Z M-47.59765625 20.09765625 C-49.10699842 23.11634059 -48.77276297 25.77062854 -48.59765625 29.09765625 C-47.60765625 30.58265625 -47.60765625 30.58265625 -46.59765625 32.09765625 C-46.59765625 28.13765625 -46.59765625 24.17765625 -46.59765625 20.09765625 C-46.92765625 20.09765625 -47.25765625 20.09765625 -47.59765625 20.09765625 Z M-23.59765625 25.09765625 C-22.59765625 27.09765625 -22.59765625 27.09765625 -22.59765625 27.09765625 Z M-46.59765625 32.09765625 C-45.59765625 34.09765625 -45.59765625 34.09765625 -45.59765625 34.09765625 Z M-1.59765625 33.09765625 C-0.59765625 35.09765625 -0.59765625 35.09765625 -0.59765625 35.09765625 Z M-22.59765625 37.09765625 C-22.26765625 37.75765625 -21.93765625 38.41765625 -21.59765625 39.09765625 C-20.93765625 38.76765625 -20.27765625 38.43765625 -19.59765625 38.09765625 C-20.58765625 37.76765625 -21.57765625 37.43765625 -22.59765625 37.09765625 Z M-5.59765625 37.09765625 C-5.92765625 37.75765625 -6.25765625 38.41765625 -6.59765625 39.09765625 C-5.60765625 38.76765625 -4.61765625 38.43765625 -3.59765625 38.09765625 C-4.25765625 37.76765625 -4.91765625 37.43765625 -5.59765625 37.09765625 Z M-39.59765625 39.09765625 C-37.67219185 41.32126305 -37.67219185 41.32126305 -34.59765625 42.09765625 C-34.59765625 44.73765625 -34.59765625 47.37765625 -34.59765625 50.09765625 C-36.57765625 51.08765625 -36.57765625 51.08765625 -38.59765625 52.09765625 C-37.27765625 52.09765625 -35.95765625 52.09765625 -34.59765625 52.09765625 C-34.26765625 53.74765625 -33.93765625 55.39765625 -33.59765625 57.09765625 C-33.22640625 56.16953125 -33.22640625 56.16953125 -32.84765625 55.22265625 C-31.39136986 52.74696938 -30.21953119 52.14640623 -27.59765625 51.09765625 C-29.24765625 51.09765625 -30.89765625 51.09765625 -32.59765625 51.09765625 C-32.59765625 47.79765625 -32.59765625 44.49765625 -32.59765625 41.09765625 C-30.61765625 40.76765625 -28.63765625 40.43765625 -26.59765625 40.09765625 C-29.59246542 39.22531505 -32.23341536 38.98935859 -35.34765625 39.03515625 C-36.54648437 39.04869141 -36.54648437 39.04869141 -37.76953125 39.0625 C-38.67445312 39.07990234 -38.67445312 39.07990234 -39.59765625 39.09765625 Z M-19.59765625 39.09765625 C-17.81658376 41.28705534 -17.81658376 41.28705534 -15.50390625 41.36328125 C-14.70984375 41.358125 -13.91578125 41.35296875 -13.09765625 41.34765625 C-11.9065625 41.35539062 -11.9065625 41.35539062 -10.69140625 41.36328125 C-8.37872874 41.28705534 -8.37872874 41.28705534 -6.59765625 39.09765625 C-10.88765625 39.09765625 -15.17765625 39.09765625 -19.59765625 39.09765625 Z " fill="#000000" transform="translate(51.59765625,1.90234375)"/>
</svg>
