<?xml version="1.0" encoding="UTF-8"?>
<svg version="1.1" xmlns="http://www.w3.org/2000/svg" width="64" height="64">
<path d="M0 0 C2.203125 0.76953125 2.203125 0.76953125 4.25 1.8125 C4.93578125 2.14894531 5.6215625 2.48539063 6.328125 2.83203125 C8 4 8 4 9 7 C9.66 7 10.32 7 11 7 C11.2784375 6.1028125 11.2784375 6.1028125 11.5625 5.1875 C13.76794061 1.83139472 16.22714933 1.17515021 20 0 C24.26367571 0 27.05300191 0.73943334 30.4375 3.25 C33 6 33 6 33.375 8.8125 C33.189375 9.8953125 33.189375 9.8953125 33 11 C34.3921875 11.309375 34.3921875 11.309375 35.8125 11.625 C39 13 39 13 40.875 15.6875 C42.10976388 19.32319366 42.22881817 22.18636384 42 26 C40.02 26.99 40.02 26.99 38 28 C38 29.65 38 31.3 38 33 C35.94175571 33.84378975 33.87820214 34.67463622 31.8125 35.5 C30.66394531 35.9640625 29.51539063 36.428125 28.33203125 36.90625 C25.28009923 37.90805652 23.16884928 38.23870804 20 38 C19.32880451 36.5437455 18.66318193 35.08492133 18 33.625 C17.62875 32.81289063 17.2575 32.00078125 16.875 31.1640625 C16 29 16 29 16 27 C15.01 26.67 14.02 26.34 13 26 C11.5522078 23.10441559 11 21.25811062 11 18 C10.34 18 9.68 18 9 18 C8.87625 18.928125 8.7525 19.85625 8.625 20.8125 C8 24 8 24 6 27 C5.34 27 4.68 27 4 27 C3.79503906 27.71027344 3.59007813 28.42054687 3.37890625 29.15234375 C3.10949219 30.07144531 2.84007813 30.99054687 2.5625 31.9375 C2.29566406 32.85402344 2.02882813 33.77054688 1.75390625 34.71484375 C1 37 1 37 0 38 C-6.6062509 37.63965904 -11.97648627 35.65380215 -18 33 C-18 31.35 -18 29.7 -18 28 C-19.32 27.34 -20.64 26.68 -22 26 C-22.31167787 20.80536879 -22.01956938 17.32804944 -19 13 C-15.8125 11.625 -15.8125 11.625 -13 11 C-13.07605469 10.24332031 -13.15210938 9.48664062 -13.23046875 8.70703125 C-13 6 -13 6 -11.42578125 4.19921875 C-10.72839844 3.70035156 -10.03101563 3.20148437 -9.3125 2.6875 C-8.62800781 2.17574219 -7.94351562 1.66398437 -7.23828125 1.13671875 C-4.55235372 -0.22733869 -2.98006905 -0.33578243 0 0 Z M-10 7 C-9.67 8.32 -9.34 9.64 -9 11 C-8.34 10.67 -7.68 10.34 -7 10 C-7 9.34 -7 8.68 -7 8 C-5.35 8.33 -3.7 8.66 -2 9 C-1.67 9.99 -1.34 10.98 -1 12 C-1.99 12.33 -2.98 12.66 -4 13 C-0.535 14.485 -0.535 14.485 3 16 C3 18.97 3 21.94 3 25 C5.08193187 22.91806813 5.96575384 21.28020285 7.1875 18.625 C7.55230469 17.85414062 7.91710937 17.08328125 8.29296875 16.2890625 C9.08442558 13.72666635 8.89234179 12.48946307 8 10 C7.34 10 6.68 10 6 10 C5.87625 9.360625 5.7525 8.72125 5.625 8.0625 C5.41875 7.381875 5.2125 6.70125 5 6 C4.34 5.67 3.68 5.34 3 5 C2.01 5.33 1.02 5.66 0 6 C-0.33 5.01 -0.66 4.02 -1 3 C-4.99904969 3 -6.80200422 4.72586967 -10 7 Z M21 3 C20.67 3.99 20.34 4.98 20 6 C19.38125 5.79375 18.7625 5.5875 18.125 5.375 C17.42375 5.25125 16.7225 5.1275 16 5 C15.34 5.66 14.68 6.32 14 7 C14 7.99 14 8.98 14 10 C13.34 10 12.68 10 12 10 C12.56820748 15.45479185 13.94637945 19.91059256 16 25 C16.84062397 21.90226756 17.08935201 19.21667249 17 16 C19.31 15.01 21.62 14.02 24 13 C23.01 12.67 22.02 12.34 21 12 C21.66 10.68 22.32 9.36 23 8 C24.32 8 25.64 8 27 8 C27 8.99 27 9.98 27 11 C27.99 10.67 28.98 10.34 30 10 C29.87822312 8.08533633 29.87822312 8.08533633 29 6 C26.09303401 3.85802506 24.64478912 3 21 3 Z M-5 10 C-5.33 10.66 -5.66 11.32 -6 12 C-5.34 12 -4.68 12 -4 12 C-4.33 11.34 -4.66 10.68 -5 10 Z M24 10 C24 10.66 24 11.32 24 12 C24.66 11.67 25.32 11.34 26 11 C25.34 10.67 24.68 10.34 24 10 Z M-10 14 C-10.84161854 16.08000011 -11.67300763 18.16414146 -12.5 20.25 C-12.9640625 21.41015625 -13.428125 22.5703125 -13.90625 23.765625 C-15.21356233 27.06248366 -15.21356233 27.06248366 -15 31 C-13.42274653 31.70133599 -11.83788667 32.385583 -10.25 33.0625 C-8.92742188 33.63677734 -8.92742188 33.63677734 -7.578125 34.22265625 C-4.84743691 35.04600008 -3.63098653 34.9773992 -1 34 C-0.01 30.535 -0.01 30.535 1 27 C0.34 27 -0.32 27 -1 27 C-1.66 28.98 -2.32 30.96 -3 33 C-3.66 32.67 -4.32 32.34 -5 32 C-4.34 30.02 -3.68 28.04 -3 26 C-2.01 26 -1.02 26 0 26 C0.33 23.03 0.66 20.06 1 17 C-0.8871875 16.2575 -0.8871875 16.2575 -2.8125 15.5 C-3.52019531 15.2215625 -4.22789063 14.943125 -4.95703125 14.65625 C-7.11841216 13.8470838 -7.11841216 13.8470838 -10 14 Z M22.8125 15.5 C21.554375 15.995 20.29625 16.49 19 17 C19.33 19.97 19.66 22.94 20 26 C20.99 26 21.98 26 23 26 C23.66 27.98 24.32 29.96 25 32 C24.34 32.33 23.68 32.66 23 33 C22.34 31.02 21.68 29.04 21 27 C20.01 27.495 20.01 27.495 19 28 C19.99 30.31 20.98 32.62 22 35 C26.60853797 34.27991594 30.67237409 32.68704061 35 31 C34.35083537 24.99522721 32.14204997 19.599219 30 14 C27.04725901 14 25.50941597 14.43891831 22.8125 15.5 Z M-17 15 C-18.60355101 18.50776784 -19.22036864 21.14354879 -19 25 C-18.01 24.67 -17.02 24.34 -16 24 C-15.19436362 21.89415562 -15.19436362 21.89415562 -14.8125 19.4375 C-14.65394531 18.61121094 -14.49539062 17.78492188 -14.33203125 16.93359375 C-14.22246094 16.29550781 -14.11289063 15.65742187 -14 15 C-14.99 15 -15.98 15 -17 15 Z M34 15 C34.254496 16.48206495 34.52911762 17.96068615 34.8125 19.4375 C34.96332031 20.26121094 35.11414062 21.08492187 35.26953125 21.93359375 C35.51058594 22.61550781 35.75164063 23.29742187 36 24 C36.99 24.33 37.98 24.66 39 25 C38.855625 23.72125 38.71125 22.4425 38.5625 21.125 C38.44068359 20.04605469 38.44068359 20.04605469 38.31640625 18.9453125 C38.08707039 16.92595684 38.08707039 16.92595684 37 15 C36.01 15 35.02 15 34 15 Z " fill="#003996" transform="translate(22,21)"/>
<path d="M0 0 C0.625 2.875 0.625 2.875 1 6 C-1 8 -1 8 -3.5 8.25 C-6 8 -6 8 -8 6 C-7.75 2.9375 -7.75 2.9375 -7 0 C-4.3333581 -1.33332095 -2.83319697 -0.67102033 0 0 Z M-4 2 C-4.33 2.99 -4.66 3.98 -5 5 C-4.01 5 -3.02 5 -2 5 C-2.33 4.01 -2.66 3.02 -3 2 C-3.33 2 -3.66 2 -4 2 Z " fill="#003994" transform="translate(61,6)"/>
<path d="M0 0 C0.625 2.875 0.625 2.875 1 6 C-1 8 -1 8 -3.5 8.25 C-6 8 -6 8 -8 6 C-7.75 2.9375 -7.75 2.9375 -7 0 C-4.3333581 -1.33332095 -2.83319697 -0.67102033 0 0 Z M-4 2 C-4.33 2.99 -4.66 3.98 -5 5 C-4.01 5 -3.02 5 -2 5 C-2.33 4.01 -2.66 3.02 -3 2 C-3.33 2 -3.66 2 -4 2 Z " fill="#003994" transform="translate(10,6)"/>
<path d="M0 0 C0.99 0 1.98 0 3 0 C3.83739781 2.1234016 4.66980283 4.2487728 5.5 6.375 C5.9640625 7.55835938 6.428125 8.74171875 6.90625 9.9609375 C8 13 8 13 8 15 C6.140625 14.8359375 6.140625 14.8359375 4 14 C2.734375 11.6015625 2.734375 11.6015625 1.75 8.625 C1.41484375 7.64789063 1.0796875 6.67078125 0.734375 5.6640625 C0 3 0 3 0 0 Z " fill="#003996" transform="translate(44,38)"/>
<path d="M0 0 C0.99 0 1.98 0 3 0 C2.43174347 5.54050113 0.37113483 10.03715966 -2 15 C-2.99 15 -3.98 15 -5 15 C-1.92482916 4.44191344 -1.92482916 4.44191344 0 0 Z " fill="#003A95" transform="translate(17,38)"/>
<path d="M0 0 C1.85546875 0.1640625 1.85546875 0.1640625 4 1 C5.30078125 3.3984375 5.30078125 3.3984375 6.3125 6.375 C6.65925781 7.35210937 7.00601563 8.32921875 7.36328125 9.3359375 C8 12 8 12 7 15 C6.34 15 5.68 15 5 15 C4.16260219 12.8765984 3.33019717 10.7512272 2.5 8.625 C1.80390625 6.84996094 1.80390625 6.84996094 1.09375 5.0390625 C0 2 0 2 0 0 Z " fill="#00379A" transform="translate(48,37)"/>
<path d="M0 0 C0.99 0 1.98 0 3 0 C-0.07517084 10.55808656 -0.07517084 10.55808656 -2 15 C-2.99 14.67 -3.98 14.34 -5 14 C-4.54636829 12.41531323 -4.08688548 10.83230076 -3.625 9.25 C-3.36976562 8.36828125 -3.11453125 7.4865625 -2.8515625 6.578125 C-2.0790066 4.23919428 -1.16374324 2.16557438 0 0 Z " fill="#003D96" transform="translate(13,37)"/>
<path d="M0 0 C2.4375 0.1875 2.4375 0.1875 3.4375 1.1875 C3.5625 3.6875 3.5625 3.6875 3.4375 6.1875 C2.4375 7.1875 2.4375 7.1875 -0.625 7.25 C-1.594375 7.229375 -2.56375 7.20875 -3.5625 7.1875 C-4.1875 4.8125 -4.1875 4.8125 -4.5625 2.1875 C-2.5625 0.1875 -2.5625 0.1875 0 0 Z " fill="#003997" transform="translate(16.5625,10.8125)"/>
<path d="M0 0 C1.2065625 0.0309375 1.2065625 0.0309375 2.4375 0.0625 C3.0975 1.3825 3.7575 2.7025 4.4375 4.0625 C3.4475 5.5475 3.4475 5.5475 2.4375 7.0625 C-0.125 7.3125 -0.125 7.3125 -2.5625 7.0625 C-3.5625 6.0625 -3.5625 6.0625 -3.6875 3.5625 C-3.51717518 0.15600356 -3.41884482 0.08338646 0 0 Z M-0.5625 2.0625 C-0.5625 2.7225 -0.5625 3.3825 -0.5625 4.0625 C0.0975 3.7325 0.7575 3.4025 1.4375 3.0625 C0.7775 2.7325 0.1175 2.4025 -0.5625 2.0625 Z " fill="#003B94" transform="translate(47.5625,10.9375)"/>
<path d="M0 0 C1.32 0.66 2.64 1.32 4 2 C3.67 3.65 3.34 5.3 3 7 C1.35 7 -0.3 7 -2 7 C-2.33 5.35 -2.66 3.7 -3 2 C-2.01 1.34 -1.02 0.68 0 0 Z " fill="#003B95" transform="translate(56,18)"/>
<path d="M0 0 C1.32 0.66 2.64 1.32 4 2 C3.67 3.65 3.34 5.3 3 7 C1.35 7 -0.3 7 -2 7 C-2.33 5.35 -2.66 3.7 -3 2 C-2.01 1.34 -1.02 0.68 0 0 Z " fill="#003B95" transform="translate(7,18)"/>
<path d="M0 0 C1.67542976 0.28604898 3.34385343 0.61781233 5 1 C5.33 1.99 5.66 2.98 6 4 C5.01 5.485 5.01 5.485 4 7 C2.35 6.67 0.7 6.34 -1 6 C-1.042721 4.33388095 -1.04063832 2.66617115 -1 1 C-0.67 0.67 -0.34 0.34 0 0 Z " fill="#003997" transform="translate(38,5)"/>
<path d="M0 0 C1.65 0.33 3.3 0.66 5 1 C5 2.65 5 4.3 5 6 C3.35 6.33 1.7 6.66 0 7 C-0.66 5.68 -1.32 4.36 -2 3 C-1.34 2.01 -0.68 1.02 0 0 Z " fill="#003A95" transform="translate(22,5)"/>
<path d="M0 0 C0.99 0 1.98 0 3 0 C2.38722388 2.96175123 1.74627478 4.38058783 0 7 C-0.99 6.67 -1.98 6.34 -3 6 C-1.125 1.125 -1.125 1.125 0 0 Z " fill="#003998" transform="translate(38,15)"/>
<path d="M0 0 C1.875 0.1875 1.875 0.1875 4 1 C5.25 3.5625 5.25 3.5625 6 6 C5.01 6.33 4.02 6.66 3 7 C0 3.375 0 3.375 0 0 Z " fill="#003898" transform="translate(23,15)"/>
<path d="M0 0 C1.65 0.33 3.3 0.66 5 1 C5 1.66 5 2.32 5 3 C3.02 3.66 1.04 4.32 -1 5 C-0.67 3.35 -0.34 1.7 0 0 Z " fill="#00399B" transform="translate(37,30)"/>
<path d="M0 0 C1.65 0.33 3.3 0.66 5 1 C4.67 2.32 4.34 3.64 4 5 C1.525 4.01 1.525 4.01 -1 3 C-0.67 2.01 -0.34 1.02 0 0 Z " fill="#00399B" transform="translate(23,30)"/>
<path d="M0 0 C0.66 0 1.32 0 2 0 C2 2.97 2 5.94 2 9 C1.34 9 0.68 9 0 9 C0 6.03 0 3.06 0 0 Z " fill="#003B95" transform="translate(31,11)"/>
</svg>
