<?xml version="1.0" encoding="UTF-8"?>
<svg version="1.1" xmlns="http://www.w3.org/2000/svg" width="64" height="64">
<path d="M0 0 C0.62132812 0.391875 1.24265625 0.78375 1.8828125 1.1875 C2.50414062 1.538125 3.12546875 1.88875 3.765625 2.25 C10.62521869 6.52611035 14.82446272 13.4804369 16.8828125 21.1875 C17.67485162 30.07491567 17.78212394 38.41951278 12.8828125 46.1875 C12.5321875 46.80882812 12.1815625 47.43015625 11.8203125 48.0703125 C7.54420215 54.92990619 0.5898756 59.12915022 -7.1171875 61.1875 C-16.00460317 61.97953912 -24.34920028 62.08681144 -32.1171875 57.1875 C-33.04917969 56.6615625 -33.04917969 56.6615625 -34 56.125 C-40.85959369 51.84888965 -45.05883772 44.8945631 -47.1171875 37.1875 C-47.90922662 28.30008433 -48.01649894 19.95548722 -43.1171875 12.1875 C-42.7665625 11.56617188 -42.4159375 10.94484375 -42.0546875 10.3046875 C-33.73233229 -3.04575731 -13.65305461 -7.47543675 0 0 Z M-37.1171875 11.1875 C-41.96801156 19.26380708 -44.73117062 26.60244888 -42.43359375 35.9765625 C-39.3145145 45.37262696 -34.98624235 50.62179024 -26.265625 55.2421875 C-19.3734607 58.27473979 -11.94711612 58.14448519 -4.9296875 55.5625 C4.00963821 51.5271931 8.14139581 46.16999213 11.8828125 37.1875 C14.56615131 29.13748358 12.50453998 21.63404249 8.8828125 14.1875 C4.98500135 7.88465643 -1.03926733 3.75685722 -8.1015625 1.57421875 C-18.86451169 -0.49076569 -29.9783903 2.59551253 -37.1171875 11.1875 Z " fill="#000000" transform="translate(47.1171875,2.8125)"/>
<path d="M0 0 C3 1 3 1 4.8125 2.9375 C7.87581697 5.82577029 10.72496986 7.04022647 14.98828125 6.96484375 C18.88026485 6.56171927 22.55242425 5.92658645 26 4 C27.34410262 1.98264795 27.34410262 1.98264795 28 0 C29.32 0.66 30.64 1.32 32 2 C30.19827485 6.58620946 27.00233392 8.85580919 22.8125 11.25 C15.95922647 13.07753961 9.88551362 12.66486602 3.6953125 9.15625 C1.51374656 7.66836171 -0.2832216 6.00290814 -2 4 C-1.34 2.68 -0.68 1.36 0 0 Z " fill="#000000" transform="translate(17,38)"/>
<path d="M0 0 C2.625 0.375 2.625 0.375 5 1 C5.625 3.375 5.625 3.375 6 6 C5.34 6.66 4.68 7.32 4 8 C1.375 7.625 1.375 7.625 -1 7 C-1.625 4.625 -1.625 4.625 -2 2 C-1.34 1.34 -0.68 0.68 0 0 Z " fill="#000000" transform="translate(41,21)"/>
<path d="M0 0 C2.5 0.125 2.5 0.125 3.5 1.125 C3.54080783 3.12458364 3.54254356 5.12545254 3.5 7.125 C-1.25 8.25 -1.25 8.25 -3.5 7.125 C-3.54254356 5.12545254 -3.54080783 3.12458364 -3.5 1.125 C-2.5 0.125 -2.5 0.125 0 0 Z " fill="#000000" transform="translate(21.5,20.875)"/>
</svg>
