<?xml version="1.0" encoding="UTF-8"?>
<svg version="1.1" xmlns="http://www.w3.org/2000/svg" width="64" height="64">
    <path
        d="M0 0 C1.9375 1.6875 1.9375 1.6875 3 3 C5.2102955 1.97379138 7.07317497 0.94283206 9 -0.5625 C13.02887131 -3.45825126 17.13651596 -3.32972773 22 -3 C28.04547445 -1.19696376 31.52959208 1.87590777 35 7 C37.0650279 13.1950837 37.25993364 21.23164251 34.5 27.25 C29.70139045 35.22538939 22.85450286 41.21132486 15.61328125 46.91015625 C13.33922418 48.72872207 11.240753 50.62909358 9.125 52.625 C6 55 6 55 3.63671875 54.90625 C0.34636285 53.77534249 -1.6685266 52.13251708 -4.3125 49.875 C-5.27414063 49.05644531 -6.23578125 48.23789062 -7.2265625 47.39453125 C-8.14179688 46.60433594 -9.05703125 45.81414063 -10 45 C-10.72960937 44.40574219 -11.45921875 43.81148437 -12.2109375 43.19921875 C-19.44352755 37.21017679 -27.36050355 29.63581382 -28.30078125 19.87890625 C-28.34484284 7.40947748 -28.34484284 7.40947748 -23.3828125 2.3515625 C-16.15858703 -4.25255778 -8.82426066 -4.58182765 0 0 Z M-21.29296875 7.73046875 C-23.84686957 12.09737766 -24.6075873 15.80210718 -23.71484375 20.79296875 C-20.99453319 29.19174179 -12.60457423 35.69488417 -6.390625 41.66259766 C-5.19779248 42.80977753 -4.01929073 43.97182603 -2.84375 45.13671875 C0.21778964 48.12883682 0.21778964 48.12883682 4.234375 49.04296875 C8.42433623 47.46285625 11.1349524 44.59015806 14.3125 41.5 C14.97531982 40.86578125 15.63813965 40.2315625 16.32104492 39.578125 C26.49810567 30.71649364 26.49810567 30.71649364 32 19 C32.05753197 13.30433479 30.72176972 9.44544716 27 5 C23.65551345 2.21292787 20.51039387 1.31352455 16.12109375 1.4296875 C12.5491071 2.39011117 10.37089744 4.85344564 7.859375 7.46875 C6 9 6 9 2 9 C0.140625 7.46875 0.140625 7.46875 -1.75 5.5 C-4.52218947 2.95968511 -6.30819538 1.46604961 -10.125 1.3125 C-15.15497339 2.20491463 -18.18413584 3.56970446 -21.29296875 7.73046875 Z "
        fill="#000000" transform="translate(28,6)" />
</svg>