<?xml version="1.0" encoding="UTF-8"?>
<svg version="1.1" xmlns="http://www.w3.org/2000/svg" width="64" height="64">
<path d="M0 0 C2.41049138 1.08922007 3.95375076 2.27684275 6 4 C6.61875 3.34 7.2375 2.68 7.875 2 C12.25789037 -0.80504984 15.92639184 -0.79405729 21 0 C25.06864207 1.99103761 26.33788285 4.33852093 27.875 8.4375 C29.18551466 12.4035312 28.89514735 13.52426326 28 18 C34.435 17.505 34.435 17.505 41 17 C41 15.68 41 14.36 41 13 C39.02463255 13.34786708 39.02463255 13.34786708 37 14 C36.67 14.66 36.34 15.32 36 16 C34.68 16 33.36 16 32 16 C31.6875 13.75 31.6875 13.75 32 11 C34.0625 8.625 34.0625 8.625 37 7 C40.46758942 7.05978602 42.88826749 7.39034023 45.9375 9.0625 C47.65273412 12.19027986 47.83194701 15.58705202 47 19 C45.34277578 21.46839186 44.06079658 22.78191642 41.09399414 23.3918457 C38.82739093 23.58249457 36.58683838 23.65904706 34.3125 23.6875 C29.25438339 23.35481473 29.25438339 23.35481473 25 25 C25.66386719 25.01417969 26.32773437 25.02835938 27.01171875 25.04296875 C31.57338292 25.28936521 34.31138707 25.51797095 38.125 28.1875 C40.35744093 31.53616139 40.75502236 33.05710546 40 37 C37.93104835 39.94427735 36.49090073 40.84332955 33.0625 41.9375 C29.30878431 42.01410644 27.80780131 41.48690973 25 39 C24.1875 35.8125 24.1875 35.8125 24 33 C25.65 33 27.3 33 29 33 C29.33 33.99 29.66 34.98 30 36 C31.65 36 33.3 36 35 36 C34.505 34.02 34.505 34.02 34 32 C24.89894553 31.02257541 24.89894553 31.02257541 16.36328125 33.453125 C14.42713487 35.20856438 12.72956408 37.04429437 11 39 C9.04296875 40.79296875 9.04296875 40.79296875 7 42 C3.54108855 41.58609029 1.75055919 40.17662839 -0.75 37.83203125 C-1.4409375 37.18556641 -2.131875 36.53910156 -2.84375 35.87304688 C-3.5553125 35.19306641 -4.266875 34.51308594 -5 33.8125 C-5.7115625 33.15185547 -6.423125 32.49121094 -7.15625 31.81054688 C-16.46649954 23.01270845 -16.46649954 23.01270845 -17.53125 17 C-17.46579844 10.71665041 -17.33787402 6.70969179 -13 2 C-8.7583342 -0.8277772 -4.98284464 -0.66437928 0 0 Z M-11 7 C-12.73852264 9.84485523 -12.9918175 11.86089749 -13.1875 15.1875 C-10.45934694 23.94630718 -1.91290631 30.31145039 5 36 C8.16115776 34.63016497 8.9927092 34.0109362 11 31 C9.02 31 7.04 31 5 31 C5 29.35 5 27.7 5 26 C9.29 26 13.58 26 18 26 C18.33 25.01 18.66 24.02 19 23 C15.7 23 12.4 23 9 23 C9 21.35 9 19.7 9 18 C13.62 18 18.24 18 23 18 C24.02647084 13.72303815 24.31324428 11.65058427 22.375 7.625 C20.24351598 4.90712743 20.24351598 4.90712743 17.5625 3.9375 C14.23063813 4.01876492 12.63750213 5.00405245 10 7 C7.7226499 9.81509993 7.7226499 9.81509993 8 13 C6.35 13 4.7 13 3 13 C2.896875 12.236875 2.79375 11.47375 2.6875 10.6875 C1.93412462 7.74248716 1.44706902 6.74790644 -1 5 C-5.3044799 3.41413898 -7.47424961 4.14128347 -11 7 Z " fill="#000000" transform="translate(17,11)"/>
</svg>
