<?xml version="1.0" encoding="UTF-8"?>
<svg version="1.1" xmlns="http://www.w3.org/2000/svg" width="64" height="64">
<path d="M0 0 C3 0.125 3 0.125 4 1.125 C4.07244053 3.14464199 4.08377188 5.16667124 4.0625 7.1875 C4.05347656 8.29222656 4.04445312 9.39695312 4.03515625 10.53515625 C4.02355469 11.38980469 4.01195312 12.24445312 4 13.125 C4.99 13.125 5.98 13.125 7 13.125 C7.33 12.135 7.66 11.145 8 10.125 C10.93718235 9.69516844 13.13007298 9.61705604 15.74609375 11.14453125 C24.97168438 18.60308225 31.05278522 30.17663251 32.44921875 41.89453125 C32.72701516 51.04265433 32.72701516 51.04265433 30.08984375 54.96875 C27.34747299 57.79826151 26.54245726 58.0756857 22.5625 58.4375 C17.13311976 58.35780268 11.68193216 56.8758322 7 54.125 C5.09073318 50.37310744 4.70934724 47.12458163 4.5859375 42.94921875 C4.52792969 41.21381836 4.52792969 41.21381836 4.46875 39.44335938 C4.4378125 38.24517578 4.406875 37.04699219 4.375 35.8125 C4.31699219 33.9862207 4.31699219 33.9862207 4.2578125 32.12304688 C4.16371998 29.12384772 4.07807791 26.12465177 4 23.125 C1.67145537 21.92661791 1.67145537 21.92661791 -1 21.125 C-1.99 21.785 -2.98 22.445 -4 23.125 C-4.47770729 25.75413591 -4.47770729 25.75413591 -4.44140625 28.83203125 C-4.46783203 29.97607422 -4.49425781 31.12011719 -4.52148438 32.29882812 C-4.54178711 34.0999707 -4.54178711 34.0999707 -4.5625 35.9375 C-4.59704852 38.29831533 -4.63971642 40.65902902 -4.69140625 43.01953125 C-4.70373291 44.06987549 -4.71605957 45.12021973 -4.72875977 46.20239258 C-5.01073606 49.2406808 -5.61471626 51.41331683 -7 54.125 C-12.76837245 57.51416159 -19.40021134 59.03531568 -26 58.125 C-28.8100346 56.33136089 -30.50940468 55.10619065 -32 52.125 C-33.05268697 41.34247771 -31.30158753 32.00300011 -25.51953125 22.7578125 C-25.01808594 22.21898438 -24.51664063 21.68015625 -24 21.125 C-23.01 21.125 -22.02 21.125 -21 21.125 C-21.61917628 25.00188786 -22.80853699 28.15214562 -24.5 31.6875 C-27.62475227 38.23676275 -29.33840351 44.37975118 -27.3125 51.5625 C-25.42688413 53.8072808 -23.87232009 53.77312033 -21 54.125 C-18.37413913 53.83517631 -18.37413913 53.83517631 -15.8125 53.0625 C-14.95269531 52.84464844 -14.09289062 52.62679687 -13.20703125 52.40234375 C-10.78679928 51.27045977 -10.78679928 51.27045977 -9.73828125 48.62109375 C-8.79458675 44.15227588 -8.53967152 39.80591197 -8.375 35.25 C-8.33632813 34.37085938 -8.29765625 33.49171875 -8.2578125 32.5859375 C-8.16418966 30.43261207 -8.08103541 28.27883586 -8 26.125 C-11.55585505 29.42483349 -12.59223813 31.23185761 -13 36.125 C-13 37.445 -13 38.765 -13 40.125 C-14.485 40.62 -14.485 40.62 -16 41.125 C-16.33 43.435 -16.66 45.745 -17 48.125 C-17.99 48.125 -18.98 48.125 -20 48.125 C-20.33 46.475 -20.66 44.825 -21 43.125 C-22.485 43.62 -22.485 43.62 -24 44.125 C-24.33 42.805 -24.66 41.485 -25 40.125 C-24.21625 39.75375 -23.4325 39.3825 -22.625 39 C-19.39371171 36.69193694 -18.92493788 34.90883679 -18 31.125 C-18.99 31.125 -19.98 31.125 -21 31.125 C-21 30.135 -21 29.145 -21 28.125 C-19.9275 27.7125 -18.855 27.3 -17.75 26.875 C-14.45383591 25.42790357 -12.04900961 24.19851442 -10 21.125 C-10.14612895 17.43067489 -10.14612895 17.43067489 -11 14.125 C-12.98 14.785 -14.96 15.445 -17 16.125 C-17 14.805 -17 13.485 -17 12.125 C-13.1496895 9.55812633 -11.41430237 10.29211276 -7 11.125 C-7 11.785 -7 12.445 -7 13.125 C-6.01 13.125 -5.02 13.125 -4 13.125 C-4.01160156 12.27035156 -4.02320312 11.41570313 -4.03515625 10.53515625 C-4.04417969 9.43042969 -4.05320312 8.32570313 -4.0625 7.1875 C-4.07410156 6.08535156 -4.08570312 4.98320312 -4.09765625 3.84765625 C-3.9605029 0.02382091 -3.85862021 0.16077584 0 0 Z M-1 3.125 C-1 3.785 -1 4.445 -1 5.125 C-0.34 5.125 0.32 5.125 1 5.125 C1 4.465 1 3.805 1 3.125 C0.34 3.125 -0.32 3.125 -1 3.125 Z M-1 8.125 C-1 8.785 -1 9.445 -1 10.125 C-0.34 10.125 0.32 10.125 1 10.125 C1 9.465 1 8.805 1 8.125 C0.34 8.125 -0.32 8.125 -1 8.125 Z M-1 13.125 C-2.38232443 14.75126404 -3.71937515 16.4175002 -5 18.125 C-3.63875 17.8465625 -3.63875 17.8465625 -2.25 17.5625 C0.68314324 17.16765379 2.2644657 17.17808428 5 18.125 C3.71937515 16.4175002 2.38232443 14.75126404 1 13.125 C0.34 13.125 -0.32 13.125 -1 13.125 Z M11 13.125 C8.83642395 16.37036408 8.46952382 17.35977235 9 21.125 C10.56946607 23.2321255 10.56946607 23.2321255 12.75 24.9375 C13.44609375 25.54207031 14.1421875 26.14664062 14.859375 26.76953125 C17.14096248 28.48165248 17.14096248 28.48165248 21 28.125 C21 29.115 21 30.105 21 31.125 C20.01 31.125 19.02 31.125 18 31.125 C18.10792821 34.0292893 18.10792821 34.0292893 19 37.125 C21.44309577 39.04244593 21.44309577 39.04244593 24 40.125 C23.67 41.115 23.34 42.105 23 43.125 C22.01 42.795 21.02 42.465 20 42.125 C20 44.105 20 46.085 20 48.125 C19.01 48.125 18.02 48.125 17 48.125 C17.04125 47.01125 17.0825 45.8975 17.125 44.75 C17.41121859 41.08133975 17.41121859 41.08133975 15 39.125 C14.34 39.125 13.68 39.125 13 39.125 C13.2475 38.09375 13.495 37.0625 13.75 36 C14.05404038 31.28737408 13.01776222 29.66009289 10 26.125 C9.34 26.125 8.68 26.125 8 26.125 C7.94578777 29.16690863 7.90622452 32.20783999 7.875 35.25 C7.85824219 36.1059375 7.84148438 36.961875 7.82421875 37.84375 C7.78751441 42.6153141 7.84940229 46.74846518 10 51.125 C11.68499488 52.43108184 11.68499488 52.43108184 13.75 52.9375 C14.4615625 53.15148438 15.173125 53.36546875 15.90625 53.5859375 C16.5971875 53.76382813 17.288125 53.94171875 18 54.125 C19.0725 54.434375 20.145 54.74375 21.25 55.0625 C24.1287406 55.41893698 24.1287406 55.41893698 26.3125 53.3125 C28.81909527 50.06320983 29.40736126 47.79732393 29.33984375 43.65625 C28.04420332 34.00596263 22.60235698 22.06391997 15.21875 15.5546875 C13.46105094 14.32096112 13.46105094 14.32096112 11 13.125 Z " fill="#000000" transform="translate(32,2.875)"/>
<path d="M0 0 C0.66 0.33 1.32 0.66 2 1 C2 1.99 2 2.98 2 4 C1.01 4 0.02 4 -1 4 C-0.67 2.68 -0.34 1.36 0 0 Z " fill="#000000" transform="translate(12,19)"/>
</svg>
