<?xml version="1.0" encoding="UTF-8"?>
<svg version="1.1" xmlns="http://www.w3.org/2000/svg" width="64" height="64">
<path d="M0 0 C1.32 0 2.64 0 4 0 C4.63309191 1.18320576 5.25596718 2.37187848 5.875 3.5625 C6.22304688 4.22378906 6.57109375 4.88507812 6.9296875 5.56640625 C9.44299564 11.28097184 10.29563086 16.73438127 10.625 22.9375 C10.68300781 23.96327148 10.68300781 23.96327148 10.7421875 25.00976562 C10.83522412 26.67279513 10.91863787 28.33635847 11 30 C11.43828125 29.55269531 11.8765625 29.10539062 12.328125 28.64453125 C18.1177832 23.1255278 25.72737152 18 34 18 C33.82749162 25.76287716 29.59006696 32.37091058 24.203125 37.81640625 C22.5625 39.1875 22.5625 39.1875 20 41 C21.010625 41.268125 22.02125 41.53625 23.0625 41.8125 C26.87327442 42.8935156 30.38875208 44.37862338 34 46 C34 47.32 34 48.64 34 50 C27.79081025 53.24571282 21.94170563 53.66944259 15 54 C15.495 57.465 15.495 57.465 16 61 C13 62 13 62 11.2109375 61.2578125 C6.11111111 58.11111111 6.11111111 58.11111111 5 57 C4.67 59.31 4.34 61.62 4 64 C2.68 64 1.36 64 0 64 C-0.33 61.69 -0.66 59.38 -1 57 C-1.721875 57.639375 -2.44375 58.27875 -3.1875 58.9375 C-5.98191184 60.98673535 -7.61663274 61.61332946 -11 62 C-11.79953138 58.71303767 -12.09658936 57.28976808 -11 54 C-11.78503906 53.96261719 -12.57007812 53.92523438 -13.37890625 53.88671875 C-19.58300901 53.49848655 -24.47426876 52.88845042 -30 50 C-30 48.68 -30 47.36 -30 46 C-25.37559575 43.92373687 -20.8991349 42.29977048 -16 41 C-17.010625 40.2575 -18.02125 39.515 -19.0625 38.75 C-24.03657075 34.49666195 -27.36573529 28.94911452 -30 23 C-30.19140625 20.12890625 -30.19140625 20.12890625 -30 18 C-20.74568079 19.49263213 -13.48368341 23.14539648 -7 30 C-6.97421875 29.04480469 -6.9484375 28.08960937 -6.921875 27.10546875 C-6.4817643 17.07294539 -4.62218078 9.01636162 0 0 Z M1 7 C-3.88157412 17.82436 -3.80330428 27.46172163 0.08984375 38.61328125 C0.39019531 39.40089844 0.69054687 40.18851563 1 41 C1.66 41 2.32 41 3 41 C7.03353598 30.42278763 8.405534 21.02328514 4.4375 10.1875 C3.963125 9.135625 3.48875 8.08375 3 7 C2.34 7 1.68 7 1 7 Z M-24 24 C-22.73059787 30.34701064 -18.83895785 34.02393323 -14 38 C-9.32459753 40.96919542 -9.32459753 40.96919542 -4 42 C-5.4110467 37.6013181 -7.53272587 35.09085049 -10.8125 31.875 C-11.66457031 31.02679687 -12.51664063 30.17859375 -13.39453125 29.3046875 C-18.07700847 25.14017057 -18.07700847 25.14017057 -24 24 Z M13.125 33.5625 C10.58057457 36.17068096 8.97699933 38.41766911 8 42 C16.27995086 39.63429975 22.05790534 34.97066795 27 28 C27.72052585 25.85440422 27.72052585 25.85440422 28 24 C22.05655682 24 17.25415994 29.62338508 13.125 33.5625 Z M-23 48 C-17.47252347 50.76373827 -12.2937803 50.6553658 -6.5 49 C-5.675 48.67 -4.85 48.34 -4 48 C-7.45083995 45.69944003 -8.87175728 45.72989744 -12.9375 45.75 C-13.97777344 45.74484375 -15.01804687 45.7396875 -16.08984375 45.734375 C-18.93098495 45.99370064 -20.58707634 46.53480298 -23 48 Z M8 48 C12.9773178 50.04197653 17.67735559 50.6580724 23 50 C25.2153554 49.0548105 25.2153554 49.0548105 27 48 C23.58895449 45.92871453 20.89464724 45.73038589 16.9375 45.75 C15.89464844 45.74484375 14.85179687 45.7396875 13.77734375 45.734375 C10.78871015 45.79927423 10.78871015 45.79927423 8 48 Z " fill="#000000" transform="translate(30,0)"/>
</svg>
