<?xml version="1.0" encoding="UTF-8"?>
<svg version="1.1" xmlns="http://www.w3.org/2000/svg" width="64" height="64">
<path d="M0 0 C7.7224286 5.9012663 14.44058631 16.46126632 16.09765625 26.06640625 C16.39385174 29.92506259 16.59587514 33.74427133 16.69140625 37.61328125 C17.12239232 41.27666284 17.72962988 43.24630212 20.09765625 46.06640625 C21.41765625 46.06640625 22.73765625 46.06640625 24.09765625 46.06640625 C24.09765625 47.05640625 24.09765625 48.04640625 24.09765625 49.06640625 C21.84765625 50.25390625 21.84765625 50.25390625 19.09765625 51.06640625 C16.78515625 49.69140625 16.78515625 49.69140625 15.09765625 48.06640625 C15.61328125 48.58203125 16.12890625 49.09765625 16.66015625 49.62890625 C18.67031326 53.03743335 17.89493021 55.29747482 17.09765625 59.06640625 C19.80697044 58.9115883 21.56349664 58.58468544 23.54296875 56.6640625 C24.77445267 55.16868917 25.94063995 53.62011385 27.09765625 52.06640625 C26.43765625 50.74640625 25.77765625 49.42640625 25.09765625 48.06640625 C27.07765625 47.57140625 27.07765625 47.57140625 29.09765625 47.06640625 C30.60427722 50.0796482 30.27535998 52.74927002 30.09765625 56.06640625 C29.43765625 56.72640625 28.77765625 57.38640625 28.09765625 58.06640625 C27.10765625 58.06640625 26.11765625 58.06640625 25.09765625 58.06640625 C24.95328125 58.70578125 24.80890625 59.34515625 24.66015625 60.00390625 C24.09765625 62.06640625 24.09765625 62.06640625 23.09765625 63.06640625 C16.93066969 63.52322007 16.93066969 63.52322007 14.16015625 62.00390625 C13.09765625 60.06640625 13.09765625 60.06640625 13.22265625 56.56640625 C13.18140625 55.41140625 13.14015625 54.25640625 13.09765625 53.06640625 C9.2086411 49.8771192 5.88540366 49.71608444 0.97265625 49.62890625 C-12.54500817 49.02380948 -22.9655443 43.54221377 -32.21484375 33.57421875 C-34.9863847 29.45540094 -34.69545784 25.85291938 -33.90234375 21.06640625 C-30.87311483 12.05914151 -25.310415 5.74170329 -17.08984375 1.12890625 C-11.51154961 -1.41438895 -5.74696568 -2.82037946 0 0 Z M-11.90234375 3.06640625 C-8.60234375 3.39640625 -5.30234375 3.72640625 -1.90234375 4.06640625 C-2.89234375 3.07640625 -3.88234375 2.08640625 -4.90234375 1.06640625 C-8.20048615 0.84279945 -8.20048615 0.84279945 -11.90234375 3.06640625 Z M-1.90234375 4.06640625 C-1.57234375 6.37640625 -1.24234375 8.68640625 -0.90234375 11.06640625 C-0.57234375 11.06640625 -0.24234375 11.06640625 0.09765625 11.06640625 C0.09765625 9.08640625 0.09765625 7.10640625 0.09765625 5.06640625 C-0.56234375 4.73640625 -1.22234375 4.40640625 -1.90234375 4.06640625 Z M-11.4375 5.7890625 C-16.30419616 8.36908844 -19.69811165 10.45231202 -22.90234375 15.06640625 C-23.89234375 15.39640625 -24.88234375 15.72640625 -25.90234375 16.06640625 C-26.23234375 15.40640625 -26.56234375 14.74640625 -26.90234375 14.06640625 C-27.23234375 15.05640625 -27.56234375 16.04640625 -27.90234375 17.06640625 C-27.24234375 17.06640625 -26.58234375 17.06640625 -25.90234375 17.06640625 C-26.15371094 17.98873047 -26.15371094 17.98873047 -26.41015625 18.9296875 C-26.61382812 19.73792969 -26.8175 20.54617187 -27.02734375 21.37890625 C-27.23617188 22.17941406 -27.445 22.97992187 -27.66015625 23.8046875 C-28.17661709 26.34847858 -28.17661709 26.34847858 -25.90234375 29.06640625 C-17.20299103 28.37045803 -12.9112897 24.40104662 -7.41796875 18.06640625 C-4.58694735 14.33062543 -3.64090041 11.77238641 -3.90234375 7.06640625 C-6.8072887 5.5645653 -8.23023598 4.87481929 -11.4375 5.7890625 Z M3.09765625 9.06640625 C2.81792969 9.83984375 2.53820312 10.61328125 2.25 11.41015625 C-1.97639057 22.39061792 -7.0413376 29.20649951 -17.90234375 34.06640625 C-19.88054473 34.79521714 -21.87332168 35.49411797 -23.90234375 36.06640625 C-19.18517931 41.85565351 -11.18950444 45.46228375 -3.82763672 46.3034668 C-1.47805766 46.46453725 0.87167934 46.61463037 3.22265625 46.75390625 C4.04636719 46.81384766 4.87007812 46.87378906 5.71875 46.93554688 C7.84171477 47.06236883 9.97091596 47.07264913 12.09765625 47.06640625 C14.52889216 45.091746 14.52889216 45.091746 14.21484375 41.28515625 C14.15102267 39.71146285 14.06926971 38.1384272 13.97265625 36.56640625 C13.92334961 35.74994629 13.87404297 34.93348633 13.82324219 34.09228516 C13.10207738 24.59820712 9.83129794 16.69705206 4.09765625 9.06640625 C3.76765625 9.06640625 3.43765625 9.06640625 3.09765625 9.06640625 Z M-1.90234375 12.06640625 C-0.90234375 14.06640625 -0.90234375 14.06640625 -0.90234375 14.06640625 Z M-30.90234375 21.06640625 C-29.90234375 24.06640625 -29.90234375 24.06640625 -29.90234375 24.06640625 Z M-31.90234375 25.06640625 C-31.55789494 27.5390739 -31.55789494 27.5390739 -30.90234375 30.06640625 C-30.24234375 30.39640625 -29.58234375 30.72640625 -28.90234375 31.06640625 C-29.56234375 29.08640625 -30.22234375 27.10640625 -30.90234375 25.06640625 C-31.23234375 25.06640625 -31.56234375 25.06640625 -31.90234375 25.06640625 Z M-28.90234375 31.06640625 C-28.57234375 31.72640625 -28.24234375 32.38640625 -27.90234375 33.06640625 C-25.92234375 33.06640625 -23.94234375 33.06640625 -21.90234375 33.06640625 C-21.90234375 32.73640625 -21.90234375 32.40640625 -21.90234375 32.06640625 C-24.21234375 31.73640625 -26.52234375 31.40640625 -28.90234375 31.06640625 Z " fill="#000000" transform="translate(33.90234375,0.93359375)"/>
<path d="M0 0 C-0.48377581 6.4100295 -0.48377581 6.4100295 -2.75 9 C-5.5806311 10.25805827 -7.08518324 9.89063845 -10 9 C-9.51622419 2.5899705 -9.51622419 2.5899705 -7.25 0 C-4.4193689 -1.25805827 -2.91481676 -0.89063845 0 0 Z M-4 2 C-4.99 2.99 -5.98 3.98 -7 5 C-6.67 5.66 -6.34 6.32 -6 7 C-5.01 6.01 -4.02 5.02 -3 4 C-3.33 3.34 -3.66 2.68 -4 2 Z " fill="#000000" transform="translate(28,9)"/>
</svg>
