<?xml version="1.0" encoding="UTF-8"?>
<svg version="1.1" xmlns="http://www.w3.org/2000/svg" width="64" height="64">
<path d="M0 0 C6.09073959 9.78868863 6.09073959 9.78868863 5 15 C2.14718865 19.16034989 -2.25076905 20.7755889 -7 22 C-8.32 22 -9.64 22 -11 22 C-10.01 23.98 -9.02 25.96 -8 28 C-6.824375 27.566875 -6.824375 27.566875 -5.625 27.125 C2.91082824 24.47594986 8.60994218 23.23055373 17 27 C16.505 28.485 16.505 28.485 16 30 C15.01 29.7525 15.01 29.7525 14 29.5 C7.46344559 28.41057426 2.65648945 28.27499476 -3 32 C-4.00496852 35.01490557 -4.10335303 37.04181692 -4.0625 40.1875 C-4.05347656 41.08855469 -4.04445313 41.98960938 -4.03515625 42.91796875 C-4.02355469 43.60503906 -4.01195313 44.29210938 -4 45 C-4.99 45 -5.98 45 -7 45 C-7.15855469 44.2265625 -7.31710938 43.453125 -7.48046875 42.65625 C-8.82142795 36.6700896 -10.29186023 31.97265212 -13.8046875 26.9453125 C-15.53689934 24.12622265 -16.36082251 21.1567226 -17.2265625 17.98046875 C-18.10422576 15.73311888 -19.2001244 14.57613416 -21 13 C-20.67 12.34 -20.34 11.68 -20 11 C-17.36 11.33 -14.72 11.66 -12 12 C-11.67 13.65 -11.34 15.3 -11 17 C-6.94393835 16.53199289 -3.53411321 16.12046792 0 14 C-0.58174845 8.6913151 -0.58174845 8.6913151 -3 4 C-8.03035126 4.89265106 -13.02724587 5.89111065 -17.9375 7.3125 C-19.00291016 7.61607422 -19.00291016 7.61607422 -20.08984375 7.92578125 C-22.95942397 9.53955336 -23.662847 10.96242122 -25 14 C-25.77329575 17.58012744 -26.24092784 21.17891562 -26.6875 24.8125 C-26.81705078 25.79154297 -26.94660156 26.77058594 -27.08007812 27.77929688 C-27.39693522 30.18506371 -27.70321563 32.59168864 -28 35 C-26.68 35 -25.36 35 -24 35 C-24.61277612 37.96175123 -25.25372522 39.38058783 -27 42 C-27.58369443 45.41538144 -27.58369443 45.41538144 -27 49 C-24.34861232 52.43882989 -22.92721936 53.85588362 -18.58203125 54.53125 C-16.71611328 54.51578125 -16.71611328 54.51578125 -14.8125 54.5 C-8.65945037 54.6071986 -4.4699864 55.87656713 0.8671875 58.90625 C4.78046908 60.91306107 7.96800761 60.65300323 12.06640625 59.3359375 C16.46749731 57.47175528 19.27351824 55.32489655 21.38671875 50.99609375 C22.98312973 45.80013191 22.34109172 40.19673042 21 35 C22.32 35 23.64 35 25 35 C27.57936759 41.60962944 27.85628528 47.42175794 25.1875 54.00390625 C22.43748649 58.62646185 18.07952333 62.30682556 13 64 C0.67283548 65.01615816 0.67283548 65.01615816 -4.9921875 60.9453125 C-8.89682188 59.10694378 -13.34822763 59.45091727 -17.59765625 59.37109375 C-22.52264148 58.83392544 -25.66887953 57.35369468 -29.14501953 53.81860352 C-31.44195062 50.32846539 -31.50249405 48.27070445 -31.49609375 44.1171875 C-31.49754898 43.46227325 -31.49900421 42.80735901 -31.50050354 42.13259888 C-31.49884928 40.74916124 -31.48734065 39.36570431 -31.46655273 37.98242188 C-31.43786552 35.90151405 -31.44589777 33.82320383 -31.45898438 31.7421875 C-31.44769484 22.64228202 -31.31813404 13.52684137 -25.76953125 5.95703125 C-22.45857298 3.61741194 -19.6189201 2.66332746 -15.6875 1.6875 C-15.02613037 1.52217773 -14.36476074 1.35685547 -13.68334961 1.18652344 C-8.9886779 0.07267034 -4.79227515 -0.39120613 0 0 Z " fill="#000000" transform="translate(31,0)"/>
<path d="M0 0 C3.96 0 7.92 0 12 0 C11.67 2.31 11.34 4.62 11 7 C12.65 7 14.3 7 16 7 C15.60588161 12.28522873 12.67606288 15.38660168 9.4375 19.3125 C8.91736328 19.95767578 8.39722656 20.60285156 7.86132812 21.26757812 C6.58234108 22.85164465 5.29224956 24.42673406 4 26 C3.01 25.67 2.02 25.34 1 25 C1.495 20.545 1.495 20.545 2 16 C0.35 16 -1.3 16 -3 16 C-4.49828872 12.11764181 -3.43110582 9.56550712 -2.0625 5.75 C-1.68222656 4.67234375 -1.30195312 3.5946875 -0.91015625 2.484375 C-0.45962891 1.25460937 -0.45962891 1.25460937 0 0 Z M3 3 C2.34 5.97 1.68 8.94 1 12 C2.65 12 4.3 12 6 12 C6.33 13.32 6.66 14.64 7 16 C7.99 14.35 8.98 12.7 10 11 C9.01 10.67 8.02 10.34 7 10 C7.33 7.69 7.66 5.38 8 3 C6.35 3 4.7 3 3 3 Z " fill="#000000" transform="translate(48,0)"/>
<path d="M0 0 C4.63291139 0.7721519 4.63291139 0.7721519 6.8125 2.125 C10.20524628 3.48209851 13.5039236 2.8901714 17 2 C17.99 1.34 18.98 0.68 20 0 C22.1875 0.375 22.1875 0.375 24 1 C19.71752002 5.39517682 17.8799016 7.15339053 11.75 7.3125 C6.50650063 7.27115835 3.81501709 6.60879995 0 3 C0 2.01 0 1.02 0 0 Z " fill="#000000" transform="translate(26,49)"/>
<path d="M0 0 C0.99 0 1.98 0 3 0 C3 0.99 3 1.98 3 3 C2.01 3 1.02 3 0 3 C0 2.01 0 1.02 0 0 Z " fill="#000000" transform="translate(49,30)"/>
</svg>
