<?xml version="1.0" encoding="UTF-8"?>
<svg version="1.1" xmlns="http://www.w3.org/2000/svg" width="64" height="64">
<path d="M0 0 C1.25542714 0.47445258 2.51128401 0.94776971 3.76757812 1.41992188 C12.8841008 4.8841008 12.8841008 4.8841008 14.0625 6.0625 C14.19024845 8.47189516 14.24771564 10.83999676 14.25 13.25 C14.26417969 14.56355469 14.27835937 15.87710937 14.29296875 17.23046875 C14.0625 21.0625 14.0625 21.0625 13.06640625 23.890625 C11.6168507 28.4705437 11.77275201 32.85192873 11.8125 37.625 C11.80476563 38.55763672 11.79703125 39.49027344 11.7890625 40.45117188 C11.80263574 45.21198697 12.11707853 48.66986185 14.0625 53.0625 C14.0625 55.0425 14.0625 57.0225 14.0625 59.0625 C-7.0575 59.0625 -28.1775 59.0625 -49.9375 59.0625 C-48.9375 49.0625 -48.9375 49.0625 -47.9375 48.0625 C-47.68457774 44.67419191 -47.75226593 41.27162276 -47.75 37.875 C-47.73775391 36.92818359 -47.72550781 35.98136719 -47.71289062 35.00585938 C-47.70209722 29.85020788 -48.20840442 25.95143299 -49.9375 21.0625 C-50.07224123 18.39462358 -50.12947861 15.84603559 -50.0625 13.1875 C-50.05347656 12.49914062 -50.04445312 11.81078125 -50.03515625 11.1015625 C-50.01182513 9.42172162 -49.97596326 7.74206254 -49.9375 6.0625 C-48.02467875 5.22037744 -46.10707527 4.38911136 -44.1875 3.5625 C-43.12015625 3.0984375 -42.0528125 2.634375 -40.953125 2.15625 C-37.9375 1.0625 -37.9375 1.0625 -33.9375 1.0625 C-34.9375 4.0625 -34.9375 4.0625 -37.1171875 5.23046875 C-38.00664063 5.56691406 -38.89609375 5.90335938 -39.8125 6.25 C-40.69679688 6.59417969 -41.58109375 6.93835937 -42.4921875 7.29296875 C-44.9375 8.0625 -44.9375 8.0625 -47.9375 8.0625 C-47.9375 11.6925 -47.9375 15.3225 -47.9375 19.0625 C-28.1375 19.0625 -8.3375 19.0625 12.0625 19.0625 C12.0625 15.4325 12.0625 11.8025 12.0625 8.0625 C11.26585937 7.97097656 10.46921875 7.87945312 9.6484375 7.78515625 C5.08826372 6.86616698 0.99207697 5.23350189 -3.3125 3.5 C-4.14394531 3.17064453 -4.97539063 2.84128906 -5.83203125 2.50195312 C-7.86934618 1.69405238 -9.90434442 0.8807989 -11.9375 0.0625 C-13.19173759 1.13183752 -13.19173759 1.13183752 -13.4375 3.5625 C-13.9375 6.0625 -13.9375 6.0625 -14.9375 7.0625 C-13.6175 7.3925 -12.2975 7.7225 -10.9375 8.0625 C-10.9375 11.3625 -10.9375 14.6625 -10.9375 18.0625 C-12.9175 18.0625 -14.8975 18.0625 -16.9375 18.0625 C-16.9375 14.7625 -16.9375 11.4625 -16.9375 8.0625 C-19.07155279 12.33060559 -18.97645435 12.79124321 -17.9375 17.0625 C-18.9375 18.0625 -18.9375 18.0625 -21.5 18.125 C-22.304375 18.104375 -23.10875 18.08375 -23.9375 18.0625 C-24.88774979 14.36708414 -24.88774979 11.75791586 -23.9375 8.0625 C-22.9475 7.7325 -21.9575 7.4025 -20.9375 7.0625 C-21.5975 6.4025 -22.2575 5.7425 -22.9375 5.0625 C-22.5625 2.4375 -22.5625 2.4375 -21.9375 0.0625 C-23.54625 0.5575 -23.54625 0.5575 -25.1875 1.0625 C-28.9375 2.0625 -28.9375 2.0625 -32.9375 2.0625 C-31.9375 -0.9375 -31.9375 -0.9375 -29.93359375 -2.10546875 C-29.08925781 -2.44191406 -28.24492187 -2.77835937 -27.375 -3.125 C-26.54871094 -3.46917969 -25.72242187 -3.81335938 -24.87109375 -4.16796875 C-15.66560998 -6.58272282 -8.59248139 -3.33772594 0 0 Z M-18.9375 1.0625 C-18.9375 2.3825 -18.9375 3.7025 -18.9375 5.0625 C-17.9475 4.7325 -16.9575 4.4025 -15.9375 4.0625 C-16.2675 3.0725 -16.5975 2.0825 -16.9375 1.0625 C-17.5975 1.0625 -18.2575 1.0625 -18.9375 1.0625 Z M-45.9375 22.0625 C-45.9375 23.0525 -45.9375 24.0425 -45.9375 25.0625 C-43.2975 25.0625 -40.6575 25.0625 -37.9375 25.0625 C-37.9375 24.0725 -37.9375 23.0825 -37.9375 22.0625 C-40.5775 22.0625 -43.2175 22.0625 -45.9375 22.0625 Z M-34.9375 22.0625 C-37.5950787 27.04018709 -37.23278909 32.07497182 -37.1875 37.5625 C-37.19523437 38.49964844 -37.20296875 39.43679687 -37.2109375 40.40234375 C-37.19779486 45.03512548 -37.17407735 48.87335512 -34.9375 53.0625 C-31.6375 53.0625 -28.3375 53.0625 -24.9375 53.0625 C-22.2799213 48.08481291 -22.64221091 43.05002818 -22.6875 37.5625 C-22.67976563 36.62535156 -22.67203125 35.68820313 -22.6640625 34.72265625 C-22.67720514 30.08987452 -22.70092265 26.25164488 -24.9375 22.0625 C-28.2375 22.0625 -31.5375 22.0625 -34.9375 22.0625 Z M-21.9375 22.0625 C-21.9375 23.0525 -21.9375 24.0425 -21.9375 25.0625 C-19.2975 25.0625 -16.6575 25.0625 -13.9375 25.0625 C-13.9375 24.0725 -13.9375 23.0825 -13.9375 22.0625 C-16.5775 22.0625 -19.2175 22.0625 -21.9375 22.0625 Z M-10.9375 22.0625 C-13.5950787 27.04018709 -13.23278909 32.07497182 -13.1875 37.5625 C-13.19523437 38.49964844 -13.20296875 39.43679687 -13.2109375 40.40234375 C-13.19779486 45.03512548 -13.17407735 48.87335512 -10.9375 53.0625 C-7.6375 53.0625 -4.3375 53.0625 -0.9375 53.0625 C1.06035435 48.9419254 1.24085515 45.61055635 1.0625 41.0625 C2.0525 41.0625 3.0425 41.0625 4.0625 41.0625 C4.0625 43.0425 4.0625 45.0225 4.0625 47.0625 C5.3825 47.0625 6.7025 47.0625 8.0625 47.0625 C8.0625 40.4625 8.0625 33.8625 8.0625 27.0625 C6.7425 27.0625 5.4225 27.0625 4.0625 27.0625 C4.0625 31.0225 4.0625 34.9825 4.0625 39.0625 C3.0725 39.0625 2.0825 39.0625 1.0625 39.0625 C1.08570313 38.25425781 1.10890625 37.44601563 1.1328125 36.61328125 C1.15085937 35.54464844 1.16890625 34.47601563 1.1875 33.375 C1.21070313 32.31925781 1.23390625 31.26351562 1.2578125 30.17578125 C1.06108729 27.03998141 0.39307654 24.88604627 -0.9375 22.0625 C-4.2375 22.0625 -7.5375 22.0625 -10.9375 22.0625 Z M2.0625 22.0625 C2.0625 23.0525 2.0625 24.0425 2.0625 25.0625 C4.7025 25.0625 7.3425 25.0625 10.0625 25.0625 C10.0625 24.0725 10.0625 23.0825 10.0625 22.0625 C7.4225 22.0625 4.7825 22.0625 2.0625 22.0625 Z M-43.9375 27.0625 C-43.9375 33.6625 -43.9375 40.2625 -43.9375 47.0625 C-42.6175 47.0625 -41.2975 47.0625 -39.9375 47.0625 C-39.9375 40.4625 -39.9375 33.8625 -39.9375 27.0625 C-41.2575 27.0625 -42.5775 27.0625 -43.9375 27.0625 Z M-19.9375 27.0625 C-19.9375 33.6625 -19.9375 40.2625 -19.9375 47.0625 C-18.6175 47.0625 -17.2975 47.0625 -15.9375 47.0625 C-15.9375 40.4625 -15.9375 33.8625 -15.9375 27.0625 C-17.2575 27.0625 -18.5775 27.0625 -19.9375 27.0625 Z M-45.9375 50.0625 C-45.9375 51.0525 -45.9375 52.0425 -45.9375 53.0625 C-43.2975 53.0625 -40.6575 53.0625 -37.9375 53.0625 C-37.9375 52.0725 -37.9375 51.0825 -37.9375 50.0625 C-40.5775 50.0625 -43.2175 50.0625 -45.9375 50.0625 Z M-21.9375 50.0625 C-21.9375 51.0525 -21.9375 52.0425 -21.9375 53.0625 C-19.2975 53.0625 -16.6575 53.0625 -13.9375 53.0625 C-13.9375 52.0725 -13.9375 51.0825 -13.9375 50.0625 C-16.5775 50.0625 -19.2175 50.0625 -21.9375 50.0625 Z M2.0625 50.0625 C2.0625 51.0525 2.0625 52.0425 2.0625 53.0625 C4.7025 53.0625 7.3425 53.0625 10.0625 53.0625 C10.0625 52.0725 10.0625 51.0825 10.0625 50.0625 C7.4225 50.0625 4.7825 50.0625 2.0625 50.0625 Z M-47.9375 56.0625 C-47.9375 56.3925 -47.9375 56.7225 -47.9375 57.0625 C-28.1375 57.0625 -8.3375 57.0625 12.0625 57.0625 C12.0625 56.7325 12.0625 56.4025 12.0625 56.0625 C-7.7375 56.0625 -27.5375 56.0625 -47.9375 56.0625 Z " fill="#000000" transform="translate(49.9375,4.9375)"/>
<path d="M0 0 C1.98 0.495 1.98 0.495 4 1 C6.18703385 0.62092718 6.18703385 0.62092718 8 0 C10 6.625 10 6.625 10 10 C6.37 10 2.74 10 -1 10 C-0.67 6.7 -0.34 3.4 0 0 Z " fill="#000000" transform="translate(5,13)"/>
<path d="M0 0 C1.33599921 0.32248257 2.66893378 0.65772583 4 1 C5.32 1 6.64 1 8 1 C8.33 3.97 8.66 6.94 9 10 C5.37 10 1.74 10 -2 10 C-1.125 1.125 -1.125 1.125 0 0 Z " fill="#000000" transform="translate(51,13)"/>
<path d="M0 0 C0.99 0 1.98 0 3 0 C3 2.31 3 4.62 3 7 C3.66 7 4.32 7 5 7 C5 5.02 5 3.04 5 1 C5.99 0.67 6.98 0.34 8 0 C8.02689216 1.47906892 8.04634621 2.95827483 8.0625 4.4375 C8.07410156 5.26121094 8.08570313 6.08492187 8.09765625 6.93359375 C8 9 8 9 7 10 C4.5625 10.1875 4.5625 10.1875 2 10 C0 8 0 8 -0.1953125 6.0546875 C-0.13020833 4.03645833 -0.06510417 2.01822917 0 0 Z " fill="#000000" transform="translate(40,13)"/>
<path d="M0 0 C0.99 0.33 1.98 0.66 3 1 C3 2.98 3 4.96 3 7 C3.66 7 4.32 7 5 7 C5 4.69 5 2.38 5 0 C5.99 0 6.98 0 8 0 C8.1953125 6.0546875 8.1953125 6.0546875 8 8 C6 10 6 10 3.4375 10.1875 C1 10 1 10 0 9 C-0.07179964 7.48071962 -0.08392007 5.95832518 -0.0625 4.4375 C-0.05347656 3.61121094 -0.04445313 2.78492188 -0.03515625 1.93359375 C-0.02355469 1.29550781 -0.01195312 0.65742188 0 0 Z " fill="#000000" transform="translate(16,13)"/>
</svg>
