<?xml version="1.0" encoding="UTF-8"?>
<svg version="1.1" xmlns="http://www.w3.org/2000/svg" width="64" height="64">
<path d="M0 0 C0.12368107 5.33845574 0.21437609 10.67607624 0.2746582 16.015625 C0.299789 17.83152799 0.33389961 19.64732996 0.37719727 21.46289062 C0.43791511 24.07447223 0.46622281 26.68471594 0.48828125 29.296875 C0.51408768 30.10743347 0.5398941 30.91799194 0.56648254 31.75311279 C0.56846904 35.75332959 0.41984129 37.55856785 -2.38793945 40.51074219 C-6.35554798 42.77286126 -9.56157866 42.7785296 -14 42 C-17.0625 40.4375 -17.0625 40.4375 -19 38 C-19.62803756 34.09221072 -19.62921905 31.99626349 -17.5 28.625 C-13.92085556 26.29855611 -11.266994 26.20319019 -7 26 C-6.01 26.33 -5.02 26.66 -4 27 C-4 22.71 -4 18.42 -4 14 C-10.93 16.97 -17.86 19.94 -25 23 C-25.01417969 24.83046875 -25.02835938 26.6609375 -25.04296875 28.546875 C-25.08986459 30.94794203 -25.13811199 33.34898294 -25.1875 35.75 C-25.19330078 36.9565625 -25.19910156 38.163125 -25.20507812 39.40625 C-25.24858398 41.14648438 -25.24858398 41.14648438 -25.29296875 42.921875 C-25.3086792 43.99018555 -25.32438965 45.05849609 -25.34057617 46.15917969 C-26.21609366 49.93093884 -27.78590962 50.96733096 -31 53 C-35.51730043 53.94661457 -39.63635233 53.81169504 -43.625 51.4375 C-45.54211763 48.03897329 -45.54861638 45.84031465 -45 42 C-43.625 39.5625 -43.625 39.5625 -41 38 C-37.7 38 -34.4 38 -31 38 C-30.67 29.42 -30.34 20.84 -30 12 C-23.56949488 8.70632665 -17.11813553 5.52141992 -10.5 2.625 C-9.3553125 2.12226563 -8.210625 1.61953125 -7.03125 1.1015625 C-4 0 -4 0 0 0 Z M-5 6 C-15.395 10.455 -15.395 10.455 -26 15 C-26 15.66 -26 16.32 -26 17 C-18.81783567 14.72564796 -11.9241798 11.96415819 -5 9 C-5 8.01 -5 7.02 -5 6 Z M-14 33 C-13.6814823 35.10820797 -13.6814823 35.10820797 -13 37 C-9.58357241 37.25015873 -9.58357241 37.25015873 -6 37 C-5.34 36.01 -4.68 35.02 -4 34 C-5.81112073 31.71226855 -6.60720543 31.04790178 -9.5625 30.6875 C-12.17796419 30.77033253 -12.17796419 30.77033253 -14 33 Z M-39.1875 44 C-39.785625 44.66 -40.38375 45.32 -41 46 C-39.30504044 47.66846734 -39.30504044 47.66846734 -37 49 C-34.3015411 48.77802187 -34.3015411 48.77802187 -32 48 C-31.67 46.68 -31.34 45.36 -31 44 C-34.64583007 41.56944662 -35.86896837 40.96591394 -39.1875 44 Z " fill="#000000" transform="translate(64,11)"/>
<path d="M0 0 C5.47801267 1.09560253 5.98839235 1.56702753 9.1875 5.75 C9.86167969 6.61109375 10.53585938 7.4721875 11.23046875 8.359375 C14.88571974 13.81401003 15.74679038 18.54726433 15 25 C13.8125 28.0625 13.8125 28.0625 12 30 C9.3125 30.3125 9.3125 30.3125 7 30 C7.54723683 26.62537285 8.0549 24.91765 10 22 C9.77565593 16.95225851 7.82974605 14.07415245 5 10 C4.9906543 10.79696289 4.98130859 11.59392578 4.97167969 12.41503906 C4.91798502 16.02732175 4.83433392 19.63830821 4.75 23.25 C4.72873047 25.13138672 4.72873047 25.13138672 4.70703125 27.05078125 C4.67480469 28.25605469 4.64257812 29.46132813 4.609375 30.703125 C4.5779541 32.36843262 4.5779541 32.36843262 4.54589844 34.06738281 C3.87923025 37.64878631 2.8798667 38.82446933 0 41 C-4.77610136 42.15550839 -6.86538655 42.45384538 -11.4375 40.625 C-14 39 -14 39 -15 38 C-15.69826373 30.90098545 -15.69826373 30.90098545 -13.0625 27.5 C-10 26 -10 26 -1 26 C-0.67 17.42 -0.34 8.84 0 0 Z M-9 31 C-9.99 32.485 -9.99 32.485 -11 34 C-9.18887927 36.28773145 -8.39279457 36.95209822 -5.4375 37.3125 C-2.82203581 37.22966747 -2.82203581 37.22966747 -1 35 C-1.3185177 32.89179203 -1.3185177 32.89179203 -2 31 C-5.41642759 30.74984127 -5.41642759 30.74984127 -9 31 Z " fill="#000000" transform="translate(15,0)"/>
</svg>
