<?xml version="1.0" encoding="UTF-8"?>
<svg version="1.1" xmlns="http://www.w3.org/2000/svg" width="64" height="64">
    <path
        d="M0 0 C2.475 0.495 2.475 0.495 5 1 C5.495 2.98 5.495 2.98 6 5 C7.98 5.33 9.96 5.66 12 6 C12 7.32 12 8.64 12 10 C12.680625 10.165 13.36125 10.33 14.0625 10.5 C19.50609315 13.27970714 23.09966288 17.84701992 25.4375 23.4375 C26.48613412 30.07884945 26.59356952 35.67817428 24 42 C23.01 42 22.02 42 21 42 C21.165 41.01 21.33 40.02 21.5 39 C22.58700227 30.92049061 22.31775034 25.08446414 18 18 C15.25085066 15.3195794 12.49882853 13.5550349 9 12 C9 12.66 9 13.32 9 14 C9.721875 14.20625 10.44375 14.4125 11.1875 14.625 C16.06539263 17.00974751 18.35709692 20.45118805 20.375 25.3125 C21.370568 31.18635117 21.30819667 36.47646659 17.9375 41.5625 C16.9784375 42.7690625 16.9784375 42.7690625 16 44 C18.00441446 44.10866356 18.00441446 44.10866356 19.8125 43.375 C22.80995349 42.86115083 24.37965633 43.51277792 27 45 C27.8125 47.125 27.8125 47.125 28 49 C30.97 49.495 30.97 49.495 34 50 C34.125 52.375 34.125 52.375 34 55 C33.34 55.66 32.68 56.32 32 57 C31.59952556 59.32275177 31.2602896 61.65739357 31 64 C29.205625 63.7215625 29.205625 63.7215625 27.375 63.4375 C23.71716293 62.9688803 20.62137834 63.18518987 17 64 C17 62.35 17 60.7 17 59 C14.36 59 11.72 59 9 59 C9 58.01 9 57.02 9 56 C11.475 55.505 11.475 55.505 14 55 C14 53.35 14 51.7 14 50 C6.08 50 -1.84 50 -10 50 C-10 51.65 -10 53.3 -10 55 C-4.39 55.33 1.22 55.66 7 56 C7 56.99 7 57.98 7 59 C0.4 59 -6.2 59 -13 59 C-13 60.65 -13 62.3 -13 64 C-14.794375 63.7215625 -14.794375 63.7215625 -16.625 63.4375 C-20.28283707 62.9688803 -23.37862166 63.18518987 -27 64 C-27.12375 62.88625 -27.2475 61.7725 -27.375 60.625 C-27.6465813 56.96896323 -27.6465813 56.96896323 -30 55 C-30.125 52.375 -30.125 52.375 -30 50 C-29.05125 49.938125 -28.1025 49.87625 -27.125 49.8125 C-26.09375 49.544375 -25.0625 49.27625 -24 49 C-22.54708727 46.53744315 -22.54708727 46.53744315 -22 44 C-21.01 44 -20.02 44 -19 44 C-19.7425 42.2984375 -19.7425 42.2984375 -20.5 40.5625 C-22.95746313 33.92734954 -22.87505208 27.53226636 -20.1171875 20.9921875 C-17.74216746 16.7570119 -14.54162732 11.82636389 -9.77734375 10.27734375 C-9.19082031 10.18582031 -8.60429687 10.09429687 -8 10 C-8 8.68 -8 7.36 -8 6 C-6.576875 5.9071875 -6.576875 5.9071875 -5.125 5.8125 C-4.09375 5.544375 -3.0625 5.27625 -2 5 C-0.54708727 2.53744315 -0.54708727 2.53744315 0 0 Z M1 4 C0.01 5.485 0.01 5.485 -1 7 C-3.125 8.1875 -3.125 8.1875 -5 9 C-4.34 9.66 -3.68 10.32 -3 11 C-2.375 13.625 -2.375 13.625 -2 16 C0.64 16 3.28 16 6 16 C6.309375 15.05125 6.61875 14.1025 6.9375 13.125 C8 10 8 10 9 8 C8.195625 7.71125 7.39125 7.4225 6.5625 7.125 C4 6 4 6 3 4 C2.34 4 1.68 4 1 4 Z M-13 16 C-17.95749962 21.23291627 -19.47186242 26.60452567 -19.328125 33.68359375 C-18.64831924 38.48269871 -16.40210815 42.59789185 -13 46 C-11.515 45.505 -11.515 45.505 -10 45 C-10.61875 44.34 -11.2375 43.68 -11.875 43 C-14.49874482 39.29588966 -15.10086342 36.42075485 -16 32 C-13.21031753 33.39484124 -13.03777224 35.38146782 -11.921875 38.1484375 C-10.18794254 41.63099675 -7.46161539 44.26919231 -4 46 C1.58393133 46.5099099 6.44052088 46.73870063 11.5625 44.3125 C15.76272971 40.32766669 17.53869456 36.92453595 18.05859375 31.05078125 C17.9378133 26.82346554 16.43571913 23.44300705 13.4609375 20.453125 C12.0236386 19.24061692 10.51638535 18.11201593 9 17 C9 17.99 9 18.98 9 20 C7.80375 19.62875 6.6075 19.2575 5.375 18.875 C1.34606752 17.84267566 -1.15330304 18.26898637 -5 20 C-5.33 19.01 -5.66 18.02 -6 17 C-11.60301052 22.80508926 -11.60301052 22.80508926 -15 30 C-14.6166563 24.34568045 -14.22219898 21.10491567 -10 17 C-8.34338239 15.98343919 -6.67888441 14.97934924 -5 14 C-5 13.34 -5 12.68 -5 12 C-8.36336147 12 -10.36135124 14.04739992 -13 16 Z M-21 48 C-21.33 49.32 -21.66 50.64 -22 52 C-23.65 52 -25.3 52 -27 52 C-26.01 53.485 -26.01 53.485 -25 55 C-24.61500109 56.65549531 -24.27206865 58.3222433 -24 60 C-21.36 60 -18.72 60 -16 60 C-15.690625 59.05125 -15.38125 58.1025 -15.0625 57.125 C-14 54 -14 54 -13 52 C-14.65 52 -16.3 52 -18 52 C-18.33 50.68 -18.66 49.36 -19 48 C-19.66 48 -20.32 48 -21 48 Z M23 48 C22.67 49.32 22.34 50.64 22 52 C20.35 52 18.7 52 17 52 C17.99 53.485 17.99 53.485 19 55 C19.38499891 56.65549531 19.72793135 58.3222433 20 60 C22.64 60 25.28 60 28 60 C28.309375 59.05125 28.61875 58.1025 28.9375 57.125 C30 54 30 54 31 52 C29.35 52 27.7 52 26 52 C25.67 50.68 25.34 49.36 25 48 C24.34 48 23.68 48 23 48 Z "
        fill="purple" transform="translate(30,0)" />
    <path
        d="M0 0 C1.32 0 2.64 0 4 0 C4.33 0.66 4.66 1.32 5 2 C5.33 1.34 5.66 0.68 6 0 C8.875 -0.125 8.875 -0.125 12 0 C12.66 0.66 13.32 1.32 14 2 C14.33 1.34 14.66 0.68 15 0 C17.97 0 20.94 0 24 0 C24.625 2.375 24.625 2.375 25 5 C24.34 5.66 23.68 6.32 23 7 C22.01 7 21.02 7 20 7 C20 8.32 20 9.64 20 11 C18.68 10.34 17.36 9.68 16 9 C15.67 9.66 15.34 10.32 15 11 C14.01 10.67 13.02 10.34 12 10 C11.67 9.34 11.34 8.68 11 8 C10.67 8.99 10.34 9.98 10 11 C9.34 11 8.68 11 8 11 C8 10.34 8 9.68 8 9 C7.34 9 6.68 9 6 9 C6 9.66 6 10.32 6 11 C5.401875 10.835 4.80375 10.67 4.1875 10.5 C1.88655664 9.8885876 1.88655664 9.8885876 -1 10 C-0.67 6.7 -0.34 3.4 0 0 Z M20 2 C20 2.66 20 3.32 20 4 C20.66 3.67 21.32 3.34 22 3 C21.34 2.67 20.68 2.34 20 2 Z "
        fill="purple" transform="translate(20,26)" />
    <path d="M0 0 C6.6 0 13.2 0 20 0 C20 0.99 20 1.98 20 3 C13.4 3 6.8 3 0 3 C0 2.01 0 1.02 0 0 Z "
        fill="purple" transform="translate(22,51)" />
</svg>