<?xml version="1.0" encoding="UTF-8"?>
<svg version="1.1" xmlns="http://www.w3.org/2000/svg" width="64" height="64">
<path d="M0 0 C8.74309839 5.12421592 13.0740533 11.80028491 16.24609375 21.31640625 C17.11674182 32.29228104 16.02200762 40.86817162 9.12109375 49.62890625 C4.09421563 55.00396641 -3.37374664 58.96895536 -10.7578125 59.5546875 C-21.75333138 59.78401226 -29.82601455 58.02756205 -37.99609375 50.38671875 C-45.29698912 41.78788643 -46.5726378 32.22892826 -45.75390625 21.31640625 C-44.12055634 14.10408404 -40.38817858 8.10022238 -34.75390625 3.31640625 C-24.02824933 -3.23635071 -11.77133923 -5.54741274 0 0 Z M-34.75390625 11.31640625 C-35.47578125 12.12078125 -36.19765625 12.92515625 -36.94140625 13.75390625 C-41.38532453 20.03668727 -41.53137949 26.84882373 -40.75390625 34.31640625 C-39.11922401 40.20126233 -36.42103765 44.33226969 -31.75390625 48.31640625 C-30.94953125 49.03828125 -30.14515625 49.76015625 -29.31640625 50.50390625 C-23.03362523 54.94782453 -16.22148877 55.09387949 -8.75390625 54.31640625 C-2.86905017 52.68172401 1.26195719 49.98353765 5.24609375 45.31640625 C5.96796875 44.51203125 6.68984375 43.70765625 7.43359375 42.87890625 C11.87751203 36.59612523 12.02356699 29.78398877 11.24609375 22.31640625 C9.61141151 16.43155017 6.91322515 12.30054281 2.24609375 8.31640625 C1.44171875 7.59453125 0.63734375 6.87265625 -0.19140625 6.12890625 C-11.24837534 -1.69187677 -26.26131971 1.36794774 -34.75390625 11.31640625 Z " fill="#000000" transform="translate(46.75390625,3.68359375)"/>
<path d="M0 0 C1.084021 0.00523682 2.16804199 0.01047363 3.28491211 0.01586914 C5.03964844 0.02070312 5.03964844 0.02070312 6.82983398 0.02563477 C8.67738281 0.03820313 8.67738281 0.03820313 10.56225586 0.05102539 C12.41560547 0.05779297 12.41560547 0.05779297 14.30639648 0.06469727 C17.37089703 0.07652931 20.43530307 0.09301366 23.49975586 0.11352539 C24.06225586 2.05102539 24.06225586 2.05102539 24.49975586 4.11352539 C23.49975586 5.11352539 23.49975586 5.11352539 20.99951172 5.22705078 C19.91549072 5.22181396 18.83146973 5.21657715 17.71459961 5.21118164 C16.54477539 5.20795898 15.37495117 5.20473633 14.16967773 5.20141602 C12.93797852 5.19303711 11.7062793 5.1846582 10.43725586 5.17602539 C8.58390625 5.16925781 8.58390625 5.16925781 6.69311523 5.16235352 C3.62861469 5.15052147 0.56420864 5.13403712 -2.50024414 5.11352539 C-3.06274414 3.17602539 -3.06274414 3.17602539 -3.50024414 1.11352539 C-2.50024414 0.11352539 -2.50024414 0.11352539 0 0 Z " fill="#000000" transform="translate(21.500244140625,38.886474609375)"/>
<path d="M0 0 C2.5625 0.1875 2.5625 0.1875 4.5625 2.1875 C4.1875 5.3125 4.1875 5.3125 3.5625 8.1875 C1.25 8.875 1.25 8.875 -1.4375 9.1875 C-3.3125 8.0625 -3.3125 8.0625 -4.4375 6.1875 C-3.87661439 0.29820111 -3.87661439 0.29820111 0 0 Z " fill="#000000" transform="translate(41.4375,19.8125)"/>
<path d="M0 0 C1.2684375 0.12375 1.2684375 0.12375 2.5625 0.25 C4.5625 3.25 4.5625 3.25 4.1875 5.9375 C3.98125 6.700625 3.775 7.46375 3.5625 8.25 C1.25 8.9375 1.25 8.9375 -1.4375 9.25 C-3.3125 8.125 -3.3125 8.125 -4.4375 6.25 C-3.88016338 0.39796547 -3.88016338 0.39796547 0 0 Z " fill="#000000" transform="translate(22.4375,19.75)"/>
</svg>
