<?xml version="1.0" encoding="UTF-8"?>
<svg version="1.1" xmlns="http://www.w3.org/2000/svg" width="64" height="64">
<path d="M0 0 C3.97937793 0.40142137 5.97379274 1.46685901 8.79638672 4.24707031 C9.85175125 5.27383881 9.85175125 5.27383881 10.92843628 6.3213501 C11.67134918 7.06608582 12.41426208 7.81082153 13.1796875 8.578125 C13.95184601 9.34171326 14.72400452 10.10530151 15.51956177 10.89202881 C17.14671414 12.50770509 18.76866359 14.12863579 20.38574219 15.75439453 C22.86942782 18.24441361 25.37859228 20.70658979 27.890625 23.16796875 C29.46776559 24.74056473 31.04334159 26.31473172 32.6171875 27.890625 C33.37224579 28.62726379 34.12730408 29.36390259 34.90524292 30.12286377 C35.58990631 30.81998474 36.2745697 31.51710571 36.97998047 32.23535156 C37.89334671 33.14682953 37.89334671 33.14682953 38.82516479 34.07672119 C40 36 40 36 39.80081177 38.63641357 C38.75493254 41.72331369 37.68591958 42.33594671 34.8125 43.8125 C27.54550973 47.08732394 19.64242361 47.56597025 12.05859375 45.0078125 C9.57408653 43.81554525 7.30197993 42.51122347 5 41 C3.6078125 40.13375 3.6078125 40.13375 2.1875 39.25 C-4.80663266 32.05603498 -6.39615108 24.12161902 -6.36328125 14.4140625 C-5.81365264 9.24873554 -3.75956765 3.75956765 0 0 Z M1 4 C-2.42514876 10.33040887 -4.13251864 15.78585623 -3 23 C-1.14509125 28.95274287 1.69938075 35.07463877 7.25 38.3125 C7.8275 38.539375 8.405 38.76625 9 39 C9 38.01 9 37.02 9 36 C9.99 36 10.98 36 12 36 C12.33397787 33.12586875 12.33397787 33.12586875 12 30 C11.34515625 29.55269531 10.6903125 29.10539062 10.015625 28.64453125 C8 27 8 27 7.46875 24.40625 C7.4790625 23.4471875 7.489375 22.488125 7.5 21.5 C7.48453125 20.06140625 7.48453125 20.06140625 7.46875 18.59375 C8 16 8 16 10.03125 14.15625 C10.6809375 13.7746875 11.330625 13.393125 12 13 C10.54782324 11.49403892 9.08807139 9.99537896 7.625 8.5 C6.81289063 7.6646875 6.00078125 6.829375 5.1640625 5.96875 C3.2410341 3.77568714 3.2410341 3.77568714 1 4 Z M10 17 C9.95875 18.27875 9.9175 19.5575 9.875 20.875 C9.85179687 21.59429687 9.82859375 22.31359375 9.8046875 23.0546875 C9.81668311 25.23863645 9.81668311 25.23863645 12 27 C14.78237655 26.59471099 14.78237655 26.59471099 17 25 C17.16666667 21.5 17.16666667 21.5 17 18 C15.87465895 16.64381501 15.87465895 16.64381501 12.9375 16.9375 C11.968125 16.958125 10.99875 16.97875 10 17 Z M20 22 C19.731875 22.94875 19.46375 23.8975 19.1875 24.875 C18 28 18 28 15 30 C14.7497843 33.08365871 14.7497843 33.08365871 15 36 C15.99 36 16.98 36 18 36 C18 36.99 18 37.98 18 39 C15.03 39 12.06 39 9 39 C13.84476297 42.97962673 18.18352508 43.3281195 24.31640625 43.30078125 C28.63382718 42.81687818 32.21274414 41.04914327 36 39 C35.67 38.34 35.34 37.68 35 37 C34.01 37.495 34.01 37.495 33 38 C29.32984725 38.1377685 25.67388652 38.04271961 22 38 C22 33.05 22 28.1 22 23 C21.34 22.67 20.68 22.34 20 22 Z M25 31 C25 32.65 25 34.3 25 36 C27.31 36 29.62 36 32 36 C31.50243908 33.24358584 31.50243908 33.24358584 30 31 C28.33382885 30.95936168 26.66611905 30.957279 25 31 Z " fill="#000000" transform="translate(10,14)"/>
<path d="M0 0 C8.34468007 4.97590182 13.53387008 11.86345977 16.109375 21.2578125 C17.10789012 32.35758522 16.45884702 41.9922991 9.359375 51.0703125 C3.70168013 57.1280464 -3.34488592 60.84888618 -11.625 61.59375 C-22.35447774 61.83515993 -31.19802606 60.58332943 -39.359375 52.9609375 C-46.75303791 44.73737365 -48.47252567 36.02335615 -48.203125 25.24609375 C-47.72879865 16.86039919 -44.11592977 9.8548755 -37.890625 4.2578125 C-27.15195714 -3.81766573 -12.32399863 -5.91386512 0 0 Z M-38.390625 9.5703125 C-39.73412934 11.35120015 -39.73412934 11.35120015 -40.890625 13.2578125 C-41.30054688 13.90234375 -41.71046875 14.546875 -42.1328125 15.2109375 C-45.70995773 21.87182862 -45.94810544 28.87159415 -44.890625 36.2578125 C-42.40751037 43.79489895 -38.68850529 50.01615992 -31.890625 54.2578125 C-31.24609375 54.66773438 -30.6015625 55.07765625 -29.9375 55.5 C-23.27660888 59.07714523 -16.27684335 59.31529294 -8.890625 58.2578125 C-1.35353855 55.77469787 4.86772242 52.05569279 9.109375 45.2578125 C9.51929688 44.61328125 9.92921875 43.96875 10.3515625 43.3046875 C13.92870773 36.64379638 14.16685544 29.64403085 13.109375 22.2578125 C10.62626037 14.72072605 6.90725529 8.49946508 0.109375 4.2578125 C-0.53515625 3.84789062 -1.1796875 3.43796875 -1.84375 3.015625 C-13.99364227 -3.50931715 -29.08574691 -0.38590705 -38.390625 9.5703125 Z " fill="#000000" transform="translate(47.890625,2.7421875)"/>
<path d="M0 0 C1.49991706 0.88230415 2.98278886 1.79499879 4.4375 2.75 C5.365625 3.3275 6.29375 3.905 7.25 4.5 C14.02304077 11.46655622 15.78817285 19.14519121 15.73046875 28.5625 C15.21655058 34.15392965 13.4611818 39.7263182 9.4375 43.75 C5.4538892 43.46294337 3.44477312 42.26449115 0.64111328 39.50292969 C-0.06246307 38.81841736 -0.76603943 38.13390503 -1.49093628 37.4286499 C-2.23384918 36.68391418 -2.97676208 35.93917847 -3.7421875 35.171875 C-4.51434601 34.40828674 -5.28650452 33.64469849 -6.08206177 32.85797119 C-7.70921414 31.24229491 -9.33116359 29.62136421 -10.94824219 27.99560547 C-13.43192782 25.50558639 -15.94109228 23.04341021 -18.453125 20.58203125 C-20.03026559 19.00943527 -21.60584159 17.43526828 -23.1796875 15.859375 C-23.93474579 15.12273621 -24.68980408 14.38609741 -25.46774292 13.62713623 C-26.15240631 12.93001526 -26.8370697 12.23289429 -27.54248047 11.51464844 C-28.1513913 10.90699646 -28.76030212 10.29934448 -29.38766479 9.67327881 C-30.5625 7.75 -30.5625 7.75 -30.36331177 5.11358643 C-29.31743254 2.02668631 -28.24841958 1.41405329 -25.375 -0.0625 C-17.15674117 -3.7660072 -8.16001933 -3.9158364 0 0 Z M-26.5625 4.75 C-24.95239473 8.82376031 -22.02427729 11.51507069 -18.9375 14.5 C-18.1640625 15.25990234 -18.1640625 15.25990234 -17.375 16.03515625 C-16.10866661 17.27803902 -14.8361856 18.51465276 -13.5625 19.75 C-13.27375 19.13125 -12.985 18.5125 -12.6875 17.875 C-11.5625 15.75 -11.5625 15.75 -9.5625 13.75 C-9.10243654 11.54749008 -9.10243654 11.54749008 -8.9375 9.125 C-8.86273438 8.30773437 -8.78796875 7.49046875 -8.7109375 6.6484375 C-8.66195312 6.02195312 -8.61296875 5.39546875 -8.5625 4.75 C-6.9125 4.75 -5.2625 4.75 -3.5625 4.75 C-3.2325 8.05 -2.9025 11.35 -2.5625 14.75 C-1.9025 14.75 -1.2425 14.75 -0.5625 14.75 C-0.55863281 16.70292969 -0.55863281 16.70292969 -0.5546875 18.6953125 C-0.5171528 20.42190889 -0.47800509 22.14847074 -0.4375 23.875 C-0.44007812 24.7309375 -0.44265625 25.586875 -0.4453125 26.46875 C-0.30011674 31.18761214 0.07486669 33.94986669 3.4921875 37.3671875 C4.46414062 38.15351562 5.43609375 38.93984375 6.4375 39.75 C7.4275 39.42 8.4175 39.09 9.4375 38.75 C12.69435485 32.11566604 13.90159378 25.48014914 11.67578125 18.2890625 C8.39339086 10.47878972 3.99898698 5.5898176 -3.5625 1.75 C-11.84840714 -0.87965915 -19.09449254 0.70933896 -26.5625 4.75 Z M-6.5625 11.75 C-7.80171302 14.72411124 -8.86308404 17.60262818 -9.5625 20.75 C-7.2525 20.75 -4.9425 20.75 -2.5625 20.75 C-2.8925 19.43 -3.2225 18.11 -3.5625 16.75 C-4.2225 16.75 -4.8825 16.75 -5.5625 16.75 C-5.5625 15.1 -5.5625 13.45 -5.5625 11.75 C-5.8925 11.75 -6.2225 11.75 -6.5625 11.75 Z M-8.5625 23.75 C-6.92080472 25.77054804 -5.25338222 27.77043058 -3.5625 29.75 C-3.2325 29.75 -2.9025 29.75 -2.5625 29.75 C-2.5625 27.77 -2.5625 25.79 -2.5625 23.75 C-4.5425 23.75 -6.5225 23.75 -8.5625 23.75 Z " fill="#000000" transform="translate(44.5625,6.25)"/>
</svg>
