<?xml version="1.0" encoding="UTF-8"?>
<svg version="1.1" xmlns="http://www.w3.org/2000/svg" width="64" height="64">
<path d="M0 0 C1.78401105 3.99057596 2.5978852 7.78438544 3.2890625 12.09375 C3.39721283 12.76289429 3.50536316 13.43203857 3.61679077 14.12145996 C3.84302731 15.52958276 4.06641834 16.93816539 4.28710938 18.34716797 C4.62412349 20.49441538 4.97151324 22.63979519 5.3203125 24.78515625 C7.14831164 36.23138439 7.14831164 36.23138439 7 41 C7.763125 40.938125 8.52625 40.87625 9.3125 40.8125 C12 41 12 41 13.70703125 42.2265625 C15 44 15 44 14.9609375 46.19140625 C14.76757812 46.97386719 14.57421875 47.75632813 14.375 48.5625 C14.19710937 49.34753906 14.01921875 50.13257813 13.8359375 50.94140625 C13 53 13 53 10 55 C9.855625 55.825 9.71125 56.65 9.5625 57.5 C9 60 9 60 7.4375 61.3125 C3.80632025 62.3366789 0.78101437 62.2400644 -3 62 C-6 60 -6 60 -6.73046875 58.01171875 C-6.88128906 57.24472656 -7.03210938 56.47773437 -7.1875 55.6875 C-7.34605469 54.92824219 -7.50460938 54.16898438 -7.66796875 53.38671875 C-8.01472575 50.89414785 -8.05782846 48.51331374 -8 46 C-8.76183594 45.89042969 -9.52367188 45.78085937 -10.30859375 45.66796875 C-16.83677611 44.66551378 -22.79917763 43.27363487 -29 41 C-28.67 38.36 -28.34 35.72 -28 33 C-27.34 33 -26.68 33 -26 33 C-26 32.01 -26 31.02 -26 30 C-25.01 30 -24.02 30 -23 30 C-22.67 29.01 -22.34 28.02 -22 27 C-21.34 27 -20.68 27 -20 27 C-19.01 29.31 -18.02 31.62 -17 34 C-16.01 34 -15.02 34 -14 34 C-14 35.98 -14 37.96 -14 40 C-12.35 40.66 -10.7 41.32 -9 42 C-9.18699463 40.93040039 -9.37398926 39.86080078 -9.56665039 38.75878906 C-10.25882134 34.78688006 -10.94022646 30.81318659 -11.6184082 26.83886719 C-11.91332765 25.11961164 -12.21115731 23.40085265 -12.51196289 21.68261719 C-12.94404463 19.21153816 -13.36559957 16.73885741 -13.78515625 14.265625 C-13.92156021 13.49881409 -14.05796417 12.73200317 -14.19850159 11.94195557 C-14.80133534 8.32874114 -15.23102349 5.47834469 -14 2 C-9.68702099 -0.69561188 -4.90290403 -0.19227075 0 0 Z M-11 4 C-8.08347826 4.16681109 -8.08347826 4.16681109 -5 4 C-4.34 3.34 -3.68 2.68 -3 2 C-6.71599191 1.79913557 -7.77208445 1.8480563 -11 4 Z M-9 6 C-9.99 6 -10.98 6 -12 6 C-11.53736765 13.09901362 -10.59363523 20.1003195 -9.5 27.125 C-9.36940186 27.97876221 -9.23880371 28.83252441 -9.10424805 29.7121582 C-8.80035286 33.68239725 -8.80035286 33.68239725 -7 37 C-1.12353969 37.46331437 -1.12353969 37.46331437 4 35 C3.91435791 34.37544922 3.82871582 33.75089844 3.74047852 33.10742188 C3.34733461 30.23834739 2.95491256 27.3691746 2.5625 24.5 C2.42779297 23.51773437 2.29308594 22.53546875 2.15429688 21.5234375 C2.02216797 20.55664062 1.89003906 19.58984375 1.75390625 18.59375 C1.62258301 17.645 1.49125977 16.69625 1.35595703 15.71875 C1.12994997 13.99253965 0.92525175 12.26329988 0.74951172 10.53125 C0.56151164 8.68017229 0.28985321 6.83788406 0 5 C-3.17902004 3.41048998 -5.70562684 5.01746765 -9 6 Z M-21 37 C-21 38.32 -21 39.64 -21 41 C-19.68 41.33 -18.36 41.66 -17 42 C-17 40.68 -17 39.36 -17 38 C-18.32 37.67 -19.64 37.34 -21 37 Z M4 38 C3.67 38.66 3.34 39.32 3 40 C3.66 40 4.32 40 5 40 C4.67 39.34 4.34 38.68 4 38 Z M-7 40 C-7 40.66 -7 41.32 -7 42 C-5.7934375 42.37125 -5.7934375 42.37125 -4.5625 42.75 C-2 44 -2 44 -1.1875 46.125 C-1.125625 46.74375 -1.06375 47.3625 -1 48 C-1.66 48 -2.32 48 -3 48 C-3 47.01 -3 46.02 -3 45 C-3.99 44.67 -4.98 44.34 -6 44 C-5.85816304 45.75032844 -5.71136571 47.50025534 -5.5625 49.25 C-5.48128906 50.22453125 -5.40007813 51.1990625 -5.31640625 52.203125 C-5.04701347 54.58442415 -4.78359604 56.73743129 -4 59 C-1.22899606 60.38550197 0.9334706 60.1877467 4 60 C4.99 59.34 5.98 58.68 7 58 C6.88628503 55.70774565 6.75869036 53.41617612 6.625 51.125 C6.55539063 49.84882812 6.48578125 48.57265625 6.4140625 47.2578125 C6.32758894 43.91938301 6.32758894 43.91938301 4 42 C3.01 43.485 3.01 43.485 2 45 C2.33 45.99 2.66 46.98 3 48 C2.34 48 1.68 48 1 48 C0.79913557 44.28400809 0.8480563 43.22791555 3 40 C-0.3 40 -3.6 40 -7 40 Z M8 45 C8 45.66 8 46.32 8 47 C8.66 46.67 9.32 46.34 10 46 C9.34 45.67 8.68 45.34 8 45 Z M9 49 C9 49.99 9 50.98 9 52 C9.66 51.67 10.32 51.34 11 51 C10.34 50.34 9.68 49.68 9 49 Z " fill="#000000" transform="translate(36,1)"/>
<path d="M0 0 C2.64 0.33 5.28 0.66 8 1 C7.35963063 7.62613779 6.29028836 14.04712709 4.9375 20.5625 C4.75123047 21.47580078 4.56496094 22.38910156 4.37304688 23.33007812 C3.91891897 25.55414045 3.461187 27.77739276 3 30 C1.02 30 -0.96 30 -3 30 C-4.29245907 26.12262278 -3.60926225 22.94474324 -3 19 C-2.87866699 18.19820312 -2.75733398 17.39640625 -2.63232422 16.5703125 C-2.24344377 14.04529352 -1.84241647 11.52249399 -1.4375 9 C-1.29892578 8.12988281 -1.16035156 7.25976562 -1.01757812 6.36328125 C-0.67957148 4.24199817 -0.33995416 2.12097184 0 0 Z M2 2 C0.54267938 8.64990964 -0.45136137 15.2142064 -1 22 C-0.01 22 0.98 22 2 22 C2.67099984 19.39688008 3.33695338 16.79264602 4 14.1875 C4.19078125 13.44951172 4.3815625 12.71152344 4.578125 11.95117188 C5.35262914 8.89464659 6 6.16626522 6 3 C4.68 2.67 3.36 2.34 2 2 Z M-2 26 C-2 26.66 -2 27.32 -2 28 C-1.01 28 -0.02 28 1 28 C1 27.34 1 26.68 1 26 C0.01 26 -0.98 26 -2 26 Z " fill="#000000" transform="translate(47,8)"/>
<path d="M0 0 C0.99 0 1.98 0 3 0 C3.33 2.31 3.66 4.62 4 7 C3.01 7 2.02 7 1 7 C0.67 4.69 0.34 2.38 0 0 Z " fill="#000000" transform="translate(35,51)"/>
</svg>
