<?xml version="1.0" encoding="UTF-8"?>
<svg version="1.1" xmlns="http://www.w3.org/2000/svg" width="128" height="128">
    <path
        d="M0 0 C1.37798767 -0.01925285 1.37798767 -0.01925285 2.78381348 -0.03889465 C3.76716675 -0.04628159 4.75052002 -0.05366852 5.76367188 -0.0612793 C6.79117554 -0.06935104 7.8186792 -0.07742279 8.87731934 -0.08573914 C11.05263599 -0.09955273 13.22797406 -0.11028703 15.40332031 -0.11816406 C17.60846391 -0.12964582 19.81358055 -0.15003666 22.01855469 -0.1796875 C51.86737077 -0.58068856 51.86737077 -0.58068856 63.30273438 9.26293945 C72.92601663 18.80830039 76.24472979 29.05223957 76.54882812 42.41918945 C76.56960922 43.18756134 76.59039032 43.95593323 76.61180115 44.74758911 C76.67675656 47.18230963 76.73592825 49.61713043 76.79492188 52.05200195 C76.83815857 53.71086615 76.88177444 55.36972051 76.92578125 57.02856445 C77.03238191 61.077943 77.13379858 65.12742159 77.23242188 69.17700195 C78.03679687 69.46575195 78.84117188 69.75450195 79.66992188 70.05200195 C82.23242188 71.17700195 82.23242188 71.17700195 83.23242188 73.17700195 C83.38075838 75.31932346 83.45369601 77.46724324 83.48242188 79.61450195 C83.52109375 81.34506836 83.52109375 81.34506836 83.56054688 83.1105957 C83.23242188 86.17700195 83.23242188 86.17700195 82.02267456 87.84484291 C79.65280318 89.60830659 78.20076647 89.55422845 75.26025391 89.55795288 C74.2339386 89.56641235 73.20762329 89.57487183 72.15020752 89.58358765 C71.02491638 89.57751495 69.89962524 89.57144226 68.74023438 89.56518555 C66.96190216 89.57307098 66.96190216 89.57307098 65.14764404 89.58111572 C61.89553423 89.59206727 58.6437899 89.58948609 55.39168549 89.57997847 C51.98979417 89.57238789 48.58792742 89.5794258 45.18603516 89.58413696 C39.47293712 89.58959629 33.75995539 89.58239833 28.046875 89.56811523 C21.43993624 89.55178827 14.83327519 89.55707666 8.22634315 89.57359445 C2.5557702 89.58720435 -3.11471911 89.58913145 -8.78530312 89.58127844 C-12.17297544 89.57659915 -15.56051719 89.57598398 -18.94818115 89.58588791 C-22.72411049 89.59348023 -26.49950153 89.5819285 -30.27539062 89.56518555 C-31.40068176 89.57125824 -32.5259729 89.57733093 -33.68536377 89.58358765 C-35.22483673 89.57089844 -35.22483673 89.57089844 -36.79541016 89.55795288 C-37.68841827 89.5568218 -38.58142639 89.55569073 -39.50149536 89.55452538 C-42.25021685 89.09659561 -43.13975716 88.41015924 -44.76757812 86.17700195 C-45.16601562 83.14575195 -45.16601562 83.14575195 -45.14257812 79.67700195 C-45.15417969 77.9599707 -45.15417969 77.9599707 -45.16601562 76.20825195 C-44.76757812 73.17700195 -44.76757812 73.17700195 -43.43164062 71.33325195 C-41.76757812 70.17700195 -41.76757812 70.17700195 -38.76757812 69.17700195 C-38.74775879 68.16387939 -38.72793945 67.15075684 -38.70751953 66.10693359 C-38.63084201 62.31031476 -38.54222622 58.51404854 -38.45019531 54.71777344 C-38.41216013 53.08177709 -38.37726524 51.44570434 -38.34570312 49.80957031 C-38.07085936 35.73671052 -37.53148858 23.07377872 -27.75976562 11.8762207 C-20.07003851 4.55857716 -10.67020239 0.13090671 0 0 Z "
        fill="#585966" transform="translate(44.767578125,31.822998046875)" />
    <path
        d="M0 0 C1.37798767 -0.01925285 1.37798767 -0.01925285 2.78381348 -0.03889465 C3.76716675 -0.04628159 4.75052002 -0.05366852 5.76367188 -0.0612793 C6.79117554 -0.06935104 7.8186792 -0.07742279 8.87731934 -0.08573914 C11.05263599 -0.09955273 13.22797406 -0.11028703 15.40332031 -0.11816406 C17.60846391 -0.12964582 19.81358055 -0.15003666 22.01855469 -0.1796875 C51.86737077 -0.58068856 51.86737077 -0.58068856 63.30273438 9.26293945 C71.46593747 17.36004373 76.01679938 26.60656571 76.34594727 38.1628418 C76.34579084 39.65455039 76.34025535 41.14626557 76.33007812 42.63793945 C76.32866318 43.42850739 76.32724823 44.21907532 76.32579041 45.03359985 C76.32022692 47.53977362 76.30768131 50.04585554 76.29492188 52.55200195 C76.28990215 54.25903191 76.28534007 55.96606327 76.28125 57.6730957 C76.27026947 61.84109943 76.25303026 66.00903516 76.23242188 70.17700195 C71.94242187 70.17700195 67.65242188 70.17700195 63.23242188 70.17700195 C63.1834375 69.11739258 63.13445312 68.0577832 63.08398438 66.96606445 C63.00895478 65.57801698 62.93340703 64.18999745 62.85742188 62.80200195 C62.82648438 62.10333008 62.79554687 61.4046582 62.76367188 60.68481445 C62.63742689 56.47514368 62.63742689 56.47514368 60.23242188 53.17700195 C57.34018684 52.71303502 57.34018684 52.71303502 54.10742188 52.55200195 C53.01171875 52.47723633 51.91601562 52.4024707 50.78710938 52.32543945 C49.9440625 52.27645508 49.10101563 52.2274707 48.23242188 52.17700195 C48.17634766 50.44063477 48.17634766 50.44063477 48.11914062 48.66918945 C48.05344763 47.13009634 47.98700145 45.59103525 47.91992188 44.05200195 C47.89736328 43.29145508 47.87480469 42.5309082 47.8515625 41.74731445 C47.62210313 36.90780771 47.00680565 33.30489305 44.23242188 29.17700195 C39.77011893 25.60641428 35.66882128 25.72409092 30.20507812 25.7434082 C29.33854111 25.73816635 28.47200409 25.7329245 27.57920837 25.7275238 C25.75114002 25.72111602 23.92303037 25.72242448 22.0949707 25.73095703 C19.30735383 25.73946401 16.52178949 25.71069455 13.734375 25.67895508 C11.95377665 25.67734273 10.1731747 25.67792123 8.39257812 25.6809082 C7.56427994 25.66967422 6.73598175 25.65844025 5.88258362 25.64686584 C0.53771297 25.71080044 -2.54267663 26.60755624 -6.76757812 30.17700195 C-8.81885656 33.25391961 -9.04018685 34.11345194 -9.18164062 37.6262207 C-9.2203125 38.4737793 -9.25898437 39.32133789 -9.29882812 40.19458008 C-9.34523438 41.51619141 -9.34523438 41.51619141 -9.39257812 42.86450195 C-9.43125 43.75717773 -9.46992187 44.64985352 -9.50976562 45.56958008 C-9.60397464 47.77171574 -9.68686306 49.97433042 -9.76757812 52.17700195 C-14.38757813 52.50700195 -19.00757813 52.83700195 -23.76757812 53.17700195 C-24.68909464 56.863068 -25.06566792 60.14971325 -25.33007812 63.92700195 C-25.41386719 65.0974707 -25.49765625 66.26793945 -25.58398438 67.47387695 C-25.64457031 68.3659082 -25.70515625 69.25793945 -25.76757812 70.17700195 C-29.72757813 70.17700195 -33.68757813 70.17700195 -37.76757812 70.17700195 C-37.8173873 65.21485826 -37.8534896 60.25286334 -37.87744141 55.29052734 C-37.8874371 53.60593121 -37.90103817 51.92135214 -37.91845703 50.23681641 C-37.94299089 47.80147055 -37.9541257 45.36635603 -37.96289062 42.9309082 C-37.9732132 42.18990372 -37.98353577 41.44889923 -37.99417114 40.68544006 C-37.99644486 29.84730913 -34.97693619 20.14648035 -27.75976562 11.8762207 C-20.07003851 4.55857716 -10.67020239 0.13090671 0 0 Z "
        fill="#CAE1F7" transform="translate(44.767578125,31.822998046875)" />
    <path
        d="M0 0 C0.96061844 0.00007553 1.92123688 0.00015106 2.91096497 0.00022888 C4.44716743 0.00797081 4.44716743 0.00797081 6.0144043 0.01586914 C7.07273972 0.01728409 8.13107513 0.01869904 9.22148132 0.02015686 C12.59389093 0.0257438 15.96623358 0.03829395 19.33862305 0.05102539 C21.62833563 0.05604208 23.91804925 0.06060469 26.20776367 0.06469727 C31.81390622 0.07570896 37.42000985 0.09243413 43.02612305 0.11352539 C45.13202655 3.97011976 45.57987033 6.68354709 45.02612305 11.11352539 C42.23093168 14.09331115 40.55334468 15.03943703 36.48022461 15.61181641 C35.1258919 15.63268532 33.77114621 15.6335008 32.41674805 15.61743164 C31.69050232 15.62685287 30.96425659 15.63627411 30.21600342 15.64598083 C27.90242144 15.6745384 25.58986649 15.67771461 23.27612305 15.67602539 C6.90484804 15.27675537 6.90484804 15.27675537 -7.41137695 22.30102539 C-10.79869447 25.11352539 -10.79869447 25.11352539 -12.97387695 25.11352539 C-13.25231445 25.69360352 -13.53075195 26.27368164 -13.81762695 26.87133789 C-14.92271067 29.01430429 -16.14861159 30.97638468 -17.47387695 32.98852539 C-21.11152316 38.80875931 -22.20732998 43.96044651 -22.63012695 50.74633789 C-22.97387695 53.11352539 -22.97387695 53.11352539 -23.96606445 54.99633789 C-25.36586367 57.93700135 -25.40467241 60.62678301 -25.59887695 63.86352539 C-25.67364258 65.03399414 -25.7484082 66.20446289 -25.82543945 67.41040039 C-25.87442383 68.30243164 -25.9234082 69.19446289 -25.97387695 70.11352539 C-29.93387695 70.11352539 -33.89387695 70.11352539 -37.97387695 70.11352539 C-38.02368613 65.1513817 -38.05978842 60.18938678 -38.08374023 55.22705078 C-38.09373592 53.54245464 -38.10733699 51.85787558 -38.12475586 50.17333984 C-38.14928971 47.73799398 -38.16042453 45.30287947 -38.16918945 42.86743164 C-38.17951202 42.12642715 -38.18983459 41.38542267 -38.20046997 40.6219635 C-38.20274369 29.78383256 -35.18323501 20.08300379 -27.96606445 11.81274414 C-20.22474384 4.44600356 -10.75219533 -0.02836991 0 0 Z "
        fill="#ECF6FE" transform="translate(44.973876953125,31.886474609375)" />
    <path
        d="M0 0 C0.86795197 -0.0066568 1.73590393 -0.0133136 2.63015747 -0.02017212 C4.46419154 -0.03028488 6.2982623 -0.03498956 8.13232422 -0.03466797 C10.92868139 -0.03903652 13.72345367 -0.07535665 16.51953125 -0.11328125 C18.30468212 -0.11915076 20.08984047 -0.12311925 21.875 -0.125 C23.12215286 -0.14655655 23.12215286 -0.14655655 24.39450073 -0.16854858 C29.7329822 -0.1268337 32.94529355 0.63182312 37.0703125 4.3359375 C40.0703125 10.3359375 40.0703125 10.3359375 40.0703125 27.3359375 C20.9303125 27.3359375 1.7903125 27.3359375 -17.9296875 27.3359375 C-17.9296875 8.3359375 -17.9296875 8.3359375 -12.9296875 2.3359375 C-9.20191482 -0.54107715 -4.5125081 0.01202088 0 0 Z "
        fill="#FA6C79" transform="translate(52.9296875,56.6640625)" />
    <path
        d="M0 0 C3 1 3 1 4 3 C4.14833651 5.1423215 4.22127413 7.29024129 4.25 9.4375 C4.27578125 10.59121094 4.3015625 11.74492188 4.328125 12.93359375 C4 16 4 16 2.7915144 17.66910267 C0.41298153 19.43608989 -1.0431046 19.36985682 -3.99235535 19.36076355 C-5.02300613 19.36488754 -6.05365692 19.36901154 -7.11553955 19.3732605 C-8.24554382 19.36247467 -9.3755481 19.35168884 -10.53979492 19.34057617 C-12.32535545 19.34123329 -12.32535545 19.34123329 -14.14698792 19.34190369 C-17.41132283 19.34017059 -20.67527296 19.32511547 -23.93953109 19.30418181 C-27.35080913 19.28544 -30.76209456 19.28366655 -34.17341614 19.28010559 C-40.63326172 19.27077775 -47.09295516 19.24615409 -53.55273372 19.21605712 C-60.9069345 19.182536 -68.26114252 19.16603288 -75.61540067 19.15097082 C-90.74368525 19.1196051 -105.87182742 19.06683035 -121 19 C-121.33 18.34 -121.66 17.68 -122 17 C-121.38125 16.95875 -120.7625 16.9175 -120.125 16.875 C-119.42375 16.58625 -118.7225 16.2975 -118 16 C-117.26919734 14.02253397 -116.60578253 12.01927511 -116 10 C-114.38685754 7.87878255 -113.52821655 7.09594397 -110.88171101 6.61523914 C-110.05854987 6.61063018 -109.23538874 6.60602121 -108.38728333 6.60127258 C-107.44077408 6.58873444 -106.49426483 6.57619629 -105.51907349 6.5632782 C-104.4825766 6.56471329 -103.44607971 6.56614838 -102.37817383 6.56762695 C-101.28533585 6.5574353 -100.19249786 6.54724365 -99.06654358 6.53674316 C-95.44665477 6.50649759 -91.82703007 6.49732937 -88.20703125 6.48828125 C-85.70024223 6.47144318 -83.1934617 6.45329414 -80.68669128 6.43388367 C-74.7581826 6.39115097 -68.82970131 6.36166208 -62.90109223 6.33856028 C-55.48930844 6.3088699 -48.07768769 6.25866904 -40.66601562 6.20898438 C-27.44407483 6.12283681 -14.22210527 6.05497243 -1 6 C-0.4465236 3.92446352 0 2.15634036 0 0 Z "
        fill="#42434D" transform="translate(124,102)" />
    <path
        d="M0 0 C0.66 0 1.32 0 2 0 C2 4.62 2 9.24 2 14 C-8.28304538 14.02312376 -18.56608462 14.04091525 -28.84915066 14.05181217 C-33.6234828 14.05704093 -38.39779721 14.06413844 -43.17211914 14.07543945 C-47.77566262 14.0862686 -52.37918899 14.09227689 -56.98274422 14.09487724 C-58.74309623 14.09673144 -60.50344726 14.10035196 -62.26379204 14.10573006 C-64.72072277 14.11294086 -67.17758195 14.11399093 -69.63452148 14.11352539 C-70.36963455 14.11712067 -71.10474762 14.12071594 -71.86213684 14.12442017 C-76.88594784 14.11405216 -76.88594784 14.11405216 -78 13 C-77.75 9.5625 -77.75 9.5625 -77 6 C-73.3138294 3.54255293 -71.48070666 3.74360969 -67.08178711 3.72875977 C-66.38230453 3.72353302 -65.68282196 3.71830627 -64.96214294 3.71292114 C-63.44472941 3.70268604 -61.92728082 3.69690159 -60.40983391 3.69503975 C-58.01032425 3.69138029 -55.61122945 3.67466742 -53.21180725 3.65428162 C-46.39055065 3.59881627 -39.56923364 3.56812483 -32.74780273 3.54370117 C-28.57506644 3.52785959 -24.40262655 3.4976809 -20.23004341 3.45893669 C-18.63801777 3.4472603 -17.04593923 3.44135611 -15.45387077 3.44125557 C-13.23187 3.44106431 -11.01069187 3.42285911 -8.78881836 3.40063477 C-7.52323593 3.39556412 -6.2576535 3.39049347 -4.95372009 3.38526917 C-3.97899246 3.25813034 -3.00426483 3.13099152 -2 3 C-1.34 2.01 -0.68 1.02 0 0 Z "
        fill="#42434D" transform="translate(106,88)" />
    <path
        d="M0 0 C2.74637817 0.37881078 3.80049058 0.77832287 5.6875 2.875 C9.98222395 9.82836259 8 14.29880183 8 24 C-7.51 24 -23.02 24 -39 24 C-39 17.78970327 -38.74553082 16.55537532 -35 12 C-31.09242496 9.11529897 -28.27191622 8.62384944 -23.45703125 8.59375 C-21.59981445 8.56087891 -21.59981445 8.56087891 -19.70507812 8.52734375 C-17.09830787 8.50903227 -14.49153703 8.49080384 -11.88476562 8.47265625 C-10.03334961 8.43978516 -10.03334961 8.43978516 -8.14453125 8.40625 C-7.01378174 8.39916016 -5.88303223 8.39207031 -4.71801758 8.38476562 C-3.37259888 8.19430664 -3.37259888 8.19430664 -2 8 C0.1519437 4.77208445 0.20086443 3.71599191 0 0 Z "
        fill="#FD4F60" transform="translate(85,59)" />
    <path
        d="M0 0 C0.86625 0.37125 0.86625 0.37125 1.75 0.75 C1.38287028 3.46675995 1.02255401 5.36063713 -0.5625 7.625 C-2.25 8.75 -2.25 8.75 -4.4375 8.4375 C-5.035625 8.210625 -5.63375 7.98375 -6.25 7.75 C-6.25 3.75 -6.25 3.75 -4.5 1.4375 C-2.25 -0.25 -2.25 -0.25 0 0 Z "
        fill="#B5D9F5" transform="translate(123.25,25.25)" />
    <path
        d="M0 0 C3.68754757 0.49831724 5.60490662 1.10067643 8 4 C7.34 5.32 6.68 6.64 6 8 C4.1875 7.8125 4.1875 7.8125 2 7 C0.1875 4.5625 0.1875 4.5625 -1 2 C-0.67 1.34 -0.34 0.68 0 0 Z "
        fill="#B5D8F6" transform="translate(4,26)" />
    <path
        d="M0 0 C1.32 0.33 2.64 0.66 4 1 C3.67 3.64 3.34 6.28 3 9 C1.35 9 -0.3 9 -2 9 C-2.25 3.375 -2.25 3.375 0 0 Z "
        fill="#B4D5F5" transform="translate(94,11)" />
    <path
        d="M0 0 C2 0.3125 2 0.3125 4 1 C5.35439668 3.70879335 5.06501451 6.00933268 5 9 C3.35 9 1.7 9 0 9 C-0.87890625 2.84765625 -0.87890625 2.84765625 -1 1 C-0.67 0.67 -0.34 0.34 0 0 Z "
        fill="#B5D4F5" transform="translate(31,11)" />
    <path
        d="M0 0 C1.32 0 2.64 0 4 0 C4 2.97 4 5.94 4 9 C2.35 8.67 0.7 8.34 -1 8 C-1.04241723 5.66705225 -1.04092937 3.33297433 -1 1 C-0.67 0.67 -0.34 0.34 0 0 Z "
        fill="#B5D4F5" transform="translate(62,7)" />
</svg>