<?xml version="1.0" encoding="UTF-8"?>
<svg version="1.1" xmlns="http://www.w3.org/2000/svg" width="64" height="64">
    <path
        d="M0 0 C3.24499591 2.16333061 3.87172124 3.44412537 4.75 7.25 C4.8325 8.1575 4.915 9.065 5 10 C5.9075 10.226875 6.815 10.45375 7.75 10.6875 C11.61546934 12.24855493 12.89729365 13.41761141 15 17 C16.28710945 21.87693816 15.93976331 26.0662426 15 31 C15.495 31.99 15.495 31.99 16 33 C16.42068924 36.05901174 16.49028455 38.94758326 16 42 C13.5625 45 13.5625 45 11 47 C10.67 47.33 10.34 47.66 10 48 C8.52351124 48.09823996 7.04224583 48.12973519 5.5625 48.125 C4.75941406 48.12757812 3.95632812 48.13015625 3.12890625 48.1328125 C1 48 1 48 -1 47 C-1 51.62 -1 56.24 -1 61 C0.65 61 2.3 61 4 61 C4 61.99 4 62.98 4 64 C-6.56 64 -17.12 64 -28 64 C-27.67 63.01 -27.34 62.02 -27 61 C-26.34 61 -25.68 61 -25 61 C-25 60.01 -25 59.02 -25 58 C-29.29 58 -33.58 58 -38 58 C-38 59.98 -38 61.96 -38 64 C-40.64 64 -43.28 64 -46 64 C-46.144375 62.865625 -46.28875 61.73125 -46.4375 60.5625 C-46.61171478 57.19222799 -46.61171478 57.19222799 -48 56 C-48.25 53.0625 -48.25 53.0625 -48 50 C-42.93113716 46.62075811 -36.95118586 47.67271077 -31 47.6875 C-29.70320313 47.67138672 -28.40640625 47.65527344 -27.0703125 47.63867188 C-25.83023437 47.63802734 -24.59015625 47.63738281 -23.3125 47.63671875 C-21.60513672 47.63224731 -21.60513672 47.63224731 -19.86328125 47.62768555 C-17 48 -17 48 -15.09375 49.37426758 C-14 51 -14 51 -14.1875 53.375 C-14.9885233 55.96292144 -15.99388246 58.48470614 -17 61 C-12.71 61 -8.42 61 -4 61 C-4.33 56.38 -4.66 51.76 -5 47 C-5.99 47.495 -5.99 47.495 -7 48 C-10.05920574 48.42071592 -12.9467746 48.48514117 -16 48 C-18.75569447 45.81840855 -20.43588747 44.12822506 -22 41 C-22.03052942 38.4965879 -21.93318882 36.00946037 -21.83984375 33.5078125 C-22.01296127 30.79704548 -22.79297699 29.39019182 -24 27 C-24.23816398 22.56221112 -23.52425242 18.91258754 -21.3125 15.0625 C-18.65674596 12.69385451 -16.42841668 11.85710417 -13 11 C-12.9175 9.9275 -12.835 8.855 -12.75 7.75 C-12 4 -12 4 -10.4375 1.5625 C-6.96621084 -0.66268536 -4.01310109 -0.80756449 0 0 Z M-7.8125 4 C-9.78139881 7.31604011 -8.66926895 10.28859948 -8 14 C-9.5778125 14.0928125 -9.5778125 14.0928125 -11.1875 14.1875 C-15.75244948 15.16035809 -17.2931137 16.22676454 -20 20 C-20.53603554 24.44143734 -20.50031654 26.24952518 -18 30 C-18.29048682 32.00113143 -18.58236495 34.0021357 -18.89453125 36 C-19.05610457 39.06390882 -17.90574277 40.68588377 -16 43 C-13.18291805 45.31537595 -13.18291805 45.31537595 -10 44.8125 C-6.99224715 43.99790027 -5.88178097 43.4044979 -4 41 C-5.36983503 37.83884224 -5.9890638 37.0072908 -9 35 C-12.1628485 35.80404463 -12.1628485 35.80404463 -15 37 C-14.67 36.01 -14.34 35.02 -14 34 C-13.34 33.67 -12.68 33.34 -12 33 C-12.33 31.35 -12.66 29.7 -13 28 C-9.84866512 29.83827868 -6.88035092 31.75972706 -4 34 C-3.67386382 29.32538149 -4.29417212 26.83325617 -7 23 C-6.01 22.67 -5.02 22.34 -4 22 C-4 21.01 -4 20.02 -4 19 C-3.01 19 -2.02 19 -1 19 C-1 22.63 -1 26.26 -1 30 C1.31 28.68 3.62 27.36 6 26 C4.93686939 29.38268829 4.01803317 30.98325491 1.375 33.4375 C-1.25657604 35.81503476 -1.25657604 35.81503476 -1.5625 39.125 C-1.23283195 42.0395203 -1.23283195 42.0395203 0.625 43.9375 C3.8497164 45.38013628 5.64876786 44.99823936 9 44 C11.66029723 42.25704664 11.97031677 41.1095996 12.8125 38 C13.31537595 34.81708195 13.31537595 34.81708195 11 32 C11.10361925 28.93027984 11.5138068 25.95536454 11.90625 22.91015625 C12.00543945 19.83115035 11.75241544 18.49620592 10 16 C6.76967782 14.07555275 4.78176921 13 1 13 C1.061875 11.906875 1.12375 10.81375 1.1875 9.6875 C1.31409767 6.13330642 1.31409767 6.13330642 -0.25 4.0625 C-2.8986723 2.45437753 -5.11593377 2.51223932 -7.8125 4 Z M-45 52 C-45 52.66 -45 53.32 -45 54 C-36.09 54 -27.18 54 -18 54 C-18 53.34 -18 52.68 -18 52 C-26.91 52 -35.82 52 -45 52 Z M-43 58 C-43 58.99 -43 59.98 -43 61 C-42.34 61 -41.68 61 -41 61 C-41 60.01 -41 59.02 -41 58 C-41.66 58 -42.32 58 -43 58 Z M-22 58 C-22 58.99 -22 59.98 -22 61 C-21.34 61 -20.68 61 -20 61 C-20 60.01 -20 59.02 -20 58 C-20.66 58 -21.32 58 -22 58 Z "
        fill="green" transform="translate(48,0)" />
    <path
        d="M0 0 C3.96 0 7.92 0 12 0 C12 0.99 12 1.98 12 3 C9.8125 4.8125 9.8125 4.8125 7 6 C4.3125 5.25 4.3125 5.25 2 4 C1.34 3.67 0.68 3.34 0 3 C0 2.01 0 1.02 0 0 Z "
        fill="green" transform="translate(2,21)" />
    <path
        d="M0 0 C3.96 0 7.92 0 12 0 C12 0.99 12 1.98 12 3 C9.75 4.8125 9.75 4.8125 7 6 C4.875 5.25 4.875 5.25 3 4 C2.01 3.67 1.02 3.34 0 3 C0 2.01 0 1.02 0 0 Z "
        fill="green" transform="translate(10,12)" />
    <path
        d="M0 0 C0.99 0 1.98 0 3 0 C2.67 1.98 2.34 3.96 2 6 C0.68 6.33 -0.64 6.66 -2 7 C-1.125 1.125 -1.125 1.125 0 0 Z "
        fill="green" transform="translate(31,18)" />
    <path
        d="M0 0 C0.99 0.33 1.98 0.66 3 1 C3 1.66 3 2.32 3 3 C1.68 3 0.36 3 -1 3 C-0.67 2.01 -0.34 1.02 0 0 Z "
        fill="green" transform="translate(55,61)" />
    <path
        d="M0 0 C1.32 0.33 2.64 0.66 4 1 C3.67 1.66 3.34 2.32 3 3 C2.01 3 1.02 3 0 3 C0 2.01 0 1.02 0 0 Z "
        fill="green" transform="translate(35,16)" />
</svg>