<?xml version="1.0" encoding="UTF-8"?>
<svg version="1.1" xmlns="http://www.w3.org/2000/svg" width="64" height="64">
<path d="M0 0 C3.4285785 2.02008139 6.20847086 4.41694171 8 8 C8.94444966 17.61480717 8.94444966 17.61480717 6.125 21.75 C5.073125 22.86375 5.073125 22.86375 4 24 C3.67 25.19625 3.34 26.3925 3 27.625 C2 31 2 31 0.45678711 32.68383789 C-3.05439468 34.56486552 -6.42059479 34.4483593 -10.30859375 34.43359375 C-11.11232925 34.4388356 -11.91606476 34.44407745 -12.74415588 34.44947815 C-14.44116055 34.45589095 -16.13820971 34.45457092 -17.83520508 34.44604492 C-20.4254512 34.43753956 -23.01348754 34.46629608 -25.60351562 34.49804688 C-27.25520767 34.49965922 -28.90690361 34.49908072 -30.55859375 34.49609375 C-31.32956894 34.50732773 -32.10054413 34.51856171 -32.8948822 34.53013611 C-36.58092846 34.48260401 -38.79781911 34.12410527 -41.96508789 32.17993164 C-44.79597125 29.14730326 -45 27.10912254 -45 23 C-43.8125 19.625 -43.8125 19.625 -42 17 C-39.8125 16.125 -39.8125 16.125 -38 16 C-37.938125 15.278125 -37.87625 14.55625 -37.8125 13.8125 C-36.7463595 10.12201365 -34.85208836 8.50427271 -32 6 C-29.67404054 4.83702027 -28.21276769 4.83399309 -25.625 4.8125 C-24.46871094 4.79123047 -24.46871094 4.79123047 -23.2890625 4.76953125 C-20.78165112 5.02198393 -19.16738098 5.74806533 -17 7 C-16.6596875 6.1028125 -16.6596875 6.1028125 -16.3125 5.1875 C-12.75087156 -0.7485474 -6.30966961 -1.24623334 0 0 Z M-12 6 C-10.0922331 8.11858541 -10.0922331 8.11858541 -7.5 9.25 C-4.30520398 11.48635721 -4.20741917 13.37774248 -3 17 C-0.50447863 18.89942124 -0.50447863 18.89942124 2 20 C4.07994028 17.17128122 5 15.55490809 5 12 C3.73075885 8.19227655 2.12747526 6.48776441 -1 4 C-5.47942587 2.16228682 -7.96172273 3.65216438 -12 6 Z M-34 14 C-34.165 14.70125 -34.33 15.4025 -34.5 16.125 C-34.665 16.74375 -34.83 17.3625 -35 18 C-36.2375 18.7115625 -36.2375 18.7115625 -37.5 19.4375 C-40.16107807 20.78808282 -40.16107807 20.78808282 -41.125 23.375 C-41.24398318 26.2114739 -41.24398318 26.2114739 -38.93774414 28.62695312 C-35.29956766 31.56579426 -33.49843862 31.62005702 -28.87109375 31.59375 C-27.86381981 31.59381042 -27.86381981 31.59381042 -26.8361969 31.59387207 C-25.42333565 31.58853343 -24.01047349 31.57102098 -22.59790039 31.54199219 C-20.43999243 31.50004845 -18.28520105 31.50093362 -16.12695312 31.5078125 C-9.10337446 31.75148994 -9.10337446 31.75148994 -2.59790039 29.62304688 C-0.79285618 28.07277814 -0.79285618 28.07277814 -0.4375 25.5625 C-1.21703086 22.01130385 -3.18914676 21.20852755 -6 19 C-6.71408334 17.01643517 -7.38617742 15.01684563 -8 13 C-10.88999771 10.58093377 -10.88999771 10.58093377 -14.4375 11.5625 C-18 12 -18 12 -20 10.5625 C-20.66 10.046875 -21.32 9.53125 -22 9 C-27.94279252 8.13559382 -30.34777236 9.27358777 -34 14 Z " fill="#000000" transform="translate(45,20)"/>
<path d="M0 0 C4.75 0.75 4.75 0.75 7 3 C7 4.32 7 5.64 7 7 C3.76509224 6.44225728 2.02144994 5.62788492 0 3 C0 2.01 0 1.02 0 0 Z " fill="#000000" transform="translate(50,44)"/>
<path d="M0 0 C-0.75 4.75 -0.75 4.75 -3 7 C-4.32 7 -5.64 7 -7 7 C-6.22006468 2.47637516 -4.81844319 0 0 0 Z " fill="#000000" transform="translate(57,16)"/>
<path d="M0 0 C2.86724686 0.57344937 3.8614515 0.8614515 6 3 C6 4.32 6 5.64 6 7 C2.73045798 6.43628586 1.17424117 5.50037734 -1 3 C-0.67 2.01 -0.34 1.02 0 0 Z " fill="#000000" transform="translate(23,16)"/>
<path d="M0 0 C1.32 0 2.64 0 4 0 C4 2.31 4 4.62 4 7 C2.68 7.33 1.36 7.66 0 8 C0 5.36 0 2.72 0 0 Z " fill="#000000" transform="translate(38,10)"/>
<path d="M0 0 C2.97 0 5.94 0 9 0 C9 0.99 9 1.98 9 3 C6.03 3 3.06 3 0 3 C0 2.01 0 1.02 0 0 Z " fill="#000000" transform="translate(55,32)"/>
</svg>
