<?xml version="1.0" standalone="no"?>

<svg version="1.0" xmlns="http://www.w3.org/2000/svg"
    width="64.000000pt" height="64.000000pt" viewBox="0 0 64.000000 64.000000"
    preserveAspectRatio="xMidYMid meet">

    <g transform="translate(0.000000,64.000000) scale(0.100000,-0.100000)"
        fill="#000000" stroke="none">
        <path
            d="M178 573 c-44 -51 -50 -112 -15 -163 41 -61 96 -57 130 10 22 42 17
102 -11 139 -24 33 -81 41 -104 14z m82 -44 c13 -23 13 -75 0 -98 -27 -51 -80
-18 -80 49 0 67 53 100 80 49z" />
        <path
            d="M361 565 c-51 -65 -30 -173 39 -197 44 -15 100 48 100 113 0 88 -91
143 -139 84z m89 -36 c22 -40 7 -110 -25 -123 -26 -10 -55 29 -55 74 0 67 53
100 80 49z" />
        <path
            d="M16 398 c-39 -55 8 -148 75 -148 23 0 49 42 49 79 0 75 -86 123 -124
69z m61 -16 c30 -19 33 -92 3 -92 -18 0 -40 32 -40 59 0 38 12 49 37 33z" />
        <path
            d="M525 394 c-32 -34 -34 -95 -5 -124 23 -23 29 -24 64 -10 28 10 56 57
56 92 0 66 -70 91 -115 42z m73 -28 c10 -50 -30 -94 -55 -61 -8 12 -9 25 -2
43 17 44 50 54 57 18z" />
        <path
            d="M305 355 c-5 -2 -23 -6 -38 -9 -38 -9 -116 -82 -138 -131 -24 -52
-25 -127 -1 -147 25 -23 359 -23 385 0 22 19 23 89 2 140 -18 42 -77 107 -115
126 -27 14 -79 25 -95 21z m62 -46 c59 -22 114 -96 128 -171 10 -52 -12 -62
-105 -47 -50 8 -90 8 -140 0 -93 -15 -115 -5 -105 47 23 125 129 207 222 171z" />
    </g>
</svg>