<?xml version="1.0" encoding="UTF-8"?>
<svg xmlns="http://www.w3.org/2000/svg" version="1.1" width="64px" height="64px" style="shape-rendering:geometricPrecision; text-rendering:geometricPrecision; image-rendering:optimizeQuality; fill-rule:evenodd; clip-rule:evenodd" xmlns:xlink="http://www.w3.org/1999/xlink">
<g><path style="opacity:0.664" fill="#000000" d="M 29.5,-0.5 C 30.8333,-0.5 32.1667,-0.5 33.5,-0.5C 35.923,3.34498 38.0897,7.34498 40,11.5C 42.8515,7.49357 46.6848,5.16024 51.5,4.5C 52.6586,8.71438 52.6586,12.8811 51.5,17C 53.1626,17.2649 54.6626,16.7649 56,15.5C 58.759,24.3659 56.9257,32.1992 50.5,39C 52.4181,40.7702 52.9181,42.9369 52,45.5C 50.7949,46.0712 49.6283,46.7379 48.5,47.5C 47.4772,51.1128 46.6438,54.7794 46,58.5C 44.975,60.687 43.475,62.3536 41.5,63.5C 34.8333,63.5 28.1667,63.5 21.5,63.5C 19.525,62.3536 18.025,60.687 17,58.5C 16.1184,55.2105 15.4517,51.8772 15,48.5C 13.5962,46.6061 12.4295,44.6061 11.5,42.5C 12.9907,39.4592 12.1574,37.1258 9,35.5C 5.55052,29.0066 4.88385,22.34 7,15.5C 8.3374,16.7649 9.8374,17.2649 11.5,17C 10.3414,12.8811 10.3414,8.71438 11.5,4.5C 16.3152,5.16024 20.1485,7.49357 23,11.5C 24.9103,7.34498 27.077,3.34498 29.5,-0.5 Z M 29.5,4.5 C 30.658,13.9911 30.8246,23.6578 30,33.5C 28.3819,29.7195 25.8819,26.7195 22.5,24.5C 23.729,17.3902 26.0623,10.7235 29.5,4.5 Z M 32.5,4.5 C 36.7758,10.4045 39.4424,17.0711 40.5,24.5C 37.1181,26.7195 34.6181,29.7195 33,33.5C 32.5002,23.8391 32.3335,14.1724 32.5,4.5 Z M 17.5,10.5 C 20.6976,11.8537 21.8642,14.1871 21,17.5C 19.295,15.4234 18.1283,13.09 17.5,10.5 Z M 44.5,10.5 C 44.9725,12.9705 44.1392,15.3038 42,17.5C 41.3333,16.1667 41.3333,14.8333 42,13.5C 43.045,12.6266 43.8783,11.6266 44.5,10.5 Z M 18.5,21.5 C 14.0744,19.6408 12.5744,16.3075 14,11.5C 15.7862,14.7365 17.2862,18.0698 18.5,21.5 Z M 44.5,21.5 C 45.7138,18.0698 47.2138,14.7365 49,11.5C 50.4256,16.3075 48.9256,19.6408 44.5,21.5 Z M 50.5,21.5 C 51.4674,22.8062 52.8007,23.4729 54.5,23.5C 54.2658,28.8004 52.2658,33.3004 48.5,37C 45.9699,38.4217 43.3033,38.755 40.5,38C 45.1641,35.1796 48.4974,31.3463 50.5,26.5C 49.448,26.3505 48.448,26.5172 47.5,27C 44.23,32.5001 39.8967,36.0001 34.5,37.5C 38.2158,30.4508 43.5492,25.1174 50.5,21.5 Z M 8.5,23.5 C 12.2631,29.0983 16.9297,33.9317 22.5,38C 18.2071,39.2016 14.7071,38.0349 12,34.5C 10.0602,31.0724 8.89353,27.4058 8.5,23.5 Z M 13.5,23.5 C 20.9728,26.1362 25.8061,31.1362 28,38.5C 21.5967,34.9315 16.7634,29.9315 13.5,23.5 Z M 14.5,41.5 C 26.1857,41.1678 37.8523,41.5011 49.5,42.5C 41.5277,43.4977 33.5277,43.831 25.5,43.5C 25.5,44.5 25.5,45.5 25.5,46.5C 32.1998,46.17 38.8665,46.5033 45.5,47.5C 44.6439,51.5913 43.4772,55.5913 42,59.5C 35,62.1667 28,62.1667 21,59.5C 19.5228,55.5913 18.3561,51.5913 17.5,47.5C 18.6888,46.5713 20.0222,46.238 21.5,46.5C 21.5,45.5 21.5,44.5 21.5,43.5C 18.6122,44.0102 16.2789,43.3435 14.5,41.5 Z"/></g>
</svg>
