<?xml version="1.0" encoding="UTF-8"?>

<svg xmlns="http://www.w3.org/2000/svg" version="1.1" width="64px" height="64px" style="shape-rendering:geometricPrecision; text-rendering:geometricPrecision; image-rendering:optimizeQuality; fill-rule:evenodd; clip-rule:evenodd" xmlns:xlink="http://www.w3.org/1999/xlink">
<g><path style="opacity:0.92" fill="#000000" d="M 63.5,4.5 C 63.5,19.1667 63.5,33.8333 63.5,48.5C 56.9221,49.4601 50.2554,49.7934 43.5,49.5C 43.5461,54.8616 46.2128,56.8616 51.5,55.5C 51.5,56.8333 51.5,58.1667 51.5,59.5C 38.1667,59.5 24.8333,59.5 11.5,59.5C 11.5,58.1667 11.5,56.8333 11.5,55.5C 16.7872,56.8616 19.4539,54.8616 19.5,49.5C 12.7446,49.7934 6.07794,49.4601 -0.5,48.5C -0.5,33.8333 -0.5,19.1667 -0.5,4.5C 20.8333,3.16667 42.1667,3.16667 63.5,4.5 Z M 3.5,7.5 C 22.1667,7.5 40.8333,7.5 59.5,7.5C 59.5,17.5 59.5,27.5 59.5,37.5C 40.8333,37.5 22.1667,37.5 3.5,37.5C 3.5,27.5 3.5,17.5 3.5,7.5 Z M 3.5,41.5 C 22.1667,41.5 40.8333,41.5 59.5,41.5C 59.5,42.8333 59.5,44.1667 59.5,45.5C 40.8333,45.5 22.1667,45.5 3.5,45.5C 3.5,44.1667 3.5,42.8333 3.5,41.5 Z M 25.5,49.5 C 29.5138,49.3345 33.5138,49.5012 37.5,50C 38.8613,51.5843 39.528,53.4176 39.5,55.5C 34.1667,55.5 28.8333,55.5 23.5,55.5C 23.6036,53.2972 24.2702,51.2972 25.5,49.5 Z"/></g>
<g><path style="opacity:0.774" fill="#000000" d="M 9.5,14.5 C 12.2776,14.0217 14.2776,15.0217 15.5,17.5C 16.7224,15.0217 18.7224,14.0217 21.5,14.5C 21.6227,17.5879 20.6227,20.2546 18.5,22.5C 20.6227,24.7454 21.6227,27.4121 21.5,30.5C 18.7224,30.9783 16.7224,29.9783 15.5,27.5C 14.2776,29.9783 12.2776,30.9783 9.5,30.5C 9.37731,27.4121 10.3773,24.7454 12.5,22.5C 10.3773,20.2546 9.37731,17.5879 9.5,14.5 Z"/></g>
<g><path style="opacity:0.774" fill="#000000" d="M 25.5,14.5 C 28.2776,14.0217 30.2776,15.0217 31.5,17.5C 32.7224,15.0217 34.7224,14.0217 37.5,14.5C 37.6227,17.5879 36.6227,20.2546 34.5,22.5C 36.6227,24.7454 37.6227,27.4121 37.5,30.5C 34.7224,30.9783 32.7224,29.9783 31.5,27.5C 30.2776,29.9783 28.2776,30.9783 25.5,30.5C 25.3773,27.4121 26.3773,24.7454 28.5,22.5C 26.3773,20.2546 25.3773,17.5879 25.5,14.5 Z"/></g>
<g><path style="opacity:0.774" fill="#000000" d="M 41.5,14.5 C 44.2776,14.0217 46.2776,15.0217 47.5,17.5C 48.7224,15.0217 50.7224,14.0217 53.5,14.5C 53.6227,17.5879 52.6227,20.2546 50.5,22.5C 52.6227,24.7454 53.6227,27.4121 53.5,30.5C 50.7224,30.9783 48.7224,29.9783 47.5,27.5C 46.2776,29.9783 44.2776,30.9783 41.5,30.5C 41.3773,27.4121 42.3773,24.7454 44.5,22.5C 42.3773,20.2546 41.3773,17.5879 41.5,14.5 Z"/></g>
</svg>
