<?xml version="1.0" encoding="UTF-8"?>
<svg xmlns="http://www.w3.org/2000/svg" version="1.1" width="64px" height="64px" style="shape-rendering:geometricPrecision; text-rendering:geometricPrecision; image-rendering:optimizeQuality; fill-rule:evenodd; clip-rule:evenodd" xmlns:xlink="http://www.w3.org/1999/xlink">
<g><path style="opacity:0.773" fill="#000000" d="M 19.5,-0.5 C 23.5,-0.5 27.5,-0.5 31.5,-0.5C 34.7477,1.30616 37.4144,3.80616 39.5,7C 48.6788,6.35632 53.6788,10.523 54.5,19.5C 58.5897,19.9319 61.5897,21.9319 63.5,25.5C 63.5,28.8333 63.5,32.1667 63.5,35.5C 61.3885,39.3982 58.0552,41.5648 53.5,42C 39.8333,42.6667 26.1667,42.6667 12.5,42C 6.30997,41.3021 1.97664,38.1354 -0.5,32.5C -0.5,29.1667 -0.5,25.8333 -0.5,22.5C 1.51431,18.1578 4.84765,15.1578 9.5,13.5C 10.905,7.32109 14.2384,2.65442 19.5,-0.5 Z M 21.5,4.5 C 28.8858,3.19145 33.8858,6.02478 36.5,13C 38.476,13.1878 40.476,13.0212 42.5,12.5C 48.0955,13.3123 50.5955,16.6456 50,22.5C 52.9239,23.7344 55.5905,25.4011 58,27.5C 59.5437,32.6228 57.7103,35.7895 52.5,37C 39.5,37.6667 26.5,37.6667 13.5,37C 5.76012,35.7001 2.92679,31.2001 5,23.5C 6.16667,21.6667 7.66667,20.1667 9.5,19C 11.676,18.8371 13.5093,18.0037 15,16.5C 14.8485,11.1295 17.0152,7.1295 21.5,4.5 Z"/></g>
<g><path style="opacity:0.736" fill="#000000" d="M 4.5,44.5 C 6.71589,44.2746 8.38256,45.1079 9.5,47C 7.87264,49.7542 6.37264,52.5875 5,55.5C 3.64387,56.3802 2.14387,56.7135 0.5,56.5C 0.688685,52.1217 2.02202,48.1217 4.5,44.5 Z"/></g>
<g><path style="opacity:0.747" fill="#000000" d="M 22.5,44.5 C 23.8333,44.5 25.1667,44.5 26.5,44.5C 26.4984,48.5115 25.3317,52.1781 23,55.5C 21.6439,56.3802 20.1439,56.7135 18.5,56.5C 18.6887,52.1217 20.022,48.1217 22.5,44.5 Z"/></g>
<g><path style="opacity:0.747" fill="#000000" d="M 40.5,44.5 C 41.8333,44.5 43.1667,44.5 44.5,44.5C 44.4984,48.5115 43.3317,52.1781 41,55.5C 39.6439,56.3802 38.1439,56.7135 36.5,56.5C 36.6887,52.1217 38.022,48.1217 40.5,44.5 Z"/></g>
<g><path style="opacity:0.736" fill="#000000" d="M 58.5,44.5 C 59.8333,44.5 61.1667,44.5 62.5,44.5C 62.4984,48.5115 61.3317,52.1781 59,55.5C 57.0355,56.885 55.2021,56.7184 53.5,55C 55.036,51.4284 56.7026,47.9284 58.5,44.5 Z"/></g>
<g><path style="opacity:0.736" fill="#000000" d="M 10.5,63.5 C 9.16667,63.5 7.83333,63.5 6.5,63.5C 6.50164,59.4885 7.66831,55.8219 10,52.5C 12.305,51.0612 14.1384,51.5612 15.5,54C 13.6932,57.1145 12.0265,60.2812 10.5,63.5 Z"/></g>
<g><path style="opacity:0.747" fill="#000000" d="M 28.5,63.5 C 27.1667,63.5 25.8333,63.5 24.5,63.5C 24.5016,59.4885 25.6683,55.8219 28,52.5C 29.3561,51.6198 30.8561,51.2865 32.5,51.5C 32.3113,55.8783 30.978,59.8783 28.5,63.5 Z"/></g>
<g><path style="opacity:0.736" fill="#000000" d="M 46.5,63.5 C 45.1667,63.5 43.8333,63.5 42.5,63.5C 42.3527,59.7019 43.5193,56.0352 46,52.5C 47.3561,51.6198 48.8561,51.2865 50.5,51.5C 50.3113,55.8783 48.978,59.8783 46.5,63.5 Z"/></g>
</svg>
