<?xml version="1.0" encoding="UTF-8"?>

<svg xmlns="http://www.w3.org/2000/svg" version="1.1" width="64px" height="64px"
    style="shape-rendering:geometricPrecision; text-rendering:geometricPrecision; image-rendering:optimizeQuality; fill-rule:evenodd; clip-rule:evenodd"
    xmlns:xlink="http://www.w3.org/1999/xlink">
    <g>
        <path style="opacity:0.683" fill="blue"
            d="M 29.5,-0.5 C 30.8333,-0.5 32.1667,-0.5 33.5,-0.5C 35.2413,1.97741 36.7413,4.64408 38,7.5C 39.5873,14.8013 41.9206,21.8013 45,28.5C 45.6067,32.5369 45.44,36.5369 44.5,40.5C 41.8205,40.3274 39.4872,39.3274 37.5,37.5C 35.2262,37.9702 33.2262,38.9702 31.5,40.5C 29.7738,38.9702 27.7738,37.9702 25.5,37.5C 23.5128,39.3274 21.1795,40.3274 18.5,40.5C 16.5528,33.5136 17.5528,27.0136 21.5,21C 22.1207,12.9782 24.7874,5.81153 29.5,-0.5 Z M 35.5,11.5 C 32.8333,10.1667 30.1667,10.1667 27.5,11.5C 27.8975,7.02089 30.2309,5.68756 34.5,7.5C 35.2458,8.73619 35.5792,10.0695 35.5,11.5 Z M 30.5,13.5 C 33.8606,14.2032 34.1939,15.5365 31.5,17.5C 29.3576,16.5629 29.0243,15.2296 30.5,13.5 Z M 25.5,14.5 C 26.4171,20.2004 29.5838,21.8671 35,19.5C 35.8624,17.913 36.5291,16.2464 37,14.5C 38.1564,18.4183 38.6564,22.4183 38.5,26.5C 36.5,26.5 34.5,26.5 32.5,26.5C 31.8333,19.8333 31.1667,19.8333 30.5,26.5C 28.5,26.5 26.5,26.5 24.5,26.5C 24.5045,22.4659 24.8379,18.4659 25.5,14.5 Z M 21.5,26.5 C 22.3432,28.4872 23.0098,30.6539 23.5,33C 23.0696,34.4341 22.2362,35.6008 21,36.5C 20.4572,33.1322 20.6239,29.7989 21.5,26.5 Z M 40.5,26.5 C 42.3371,29.519 42.8371,32.8524 42,36.5C 40.7638,35.6008 39.9304,34.4341 39.5,33C 40.2865,30.9011 40.6199,28.7345 40.5,26.5 Z M 25.5,30.5 C 26.9187,29.5489 28.5853,29.2155 30.5,29.5C 30.3807,36.9487 28.7141,37.282 25.5,30.5 Z M 32.5,29.5 C 34.1992,29.3398 35.8659,29.5065 37.5,30C 34.4545,37.2257 32.7878,37.0591 32.5,29.5 Z" />
    </g>
    <g>
        <path style="opacity:0.645" fill="blue"
            d="M -0.5,39.5 C 4.94574,39.9491 7.6124,42.9491 7.5,48.5C 10.7408,50.4454 13.7408,50.4454 16.5,48.5C 17.5539,48.6799 18.5539,49.0133 19.5,49.5C 21.8253,52.1449 23.8253,54.9783 25.5,58C 24.9231,59.9001 24.2565,61.7334 23.5,63.5C 21.8333,63.5 20.1667,63.5 18.5,63.5C 19.4564,61.4842 20.7898,59.6508 22.5,58C 20.8648,56.2518 18.8648,55.0851 16.5,54.5C 17.3256,53.549 17.4922,52.549 17,51.5C 13.4203,52.5334 9.92026,53.5334 6.5,54.5C 4.67989,51.5472 3.51322,48.2139 3,44.5C 2.18405,43.1772 1.01739,42.5106 -0.5,42.5C -0.5,41.5 -0.5,40.5 -0.5,39.5 Z" />
    </g>
    <g>
        <path style="opacity:0.598" fill="blue"
            d="M 26.5,39.5 C 27.5,39.5 28.5,39.5 29.5,39.5C 29.5,42.5 29.5,45.5 29.5,48.5C 28.5,48.5 27.5,48.5 26.5,48.5C 26.5,45.5 26.5,42.5 26.5,39.5 Z" />
    </g>
    <g>
        <path style="opacity:0.598" fill="blue"
            d="M 33.5,39.5 C 34.5,39.5 35.5,39.5 36.5,39.5C 36.5,42.5 36.5,45.5 36.5,48.5C 35.5,48.5 34.5,48.5 33.5,48.5C 33.5,45.5 33.5,42.5 33.5,39.5 Z" />
    </g>
    <g>
        <path style="opacity:0.641" fill="blue"
            d="M 63.5,39.5 C 63.5,40.5 63.5,41.5 63.5,42.5C 61.405,42.7598 60.0717,43.9264 59.5,46C 60.7073,47.3002 61.3739,48.8002 61.5,50.5C 56.2778,51.5427 51.2778,53.2094 46.5,55.5C 46.6567,54.1266 46.49,52.7932 46,51.5C 44.8099,54.2002 42.9766,56.3669 40.5,58C 42.2102,59.6508 43.5436,61.4842 44.5,63.5C 43.1667,63.5 41.8333,63.5 40.5,63.5C 38.8951,62.0817 37.8951,60.2484 37.5,58C 38.6321,55.114 40.2988,52.614 42.5,50.5C 45.0425,47.9647 47.5425,47.9647 50,50.5C 51.7849,49.7599 53.6183,49.0933 55.5,48.5C 55.3876,42.9491 58.0543,39.9491 63.5,39.5 Z" />
    </g>
    <g>
        <path style="opacity:0.899" fill="blue"
            d="M 30.5,41.5 C 31.8164,44.0866 32.483,47.0866 32.5,50.5C 32.1667,53.5 31.8333,56.5 31.5,59.5C 30.5041,53.5368 30.1707,47.5368 30.5,41.5 Z" />
    </g>
</svg>